%TF.GenerationSoftware,KiCad,Pcbnew,8.0.5*%
%TF.CreationDate,2024-10-03T22:49:54+01:00*%
%TF.ProjectId,OV7670 pico board,4f563736-3730-4207-9069-636f20626f61,rev?*%
%TF.SameCoordinates,Original*%
%TF.FileFunction,Legend,Top*%
%TF.FilePolarity,Positive*%
%FSLAX46Y46*%
G04 Gerber Fmt 4.6, Leading zero omitted, Abs format (unit mm)*
G04 Created by KiCad (PCBNEW 8.0.5) date 2024-10-03 22:49:54*
%MOMM*%
%LPD*%
G01*
G04 APERTURE LIST*
%ADD10C,0.150000*%
%ADD11C,0.120000*%
G04 APERTURE END LIST*
D10*
X180594819Y-95303333D02*
X181309104Y-95303333D01*
X181309104Y-95303333D02*
X181451961Y-95350952D01*
X181451961Y-95350952D02*
X181547200Y-95446190D01*
X181547200Y-95446190D02*
X181594819Y-95589047D01*
X181594819Y-95589047D02*
X181594819Y-95684285D01*
X180594819Y-94922380D02*
X180594819Y-94255714D01*
X180594819Y-94255714D02*
X181594819Y-94684285D01*
X180674819Y-98603333D02*
X181389104Y-98603333D01*
X181389104Y-98603333D02*
X181531961Y-98650952D01*
X181531961Y-98650952D02*
X181627200Y-98746190D01*
X181627200Y-98746190D02*
X181674819Y-98889047D01*
X181674819Y-98889047D02*
X181674819Y-98984285D01*
X180674819Y-97698571D02*
X180674819Y-97889047D01*
X180674819Y-97889047D02*
X180722438Y-97984285D01*
X180722438Y-97984285D02*
X180770057Y-98031904D01*
X180770057Y-98031904D02*
X180912914Y-98127142D01*
X180912914Y-98127142D02*
X181103390Y-98174761D01*
X181103390Y-98174761D02*
X181484342Y-98174761D01*
X181484342Y-98174761D02*
X181579580Y-98127142D01*
X181579580Y-98127142D02*
X181627200Y-98079523D01*
X181627200Y-98079523D02*
X181674819Y-97984285D01*
X181674819Y-97984285D02*
X181674819Y-97793809D01*
X181674819Y-97793809D02*
X181627200Y-97698571D01*
X181627200Y-97698571D02*
X181579580Y-97650952D01*
X181579580Y-97650952D02*
X181484342Y-97603333D01*
X181484342Y-97603333D02*
X181246247Y-97603333D01*
X181246247Y-97603333D02*
X181151009Y-97650952D01*
X181151009Y-97650952D02*
X181103390Y-97698571D01*
X181103390Y-97698571D02*
X181055771Y-97793809D01*
X181055771Y-97793809D02*
X181055771Y-97984285D01*
X181055771Y-97984285D02*
X181103390Y-98079523D01*
X181103390Y-98079523D02*
X181151009Y-98127142D01*
X181151009Y-98127142D02*
X181246247Y-98174761D01*
X210486666Y-55104819D02*
X210486666Y-55819104D01*
X210486666Y-55819104D02*
X210439047Y-55961961D01*
X210439047Y-55961961D02*
X210343809Y-56057200D01*
X210343809Y-56057200D02*
X210200952Y-56104819D01*
X210200952Y-56104819D02*
X210105714Y-56104819D01*
X210867619Y-55104819D02*
X211486666Y-55104819D01*
X211486666Y-55104819D02*
X211153333Y-55485771D01*
X211153333Y-55485771D02*
X211296190Y-55485771D01*
X211296190Y-55485771D02*
X211391428Y-55533390D01*
X211391428Y-55533390D02*
X211439047Y-55581009D01*
X211439047Y-55581009D02*
X211486666Y-55676247D01*
X211486666Y-55676247D02*
X211486666Y-55914342D01*
X211486666Y-55914342D02*
X211439047Y-56009580D01*
X211439047Y-56009580D02*
X211391428Y-56057200D01*
X211391428Y-56057200D02*
X211296190Y-56104819D01*
X211296190Y-56104819D02*
X211010476Y-56104819D01*
X211010476Y-56104819D02*
X210915238Y-56057200D01*
X210915238Y-56057200D02*
X210867619Y-56009580D01*
X196516666Y-108904819D02*
X196516666Y-109619104D01*
X196516666Y-109619104D02*
X196469047Y-109761961D01*
X196469047Y-109761961D02*
X196373809Y-109857200D01*
X196373809Y-109857200D02*
X196230952Y-109904819D01*
X196230952Y-109904819D02*
X196135714Y-109904819D01*
X197516666Y-109904819D02*
X196945238Y-109904819D01*
X197230952Y-109904819D02*
X197230952Y-108904819D01*
X197230952Y-108904819D02*
X197135714Y-109047676D01*
X197135714Y-109047676D02*
X197040476Y-109142914D01*
X197040476Y-109142914D02*
X196945238Y-109190533D01*
X233346666Y-55104819D02*
X233346666Y-55819104D01*
X233346666Y-55819104D02*
X233299047Y-55961961D01*
X233299047Y-55961961D02*
X233203809Y-56057200D01*
X233203809Y-56057200D02*
X233060952Y-56104819D01*
X233060952Y-56104819D02*
X232965714Y-56104819D01*
X233775238Y-55200057D02*
X233822857Y-55152438D01*
X233822857Y-55152438D02*
X233918095Y-55104819D01*
X233918095Y-55104819D02*
X234156190Y-55104819D01*
X234156190Y-55104819D02*
X234251428Y-55152438D01*
X234251428Y-55152438D02*
X234299047Y-55200057D01*
X234299047Y-55200057D02*
X234346666Y-55295295D01*
X234346666Y-55295295D02*
X234346666Y-55390533D01*
X234346666Y-55390533D02*
X234299047Y-55533390D01*
X234299047Y-55533390D02*
X233727619Y-56104819D01*
X233727619Y-56104819D02*
X234346666Y-56104819D01*
X228266666Y-55104819D02*
X228266666Y-55819104D01*
X228266666Y-55819104D02*
X228219047Y-55961961D01*
X228219047Y-55961961D02*
X228123809Y-56057200D01*
X228123809Y-56057200D02*
X227980952Y-56104819D01*
X227980952Y-56104819D02*
X227885714Y-56104819D01*
X229171428Y-55438152D02*
X229171428Y-56104819D01*
X228933333Y-55057200D02*
X228695238Y-55771485D01*
X228695238Y-55771485D02*
X229314285Y-55771485D01*
D11*
%TO.C,J7*%
X183840000Y-90800000D02*
X186440000Y-90800000D01*
X181240000Y-90800000D02*
X182570000Y-90800000D01*
X181240000Y-92130000D02*
X181240000Y-90800000D01*
X186440000Y-93460000D02*
X186440000Y-90800000D01*
X183840000Y-93460000D02*
X183840000Y-90800000D01*
X183840000Y-93460000D02*
X186440000Y-93460000D01*
%TO.C,J6*%
X186560000Y-98370000D02*
X189160000Y-98370000D01*
X186560000Y-98370000D02*
X186560000Y-95710000D01*
X189160000Y-98370000D02*
X189160000Y-95710000D01*
X183960000Y-97040000D02*
X183960000Y-95710000D01*
X183960000Y-95710000D02*
X185290000Y-95710000D01*
X186560000Y-95710000D02*
X189160000Y-95710000D01*
%TO.C,J3*%
X209490000Y-59690000D02*
X209490000Y-108010000D01*
X209490000Y-59690000D02*
X212150000Y-59690000D01*
X209490000Y-108010000D02*
X212150000Y-108010000D01*
X210820000Y-57090000D02*
X212150000Y-57090000D01*
X212150000Y-57090000D02*
X212150000Y-58420000D01*
X212150000Y-59690000D02*
X212150000Y-108010000D01*
%TO.C,J1*%
X194250000Y-105410000D02*
X194250000Y-85030000D01*
X194250000Y-108010000D02*
X194250000Y-106680000D01*
X195580000Y-108010000D02*
X194250000Y-108010000D01*
X196850000Y-105410000D02*
X194250000Y-105410000D01*
X196850000Y-108010000D02*
X196850000Y-105410000D01*
X199450000Y-85030000D02*
X194250000Y-85030000D01*
X199450000Y-108010000D02*
X196850000Y-108010000D01*
X199450000Y-108010000D02*
X199450000Y-85030000D01*
%TO.C,J2*%
X232350000Y-59690000D02*
X232350000Y-108010000D01*
X232350000Y-59690000D02*
X235010000Y-59690000D01*
X232350000Y-108010000D02*
X235010000Y-108010000D01*
X233680000Y-57090000D02*
X235010000Y-57090000D01*
X235010000Y-57090000D02*
X235010000Y-58420000D01*
X235010000Y-59690000D02*
X235010000Y-108010000D01*
%TO.C,J4*%
X227270000Y-59690000D02*
X227270000Y-108010000D01*
X227270000Y-59690000D02*
X229930000Y-59690000D01*
X227270000Y-108010000D02*
X229930000Y-108010000D01*
X228600000Y-57090000D02*
X229930000Y-57090000D01*
X229930000Y-57090000D02*
X229930000Y-58420000D01*
X229930000Y-59690000D02*
X229930000Y-108010000D01*
%TD*%
M02*
