M48
; DRILL file {KiCad 8.0.5} date 2024-10-03T22:49:57+0100
; FORMAT={-:-/ absolute / inch / decimal}
; #@! TF.CreationDate,2024-10-03T22:49:57+01:00
; #@! TF.GenerationSoftware,Kicad,Pcbnew,8.0.5
; #@! TF.FileFunction,Plated,1,2,PTH
FMAT,2
INCH
; #@! TA.AperFunction,Plated,PTH,ViaDrill
T1C0.0118
; #@! TA.AperFunction,Plated,PTH,ComponentDrill
T2C0.0394
%
G90
G05
T1
X7.0858Y-4.6575
X7.0917Y-3.9783
X7.0996Y-3.4843
X7.1012Y-3.0598
X7.124Y-2.5791
X7.1346Y-4.3094
X7.15Y-2.15
X7.2244Y-4.1051
X7.2295Y-3.9524
X7.2398Y-3.139
X7.2398Y-3.5051
X7.2919Y-3.3183
X7.3276Y-2.6654
X7.3417Y-3.361
X7.3516Y-3.9382
X7.352Y-4.5079
X7.398Y-2.3457
X7.4236Y-4.6657
X7.4319Y-4.1795
X7.4571Y-3.9524
X7.4598Y-3.4843
X7.4626Y-4.0874
X7.463Y-4.3224
X7.4689Y-3.0067
X7.5315Y-2.7008
X7.5618Y-3.1937
X7.5768Y-3.4689
X7.5811Y-3.3421
X7.6189Y-2.4114
X7.6445Y-2.1531
X7.6705Y-4.6185
X7.6906Y-2.8039
X7.7437Y-2.987
X7.7953Y-4.3602
X7.8657Y-4.3512
X7.8713Y-2.3453
X7.874Y-3.0878
X7.8752Y-3.8476
X7.885Y-4.0969
X7.8988Y-3.4591
X7.9035Y-2.4016
X7.9197Y-3.3232
X7.9531Y-2.6587
X7.9724Y-4.3504
X7.9799Y-2.3409
X7.9858Y-4.6228
X7.9882Y-4.439
X8.0118Y-4.3504
X8.0228Y-2.4654
X8.0276Y-4.4882
X8.0512Y-4.3504
X8.0709Y-4.5472
X8.0717Y-3.1791
X8.0776Y-2.2437
X8.0795Y-3.3232
X8.0988Y-2.989
X8.1004Y-2.4
X8.1024Y-3.6638
X8.1067Y-4.0831
X8.1102Y-2.8165
X8.1106Y-3.4646
X8.1165Y-2.4654
X8.2Y-3.3646
X8.2028Y-4.1693
X8.2256Y-2.3492
X8.2307Y-2.4594
X8.2307Y-2.6547
X8.2307Y-2.8457
X8.2362Y-4.2976
X8.3268Y-2.1295
X8.3776Y-3.9949
X8.3811Y-3.2575
X8.3843Y-3.0465
X8.3906Y-2.4441
X8.398Y-2.6713
X8.4004Y-3.5177
X8.4063Y-2.2547
X8.4138Y-4.2929
X8.5311Y-4.6205
X8.5453Y-2.3886
X8.548Y-2.4941
X8.5776Y-2.8815
X8.6055Y-3.2114
X8.635Y-3.4516
X8.6638Y-3.7669
X8.6654Y-3.1445
X8.6819Y-2.3382
X8.7055Y-3.8047
X8.7736Y-3.3496
X8.8031Y-3.6181
X8.8173Y-2.1622
X8.824Y-2.7768
X8.8425Y-4.6185
X8.8976Y-2.6264
X8.9031Y-3.6181
X8.915Y-3.1528
X8.9157Y-2.7839
X8.9197Y-4.5181
X8.9213Y-3.7823
X8.924Y-3.9539
X8.9283Y-4.1587
X8.9417Y-4.2976
X9.0933Y-2.4594
X9.0945Y-2.9587
X9.0945Y-3.5413
X9.0969Y-3.0441
X9.0969Y-3.4661
X9.0972Y-2.5429
X9.0988Y-3.9614
X9.0988Y-4.0406
X9.1283Y-4.4531
X9.25Y-2.15
X9.25Y-4.65
X9.2512Y-4.2949
X9.2807Y-3.9575
X9.2839Y-2.6039
X9.287Y-3.2366
T2
X7.1878Y-3.6272
X7.2878Y-3.6272
X7.2949Y-3.8205
X7.3949Y-3.8205
X7.7Y-3.4
X7.7Y-3.5
X7.7Y-3.6
X7.7Y-3.7
X7.7Y-3.8
X7.7Y-3.9
X7.7Y-4.0
X7.7Y-4.1
X7.7Y-4.2
X7.8Y-3.4
X7.8Y-3.5
X7.8Y-3.6
X7.8Y-3.7
X7.8Y-3.8
X7.8Y-3.9
X7.8Y-4.0
X7.8Y-4.1
X7.8Y-4.2
X8.3Y-2.3
X8.3Y-2.4
X8.3Y-2.5
X8.3Y-2.6
X8.3Y-2.7
X8.3Y-2.8
X8.3Y-2.9
X8.3Y-3.0
X8.3Y-3.1
X8.3Y-3.2
X8.3Y-3.3
X8.3Y-3.4
X8.3Y-3.5
X8.3Y-3.6
X8.3Y-3.7
X8.3Y-3.8
X8.3Y-3.9
X8.3Y-4.0
X8.3Y-4.1
X8.3Y-4.2
X9.0Y-2.3
X9.0Y-2.4
X9.0Y-2.5
X9.0Y-2.6
X9.0Y-2.7
X9.0Y-2.8
X9.0Y-2.9
X9.0Y-3.0
X9.0Y-3.1
X9.0Y-3.2
X9.0Y-3.3
X9.0Y-3.4
X9.0Y-3.5
X9.0Y-3.6
X9.0Y-3.7
X9.0Y-3.8
X9.0Y-3.9
X9.0Y-4.0
X9.0Y-4.1
X9.0Y-4.2
X9.2Y-2.3
X9.2Y-2.4
X9.2Y-2.5
X9.2Y-2.6
X9.2Y-2.7
X9.2Y-2.8
X9.2Y-2.9
X9.2Y-3.0
X9.2Y-3.1
X9.2Y-3.2
X9.2Y-3.3
X9.2Y-3.4
X9.2Y-3.5
X9.2Y-3.6
X9.2Y-3.7
X9.2Y-3.8
X9.2Y-3.9
X9.2Y-4.0
X9.2Y-4.1
X9.2Y-4.2
M30
