%TF.GenerationSoftware,KiCad,Pcbnew,8.0.5*%
%TF.CreationDate,2024-10-03T22:49:54+01:00*%
%TF.ProjectId,OV7670 pico board,4f563736-3730-4207-9069-636f20626f61,rev?*%
%TF.SameCoordinates,Original*%
%TF.FileFunction,Copper,L1,Top*%
%TF.FilePolarity,Positive*%
%FSLAX46Y46*%
G04 Gerber Fmt 4.6, Leading zero omitted, Abs format (unit mm)*
G04 Created by KiCad (PCBNEW 8.0.5) date 2024-10-03 22:49:54*
%MOMM*%
%LPD*%
G01*
G04 APERTURE LIST*
%TA.AperFunction,ComponentPad*%
%ADD10O,1.700000X1.700000*%
%TD*%
%TA.AperFunction,ComponentPad*%
%ADD11R,1.700000X1.700000*%
%TD*%
%TA.AperFunction,ViaPad*%
%ADD12C,0.600000*%
%TD*%
%TA.AperFunction,Conductor*%
%ADD13C,0.200000*%
%TD*%
%TA.AperFunction,Conductor*%
%ADD14C,0.600000*%
%TD*%
G04 APERTURE END LIST*
D10*
%TO.P,J7,2,Pin_2*%
%TO.N,3.3V*%
X185110000Y-92130000D03*
D11*
%TO.P,J7,1,Pin_1*%
%TO.N,SCL*%
X182570000Y-92130000D03*
%TD*%
%TO.P,J6,1,Pin_1*%
%TO.N,3.3V*%
X185290000Y-97040000D03*
D10*
%TO.P,J6,2,Pin_2*%
%TO.N,SDA*%
X187830000Y-97040000D03*
%TD*%
D11*
%TO.P,J3,1,Pin_1*%
%TO.N,SDA*%
X210820000Y-58420000D03*
D10*
%TO.P,J3,2,Pin_2*%
%TO.N,SCL*%
X210820000Y-60960000D03*
%TO.P,J3,3,Pin_3*%
%TO.N,GND*%
X210820000Y-63500000D03*
%TO.P,J3,4,Pin_4*%
%TO.N,unconnected-(J3-Pin_4-Pad4)*%
X210820000Y-66040000D03*
%TO.P,J3,5,Pin_5*%
%TO.N,unconnected-(J3-Pin_5-Pad5)*%
X210820000Y-68580000D03*
%TO.P,J3,6,Pin_6*%
%TO.N,unconnected-(J3-Pin_6-Pad6)*%
X210820000Y-71120000D03*
%TO.P,J3,7,Pin_7*%
%TO.N,HS*%
X210820000Y-73660000D03*
%TO.P,J3,8,Pin_8*%
%TO.N,GND*%
X210820000Y-76200000D03*
%TO.P,J3,9,Pin_9*%
%TO.N,VS*%
X210820000Y-78740000D03*
%TO.P,J3,10,Pin_10*%
%TO.N,PLK*%
X210820000Y-81280000D03*
%TO.P,J3,11,Pin_11*%
%TO.N,D0*%
X210820000Y-83820000D03*
%TO.P,J3,12,Pin_12*%
%TO.N,D1*%
X210820000Y-86360000D03*
%TO.P,J3,13,Pin_13*%
%TO.N,GND*%
X210820000Y-88900000D03*
%TO.P,J3,14,Pin_14*%
%TO.N,D2*%
X210820000Y-91440000D03*
%TO.P,J3,15,Pin_15*%
%TO.N,D3*%
X210820000Y-93980000D03*
%TO.P,J3,16,Pin_16*%
%TO.N,D4*%
X210820000Y-96520000D03*
%TO.P,J3,17,Pin_17*%
%TO.N,D5*%
X210820000Y-99060000D03*
%TO.P,J3,18,Pin_18*%
%TO.N,GND*%
X210820000Y-101600000D03*
%TO.P,J3,19,Pin_19*%
%TO.N,D6*%
X210820000Y-104140000D03*
%TO.P,J3,20,Pin_20*%
%TO.N,D7*%
X210820000Y-106680000D03*
%TD*%
D11*
%TO.P,J1,1,Pin_1*%
%TO.N,GND*%
X195580000Y-106680000D03*
D10*
%TO.P,J1,2,Pin_2*%
%TO.N,3.3V*%
X198120000Y-106680000D03*
%TO.P,J1,3,Pin_3*%
%TO.N,SDA*%
X195580000Y-104140000D03*
%TO.P,J1,4,Pin_4*%
%TO.N,SCL*%
X198120000Y-104140000D03*
%TO.P,J1,5,Pin_5*%
%TO.N,HS*%
X195580000Y-101600000D03*
%TO.P,J1,6,Pin_6*%
%TO.N,VS*%
X198120000Y-101600000D03*
%TO.P,J1,7,Pin_7*%
%TO.N,XLK*%
X195580000Y-99060000D03*
%TO.P,J1,8,Pin_8*%
%TO.N,PLK*%
X198120000Y-99060000D03*
%TO.P,J1,9,Pin_9*%
%TO.N,D6*%
X195580000Y-96520000D03*
%TO.P,J1,10,Pin_10*%
%TO.N,D7*%
X198120000Y-96520000D03*
%TO.P,J1,11,Pin_11*%
%TO.N,D4*%
X195580000Y-93980000D03*
%TO.P,J1,12,Pin_12*%
%TO.N,D5*%
X198120000Y-93980000D03*
%TO.P,J1,13,Pin_13*%
%TO.N,D2*%
X195580000Y-91440000D03*
%TO.P,J1,14,Pin_14*%
%TO.N,D3*%
X198120000Y-91440000D03*
%TO.P,J1,15,Pin_15*%
%TO.N,D0*%
X195580000Y-88900000D03*
%TO.P,J1,16,Pin_16*%
%TO.N,D1*%
X198120000Y-88900000D03*
%TO.P,J1,17,Pin_17*%
%TO.N,GND*%
X195580000Y-86360000D03*
%TO.P,J1,18,Pin_18*%
%TO.N,3.3V*%
X198120000Y-86360000D03*
%TD*%
D11*
%TO.P,J2,1,Pin_1*%
%TO.N,Net-(J2-Pin_1)*%
X233680000Y-58420000D03*
D10*
%TO.P,J2,2,Pin_2*%
%TO.N,Net-(J2-Pin_2)*%
X233680000Y-60960000D03*
%TO.P,J2,3,Pin_3*%
%TO.N,GND*%
X233680000Y-63500000D03*
%TO.P,J2,4,Pin_4*%
%TO.N,Net-(J2-Pin_4)*%
X233680000Y-66040000D03*
%TO.P,J2,5,Pin_5*%
%TO.N,3.3V*%
X233680000Y-68580000D03*
%TO.P,J2,6,Pin_6*%
%TO.N,Net-(J2-Pin_6)*%
X233680000Y-71120000D03*
%TO.P,J2,7,Pin_7*%
%TO.N,Net-(J2-Pin_7)*%
X233680000Y-73660000D03*
%TO.P,J2,8,Pin_8*%
%TO.N,GND*%
X233680000Y-76200000D03*
%TO.P,J2,9,Pin_9*%
%TO.N,Net-(J2-Pin_9)*%
X233680000Y-78740000D03*
%TO.P,J2,10,Pin_10*%
%TO.N,Net-(J2-Pin_10)*%
X233680000Y-81280000D03*
%TO.P,J2,11,Pin_11*%
%TO.N,Net-(J2-Pin_11)*%
X233680000Y-83820000D03*
%TO.P,J2,12,Pin_12*%
%TO.N,Net-(J2-Pin_12)*%
X233680000Y-86360000D03*
%TO.P,J2,13,Pin_13*%
%TO.N,GND*%
X233680000Y-88900000D03*
%TO.P,J2,14,Pin_14*%
%TO.N,XLK*%
X233680000Y-91440000D03*
%TO.P,J2,15,Pin_15*%
%TO.N,Net-(J2-Pin_15)*%
X233680000Y-93980000D03*
%TO.P,J2,16,Pin_16*%
%TO.N,Net-(J2-Pin_16)*%
X233680000Y-96520000D03*
%TO.P,J2,17,Pin_17*%
%TO.N,Net-(J2-Pin_17)*%
X233680000Y-99060000D03*
%TO.P,J2,18,Pin_18*%
%TO.N,GND*%
X233680000Y-101600000D03*
%TO.P,J2,19,Pin_19*%
%TO.N,Net-(J2-Pin_19)*%
X233680000Y-104140000D03*
%TO.P,J2,20,Pin_20*%
%TO.N,Net-(J2-Pin_20)*%
X233680000Y-106680000D03*
%TD*%
D11*
%TO.P,J4,1,Pin_1*%
%TO.N,Net-(J2-Pin_1)*%
X228600000Y-58420000D03*
D10*
%TO.P,J4,2,Pin_2*%
%TO.N,Net-(J2-Pin_2)*%
X228600000Y-60960000D03*
%TO.P,J4,3,Pin_3*%
%TO.N,GND*%
X228600000Y-63500000D03*
%TO.P,J4,4,Pin_4*%
%TO.N,Net-(J2-Pin_4)*%
X228600000Y-66040000D03*
%TO.P,J4,5,Pin_5*%
%TO.N,3.3V*%
X228600000Y-68580000D03*
%TO.P,J4,6,Pin_6*%
%TO.N,Net-(J2-Pin_6)*%
X228600000Y-71120000D03*
%TO.P,J4,7,Pin_7*%
%TO.N,Net-(J2-Pin_7)*%
X228600000Y-73660000D03*
%TO.P,J4,8,Pin_8*%
%TO.N,GND*%
X228600000Y-76200000D03*
%TO.P,J4,9,Pin_9*%
%TO.N,Net-(J2-Pin_9)*%
X228600000Y-78740000D03*
%TO.P,J4,10,Pin_10*%
%TO.N,Net-(J2-Pin_10)*%
X228600000Y-81280000D03*
%TO.P,J4,11,Pin_11*%
%TO.N,Net-(J2-Pin_11)*%
X228600000Y-83820000D03*
%TO.P,J4,12,Pin_12*%
%TO.N,Net-(J2-Pin_12)*%
X228600000Y-86360000D03*
%TO.P,J4,13,Pin_13*%
%TO.N,GND*%
X228600000Y-88900000D03*
%TO.P,J4,14,Pin_14*%
%TO.N,XLK*%
X228600000Y-91440000D03*
%TO.P,J4,15,Pin_15*%
%TO.N,Net-(J2-Pin_15)*%
X228600000Y-93980000D03*
%TO.P,J4,16,Pin_16*%
%TO.N,Net-(J2-Pin_16)*%
X228600000Y-96520000D03*
%TO.P,J4,17,Pin_17*%
%TO.N,Net-(J2-Pin_17)*%
X228600000Y-99060000D03*
%TO.P,J4,18,Pin_18*%
%TO.N,GND*%
X228600000Y-101600000D03*
%TO.P,J4,19,Pin_19*%
%TO.N,Net-(J2-Pin_19)*%
X228600000Y-104140000D03*
%TO.P,J4,20,Pin_20*%
%TO.N,Net-(J2-Pin_20)*%
X228600000Y-106680000D03*
%TD*%
D12*
%TO.N,GND*%
X188560000Y-118510000D03*
X183500000Y-104270000D03*
X209060000Y-62470000D03*
X201160000Y-84410000D03*
X194170000Y-54690000D03*
X223960000Y-54920000D03*
X206010000Y-88000000D03*
X226560000Y-114760000D03*
X231000000Y-75150000D03*
X231060000Y-77320000D03*
X188770000Y-106160000D03*
X220520000Y-59390000D03*
X217050000Y-60670000D03*
X180950000Y-65510000D03*
X231860000Y-113110000D03*
X179980000Y-118300000D03*
X211500000Y-54090000D03*
X213310000Y-67850000D03*
X231060000Y-88040000D03*
X181610000Y-54610000D03*
X183890000Y-79730000D03*
X235890000Y-82210000D03*
X209200000Y-109160000D03*
X194830000Y-117310000D03*
X231110000Y-102630000D03*
X205170000Y-56990000D03*
X192450000Y-88110000D03*
X213520000Y-57270000D03*
X199790000Y-110520000D03*
X208280000Y-85460000D03*
X231000000Y-89950000D03*
X200280000Y-104060000D03*
X189710000Y-76370000D03*
X220060000Y-95680000D03*
X186730000Y-100030000D03*
X202840000Y-117420000D03*
X203780000Y-62620000D03*
X234950000Y-118110000D03*
X213120000Y-62080000D03*
X235730000Y-100520000D03*
X226140000Y-91900000D03*
X189480000Y-88500000D03*
X183890000Y-89030000D03*
X224130000Y-70530000D03*
X200630000Y-87860000D03*
X217120000Y-63350000D03*
X213710000Y-109040000D03*
X193520000Y-61250000D03*
X223600000Y-91900000D03*
X212880000Y-82740000D03*
X206000000Y-71540000D03*
X209060000Y-72280000D03*
X208930000Y-59670000D03*
X221120000Y-96640000D03*
X213370000Y-89350000D03*
X181220000Y-109460000D03*
X205020000Y-80750000D03*
X186120000Y-67700000D03*
X200000000Y-78430000D03*
X226460000Y-70710000D03*
X189410000Y-100390000D03*
X192070000Y-81120000D03*
X200030000Y-97730000D03*
X206160000Y-62620000D03*
X226000000Y-66710000D03*
X217870000Y-73190000D03*
X220100000Y-79870000D03*
X208350000Y-105900000D03*
X234980000Y-109090000D03*
X205220000Y-84410000D03*
X202690000Y-59460000D03*
X205800000Y-93060000D03*
X226670000Y-100430000D03*
X180330000Y-88500000D03*
X234950000Y-54610000D03*
X235810000Y-66140000D03*
X192560000Y-84890000D03*
X187910000Y-59580000D03*
X202010000Y-67530000D03*
X205710000Y-75920000D03*
X224600000Y-117310000D03*
X216690000Y-117360000D03*
X183630000Y-100390000D03*
X222850000Y-85080000D03*
X231110000Y-100620000D03*
X195340000Y-71220000D03*
X212790000Y-101470000D03*
X218580000Y-81570000D03*
X226600000Y-96070000D03*
X209060000Y-67430000D03*
X230970000Y-62470000D03*
X186740000Y-114500000D03*
X219330000Y-87670000D03*
X180370000Y-77720000D03*
X205910000Y-103710000D03*
X226440000Y-80080000D03*
X189550000Y-103820000D03*
X189560000Y-109790000D03*
X227120000Y-109160000D03*
X212960000Y-77380000D03*
X231070000Y-64590000D03*
X180130000Y-101050000D03*
X196690000Y-75870000D03*
X199930000Y-59570000D03*
X191300000Y-68600000D03*
X186480000Y-85370000D03*
X226780000Y-105630000D03*
%TO.N,3.3V*%
X185215000Y-84285000D03*
%TO.N,D5*%
X202900000Y-112750000D03*
X202500000Y-110500000D03*
%TO.N,D1*%
X205000000Y-115500000D03*
X204500000Y-110500000D03*
%TO.N,D3*%
X203900000Y-114000000D03*
X203500000Y-110500000D03*
%TO.N,SCL*%
X205750000Y-60960000D03*
X200750000Y-61000000D03*
%TO.N,XLK*%
X198000000Y-110750000D03*
%TD*%
D13*
%TO.N,GND*%
X228600000Y-76200000D02*
X233680000Y-76200000D01*
X228600000Y-63500000D02*
X233680000Y-63500000D01*
X228600000Y-101600000D02*
X233680000Y-101600000D01*
X228600000Y-88900000D02*
X233680000Y-88900000D01*
%TO.N,D6*%
X217710188Y-105950189D02*
X217710189Y-105950189D01*
X217837468Y-107746240D02*
X217894036Y-107802808D01*
X216861662Y-105101662D02*
X216034347Y-105928976D01*
X219124402Y-107364401D02*
X219124402Y-107364402D01*
X220135561Y-108842252D02*
X220192129Y-108898820D01*
X216592964Y-104238995D02*
X216409115Y-104422841D01*
X219690087Y-107930086D02*
X219690087Y-107930087D01*
X193000000Y-97000000D02*
X193480000Y-96520000D01*
X219972928Y-108212929D02*
X219972929Y-108212929D01*
X218685995Y-108368493D02*
X219407243Y-107647244D01*
X219987071Y-107633101D02*
X219690087Y-107930086D01*
X218968838Y-108877610D02*
X219025406Y-108934178D01*
X216578819Y-104818819D02*
X216875802Y-104521833D01*
X218290016Y-105936046D02*
X217993032Y-106233031D01*
X210820000Y-104140000D02*
X212963968Y-104140000D01*
X220418403Y-108898820D02*
X220425474Y-108891748D01*
X219930503Y-107350259D02*
X219987071Y-107406827D01*
X218841559Y-107081559D02*
X219138542Y-106784573D01*
X217427347Y-105667346D02*
X217427347Y-105667347D01*
X214723968Y-104140000D02*
X214723968Y-103980000D01*
X220142632Y-108608907D02*
X220135561Y-108615978D01*
X216295978Y-104535978D02*
X215291886Y-105540069D01*
X213523968Y-103980000D02*
X213523968Y-104140000D01*
X218403153Y-108311925D02*
X218459721Y-108368493D01*
X218558717Y-106798716D02*
X218558717Y-106798717D01*
X219407243Y-107647244D02*
X219407244Y-107647244D01*
X213923968Y-105560000D02*
X213923968Y-104140000D01*
X217993032Y-106233031D02*
X217993032Y-106233032D01*
X221000000Y-109240000D02*
X221000000Y-109500000D01*
X219421386Y-107067416D02*
X219124402Y-107364401D01*
X218855701Y-106501731D02*
X218558717Y-106798716D01*
X218275874Y-106515874D02*
X218572857Y-106218888D01*
X218275873Y-106515874D02*
X218275874Y-106515874D01*
X214723968Y-105560000D02*
X214723968Y-104140000D01*
X214323968Y-104140000D02*
X214323968Y-105560000D01*
X219364818Y-106784574D02*
X219421386Y-106841142D01*
X216706098Y-106614870D02*
X216762666Y-106671438D01*
X217144504Y-105384504D02*
X217441487Y-105087518D01*
X219251680Y-108934178D02*
X219972928Y-108212929D01*
X217158646Y-104804676D02*
X216861662Y-105101661D01*
X216536396Y-103956153D02*
X216592964Y-104012721D01*
X216126274Y-104140000D02*
X216310122Y-103956153D01*
X221118442Y-107633101D02*
X220255770Y-108495770D01*
X213523968Y-104140000D02*
X213523968Y-105560000D01*
X216034347Y-106155251D02*
X216090915Y-106211819D01*
X217993032Y-106233032D02*
X217271783Y-106954280D01*
X214083968Y-102560000D02*
X214163968Y-102560000D01*
X217271783Y-107180555D02*
X217328351Y-107237123D01*
X218558717Y-106798717D02*
X217837468Y-107519965D01*
X220651748Y-108891748D02*
X220708318Y-108948318D01*
X218799133Y-106218889D02*
X218855701Y-106275457D01*
X219690087Y-107930087D02*
X218968838Y-108651335D01*
X214883968Y-102560000D02*
X214963968Y-102560000D01*
X216861662Y-105101661D02*
X216861662Y-105101662D01*
X215363968Y-104140000D02*
X215900000Y-104140000D01*
X216409115Y-104422841D02*
X216295978Y-104535978D01*
X214723968Y-103980000D02*
X214723968Y-102720000D01*
X213683968Y-105720000D02*
X213763968Y-105720000D01*
X213123968Y-103980000D02*
X213123968Y-102720000D01*
X213923968Y-104140000D02*
X213923968Y-102720000D01*
X193000000Y-110750000D02*
X193000000Y-97000000D01*
X217724331Y-105370361D02*
X217427347Y-105667346D01*
X220255770Y-108495770D02*
X220142632Y-108608907D01*
X214483968Y-105720000D02*
X214563968Y-105720000D01*
X220250000Y-112000000D02*
X194250000Y-112000000D01*
X217667763Y-105087519D02*
X217724331Y-105144087D01*
X221000000Y-109500000D02*
X221000000Y-111250000D01*
X213283968Y-102560000D02*
X213363968Y-102560000D01*
X193480000Y-96520000D02*
X195580000Y-96520000D01*
X219972929Y-108212929D02*
X220835598Y-107350257D01*
X194250000Y-112000000D02*
X193000000Y-110750000D01*
X214323968Y-102720000D02*
X214323968Y-104140000D01*
X221061874Y-107350259D02*
X221118442Y-107406827D01*
X215291886Y-105766343D02*
X215348454Y-105822911D01*
X216988940Y-106671438D02*
X217710188Y-105950189D01*
X220708318Y-108948318D02*
X221000000Y-109240000D01*
X215283968Y-104140000D02*
X215363968Y-104140000D01*
X221000000Y-111250000D02*
X220250000Y-112000000D01*
X215123968Y-102720000D02*
X215123968Y-103980000D01*
X217710189Y-105950189D02*
X218007172Y-105653203D01*
X219407244Y-107647244D02*
X219704227Y-107350258D01*
X217144503Y-105384504D02*
X217144504Y-105384504D01*
X218841558Y-107081559D02*
X218841559Y-107081559D01*
X217554625Y-107237123D02*
X218275873Y-106515874D01*
X219124402Y-107364402D02*
X218403153Y-108085650D01*
X217427347Y-105667347D02*
X216706098Y-106388595D01*
X218120310Y-107802808D02*
X218841558Y-107081559D01*
X216317189Y-106211819D02*
X217144503Y-105384504D01*
X215574728Y-105822911D02*
X216578819Y-104818819D01*
X218233448Y-105653204D02*
X218290016Y-105709772D01*
X217102078Y-104521834D02*
X217158646Y-104578402D01*
X213523968Y-102720000D02*
X213523968Y-103980000D01*
X216592964Y-104012721D02*
G75*
G02*
X216593006Y-104239037I-113164J-113179D01*
G01*
X215348454Y-105822911D02*
G75*
G03*
X215574728Y-105822911I113137J113137D01*
G01*
X216762666Y-106671438D02*
G75*
G03*
X216988940Y-106671438I113137J113137D01*
G01*
X215291886Y-105540069D02*
G75*
G03*
X215291892Y-105766337I113114J-113131D01*
G01*
X213123968Y-102720000D02*
G75*
G02*
X213283968Y-102559968I160032J0D01*
G01*
X219704227Y-107350258D02*
G75*
G02*
X219930538Y-107350223I113173J-113142D01*
G01*
X218403153Y-108085650D02*
G75*
G03*
X218403140Y-108311937I113147J-113150D01*
G01*
X212963968Y-104140000D02*
G75*
G03*
X213124000Y-103980000I32J160000D01*
G01*
X218572857Y-106218888D02*
G75*
G02*
X218799139Y-106218884I113143J-113112D01*
G01*
X218855701Y-106275457D02*
G75*
G02*
X218855707Y-106501737I-113101J-113143D01*
G01*
X219421386Y-106841142D02*
G75*
G02*
X219421407Y-107067437I-113186J-113158D01*
G01*
X220135561Y-108615978D02*
G75*
G03*
X220135576Y-108842237I113139J-113122D01*
G01*
X214963968Y-102560000D02*
G75*
G02*
X215124000Y-102720000I32J-160000D01*
G01*
X217724331Y-105144087D02*
G75*
G02*
X217724307Y-105370337I-113131J-113113D01*
G01*
X221118442Y-107406827D02*
G75*
G02*
X221118478Y-107633137I-113142J-113173D01*
G01*
X219138542Y-106784573D02*
G75*
G02*
X219364839Y-106784553I113158J-113127D01*
G01*
X218007172Y-105653203D02*
G75*
G02*
X218233438Y-105653213I113128J-113097D01*
G01*
X217158646Y-104578402D02*
G75*
G02*
X217158607Y-104804637I-113146J-113098D01*
G01*
X219025406Y-108934178D02*
G75*
G03*
X219251680Y-108934178I113137J113137D01*
G01*
X217441487Y-105087518D02*
G75*
G02*
X217667739Y-105087543I113113J-113182D01*
G01*
X216706098Y-106388595D02*
G75*
G03*
X216706130Y-106614837I113102J-113105D01*
G01*
X220835598Y-107350257D02*
G75*
G02*
X221061839Y-107350294I113102J-113143D01*
G01*
X213763968Y-105720000D02*
G75*
G03*
X213924000Y-105560000I32J160000D01*
G01*
X220192129Y-108898820D02*
G75*
G03*
X220418403Y-108898820I113137J113137D01*
G01*
X218459721Y-108368493D02*
G75*
G03*
X218685995Y-108368493I113137J113137D01*
G01*
X216034347Y-105928976D02*
G75*
G03*
X216034360Y-106155238I113153J-113124D01*
G01*
X214323968Y-105560000D02*
G75*
G03*
X214483968Y-105720032I160032J0D01*
G01*
X215123968Y-103980000D02*
G75*
G03*
X215283968Y-104140032I160032J0D01*
G01*
X214163968Y-102560000D02*
G75*
G02*
X214324000Y-102720000I32J-160000D01*
G01*
X217837468Y-107519965D02*
G75*
G03*
X217837470Y-107746237I113132J-113135D01*
G01*
X213363968Y-102560000D02*
G75*
G02*
X213524000Y-102720000I32J-160000D01*
G01*
X219987071Y-107406827D02*
G75*
G02*
X219987107Y-107633137I-113171J-113173D01*
G01*
X214563968Y-105720000D02*
G75*
G03*
X214724000Y-105560000I32J160000D01*
G01*
X213923968Y-102720000D02*
G75*
G02*
X214083968Y-102559968I160032J0D01*
G01*
X216310122Y-103956153D02*
G75*
G02*
X216536396Y-103956153I113137J-113137D01*
G01*
X217271783Y-106954280D02*
G75*
G03*
X217271800Y-107180537I113117J-113120D01*
G01*
X217328351Y-107237123D02*
G75*
G03*
X217554625Y-107237123I113137J113137D01*
G01*
X214723968Y-102720000D02*
G75*
G02*
X214883968Y-102559968I160032J0D01*
G01*
X216090915Y-106211819D02*
G75*
G03*
X216317189Y-106211819I113137J113137D01*
G01*
X218290016Y-105709772D02*
G75*
G02*
X218290007Y-105936037I-113116J-113128D01*
G01*
X218968838Y-108651335D02*
G75*
G03*
X218968810Y-108877637I113162J-113165D01*
G01*
X216875802Y-104521833D02*
G75*
G02*
X217102039Y-104521873I113098J-113167D01*
G01*
X220425474Y-108891748D02*
G75*
G02*
X220651748Y-108891748I113137J-113137D01*
G01*
X217894036Y-107802808D02*
G75*
G03*
X218120310Y-107802808I113137J113137D01*
G01*
X215900000Y-104140000D02*
G75*
G03*
X216126274Y-104140000I113137J113137D01*
G01*
X213523968Y-105560000D02*
G75*
G03*
X213683968Y-105720032I160032J0D01*
G01*
%TO.N,D2*%
X216980378Y-95406861D02*
X217153619Y-95233619D01*
X217153619Y-95233619D02*
X217326859Y-95060376D01*
X218058713Y-96138713D02*
X218231953Y-95965470D01*
X219243112Y-98016077D02*
X219349178Y-98122143D01*
X221505848Y-99932331D02*
X221679089Y-99759089D01*
X214890884Y-92970884D02*
X214717642Y-93144125D01*
X219589597Y-97323114D02*
X219416354Y-97496354D01*
X217432924Y-96205889D02*
X217538990Y-96311955D01*
X221679089Y-99759089D02*
X221852329Y-99585846D01*
X217673343Y-95060378D02*
X217779409Y-95166444D01*
X219868901Y-97948901D02*
X220042141Y-97775658D01*
X221958394Y-100731359D02*
X222064460Y-100837425D01*
X215343431Y-93423431D02*
X215516671Y-93250188D01*
X214265096Y-92691579D02*
X214438337Y-92518337D01*
X222198813Y-99585848D02*
X222304879Y-99691914D01*
X214717642Y-93490607D02*
X214823708Y-93596673D01*
X218578437Y-95965472D02*
X218684503Y-96071538D01*
X222304879Y-100038396D02*
X222131636Y-100211636D01*
X210820000Y-91440000D02*
X213360000Y-91440000D01*
X220600754Y-99027237D02*
X220773995Y-98853995D01*
X216527830Y-95300795D02*
X216633896Y-95406861D01*
X216768249Y-94155284D02*
X216874315Y-94261350D01*
X224000000Y-102080000D02*
X224000000Y-113250000D01*
X191500000Y-94000000D02*
X194060000Y-91440000D01*
X218684503Y-96418020D02*
X218511260Y-96591260D01*
X220148206Y-98921171D02*
X220254272Y-99027237D01*
X213812548Y-92585513D02*
X213918614Y-92691579D01*
X218790566Y-97217049D02*
X218963807Y-97043807D01*
X213985790Y-92065790D02*
X213812548Y-92239031D01*
X220494691Y-98228208D02*
X220321448Y-98401448D01*
X215969221Y-93702738D02*
X215795978Y-93875978D01*
X195000000Y-114750000D02*
X191500000Y-111250000D01*
X223520000Y-101600000D02*
X224000000Y-102080000D01*
X214159030Y-91892548D02*
X213985789Y-92065790D01*
X194060000Y-91440000D02*
X195580000Y-91440000D01*
X217885472Y-96311955D02*
X218058713Y-96138713D01*
X221226542Y-99306542D02*
X221053300Y-99479783D01*
X215064127Y-92797644D02*
X214890884Y-92970884D01*
X218511260Y-96591260D02*
X218338018Y-96764501D01*
X216874315Y-94607832D02*
X216701072Y-94781072D01*
X215795978Y-93875978D02*
X215622736Y-94049219D01*
X220773995Y-98853995D02*
X220947235Y-98680752D01*
X216701072Y-94781072D02*
X216527830Y-94954313D01*
X224000000Y-113250000D02*
X222500000Y-114750000D01*
X218963807Y-97043807D02*
X219137047Y-96870564D01*
X220321448Y-98401448D02*
X220148206Y-98574689D01*
X216248525Y-94328525D02*
X216421765Y-94155282D01*
X219416354Y-97496354D02*
X219243112Y-97669595D01*
X221399785Y-99133302D02*
X221226542Y-99306542D01*
X222410942Y-100837425D02*
X222584183Y-100664183D01*
X222131636Y-100211636D02*
X221958394Y-100384877D01*
X214438337Y-92518337D02*
X214611577Y-92345094D01*
X217779409Y-95512926D02*
X217606166Y-95686166D01*
X221053300Y-99826265D02*
X221159366Y-99932331D01*
X214052964Y-91440000D02*
X214159030Y-91546066D01*
X222500000Y-114750000D02*
X195000000Y-114750000D01*
X223103907Y-100490942D02*
X223209973Y-100597008D01*
X215170190Y-93596673D02*
X215343431Y-93423431D01*
X219483531Y-96870566D02*
X219589597Y-96976632D01*
X219695660Y-98122143D02*
X219868901Y-97948901D01*
X191500000Y-111250000D02*
X191500000Y-94000000D01*
X218338018Y-97110983D02*
X218444084Y-97217049D01*
X215622736Y-94395701D02*
X215728802Y-94501767D01*
X223209973Y-101289972D02*
X223316038Y-101396038D01*
X213985789Y-92065790D02*
X213985790Y-92065790D01*
X222584183Y-100664183D02*
X222757423Y-100490940D01*
X217606166Y-95686166D02*
X217432924Y-95859407D01*
X216075284Y-94501767D02*
X216248525Y-94328525D01*
X220388625Y-97775660D02*
X220494691Y-97881726D01*
X214958061Y-92345096D02*
X215064127Y-92451162D01*
X223316038Y-101396038D02*
X223520000Y-101600000D01*
X221293719Y-98680754D02*
X221399785Y-98786820D01*
X215863155Y-93250190D02*
X215969221Y-93356256D01*
X218231953Y-95965470D02*
G75*
G02*
X218578443Y-95965466I173247J-173230D01*
G01*
X220042141Y-97775658D02*
G75*
G02*
X220388643Y-97775642I173259J-173242D01*
G01*
X218338018Y-96764501D02*
G75*
G03*
X218338060Y-97110941I173282J-173199D01*
G01*
X215622736Y-94049219D02*
G75*
G03*
X215622696Y-94395741I173264J-173281D01*
G01*
X214611577Y-92345094D02*
G75*
G02*
X214958043Y-92345114I173223J-173206D01*
G01*
X214717642Y-93144125D02*
G75*
G03*
X214717608Y-93490641I173258J-173275D01*
G01*
X221852329Y-99585846D02*
G75*
G02*
X222198843Y-99585818I173271J-173254D01*
G01*
X215516671Y-93250188D02*
G75*
G02*
X215863143Y-93250202I173229J-173212D01*
G01*
X218684503Y-96071538D02*
G75*
G02*
X218684524Y-96418041I-173203J-173262D01*
G01*
X213918614Y-92691579D02*
G75*
G03*
X214265096Y-92691579I173241J173240D01*
G01*
X219589597Y-96976632D02*
G75*
G02*
X219589624Y-97323141I-173197J-173268D01*
G01*
X215064127Y-92451162D02*
G75*
G02*
X215064124Y-92797641I-173227J-173238D01*
G01*
X215969221Y-93356256D02*
G75*
G02*
X215969224Y-93702741I-173221J-173244D01*
G01*
X217538990Y-96311955D02*
G75*
G03*
X217885472Y-96311955I173241J173240D01*
G01*
X222064460Y-100837425D02*
G75*
G03*
X222410942Y-100837425I173241J173240D01*
G01*
X220494691Y-97881726D02*
G75*
G02*
X220494724Y-98228241I-173191J-173274D01*
G01*
X221399785Y-98786820D02*
G75*
G02*
X221399824Y-99133341I-173285J-173280D01*
G01*
X219349178Y-98122143D02*
G75*
G03*
X219695660Y-98122143I173241J173240D01*
G01*
X216421765Y-94155282D02*
G75*
G02*
X216768243Y-94155290I173235J-173218D01*
G01*
X218444084Y-97217049D02*
G75*
G03*
X218790566Y-97217049I173241J173240D01*
G01*
X213360000Y-91440000D02*
G75*
G03*
X213706482Y-91440000I173241J173240D01*
G01*
X223209973Y-100597008D02*
G75*
G02*
X223209924Y-100943441I-173273J-173192D01*
G01*
X214823708Y-93596673D02*
G75*
G03*
X215170190Y-93596673I173241J173240D01*
G01*
X219243112Y-97669595D02*
G75*
G03*
X219243148Y-98016041I173288J-173205D01*
G01*
X217326859Y-95060376D02*
G75*
G02*
X217673343Y-95060378I173241J-173224D01*
G01*
X222757423Y-100490940D02*
G75*
G02*
X223103943Y-100490906I173277J-173260D01*
G01*
X216874315Y-94261350D02*
G75*
G02*
X216874324Y-94607841I-173215J-173250D01*
G01*
X221159366Y-99932331D02*
G75*
G03*
X221505848Y-99932331I173241J173240D01*
G01*
X213706482Y-91440000D02*
G75*
G02*
X214052964Y-91440000I173241J-173240D01*
G01*
X217779409Y-95166444D02*
G75*
G02*
X217779424Y-95512941I-173209J-173256D01*
G01*
X220254272Y-99027237D02*
G75*
G03*
X220600754Y-99027237I173241J173240D01*
G01*
X216633896Y-95406861D02*
G75*
G03*
X216980378Y-95406861I173241J173240D01*
G01*
X215728802Y-94501767D02*
G75*
G03*
X216075284Y-94501767I173241J173240D01*
G01*
X219137047Y-96870564D02*
G75*
G02*
X219483543Y-96870554I173253J-173236D01*
G01*
X220947235Y-98680752D02*
G75*
G02*
X221293743Y-98680730I173265J-173248D01*
G01*
X221958394Y-100384877D02*
G75*
G03*
X221958412Y-100731341I173206J-173223D01*
G01*
X223209973Y-100943490D02*
G75*
G03*
X223210004Y-101289941I173227J-173210D01*
G01*
X213812548Y-92239031D02*
G75*
G03*
X213812520Y-92585541I173252J-173269D01*
G01*
X217432924Y-95859407D02*
G75*
G03*
X217432972Y-96205841I173276J-173193D01*
G01*
X221053300Y-99479783D02*
G75*
G03*
X221053324Y-99826241I173200J-173217D01*
G01*
X220148206Y-98574689D02*
G75*
G03*
X220148236Y-98921141I173194J-173211D01*
G01*
X222304879Y-99691914D02*
G75*
G02*
X222304924Y-100038441I-173279J-173286D01*
G01*
X214159030Y-91546066D02*
G75*
G02*
X214159023Y-91892541I-173230J-173234D01*
G01*
X216527830Y-94954313D02*
G75*
G03*
X216527784Y-95300841I173270J-173287D01*
G01*
D14*
%TO.N,3.3V*%
X207500000Y-80500000D02*
X207500000Y-57250000D01*
X198120000Y-86360000D02*
X198120000Y-82770000D01*
X198120000Y-82770000D02*
X198140000Y-82750000D01*
X218750000Y-62500000D02*
X224830000Y-68580000D01*
D13*
X228520000Y-68500000D02*
X228600000Y-68580000D01*
D14*
X207500000Y-57250000D02*
X209250000Y-55500000D01*
X185215000Y-84285000D02*
X186750000Y-82750000D01*
X218750000Y-60000000D02*
X218750000Y-62500000D01*
X224830000Y-68580000D02*
X228600000Y-68580000D01*
X205250000Y-82750000D02*
X207500000Y-80500000D01*
X214250000Y-55500000D02*
X218750000Y-60000000D01*
X198140000Y-82750000D02*
X205250000Y-82750000D01*
X209250000Y-55500000D02*
X214250000Y-55500000D01*
X228600000Y-68580000D02*
X233680000Y-68580000D01*
D13*
X198120000Y-106680000D02*
X198000000Y-106800000D01*
D14*
X186750000Y-82750000D02*
X198140000Y-82750000D01*
D13*
%TO.N,D5*%
X214963710Y-100663710D02*
X214516818Y-101110601D01*
X216892682Y-103724053D02*
X216952078Y-103783449D01*
X219565530Y-106159313D02*
X220012421Y-105712421D01*
X217339574Y-103039574D02*
X216892682Y-103486465D01*
X221022164Y-106722164D02*
X221081562Y-106781562D01*
X219418455Y-105118455D02*
X219829990Y-104706917D01*
X213922852Y-100754223D02*
X213982248Y-100813619D01*
X213775777Y-99475778D02*
X213775778Y-99475778D01*
X218974399Y-103780616D02*
X218527506Y-104227506D01*
X220720942Y-105597869D02*
X220309404Y-106009404D01*
X219121472Y-104821472D02*
X218674580Y-105268363D01*
X216151642Y-101851642D02*
X215704750Y-102298533D01*
X216004569Y-100810786D02*
X215557676Y-101257676D01*
X217192501Y-101998718D02*
X216745608Y-102445608D01*
X214072761Y-99772761D02*
X214484296Y-99361223D01*
X214721886Y-99361225D02*
X214781282Y-99420621D01*
X217933540Y-103633540D02*
X217486648Y-104080431D01*
X217727071Y-102295700D02*
X217786467Y-102355096D01*
X213894571Y-99356984D02*
X213775777Y-99475778D01*
X210820000Y-99060000D02*
X212750000Y-99060000D01*
X219715438Y-105415438D02*
X219268546Y-105862329D01*
X221319150Y-106781563D02*
X221647246Y-106453464D01*
X216298716Y-103130087D02*
X216358112Y-103189483D01*
X221616133Y-107316134D02*
X221675531Y-107375531D01*
X218824489Y-104524489D02*
X219271379Y-104077596D01*
X213775778Y-99475778D02*
X213328886Y-99922669D01*
X220725179Y-106187592D02*
X221017922Y-105894849D01*
X213597588Y-99060001D02*
X213890329Y-98767257D01*
X219568365Y-104374582D02*
X219121472Y-104821472D01*
X216745608Y-102445608D02*
X216298716Y-102892499D01*
X213625870Y-100219653D02*
X214072761Y-99772761D01*
X221884834Y-106453464D02*
X221944230Y-106512860D01*
X218230523Y-103930523D02*
X218677413Y-103483630D01*
X217133105Y-101701734D02*
X217192501Y-101761130D01*
X220159496Y-106753279D02*
X220606387Y-106306387D01*
X219508969Y-104077598D02*
X219568365Y-104136994D01*
X213328886Y-100160257D02*
X213388282Y-100219653D01*
X219862512Y-106693883D02*
X219921908Y-106753279D01*
X218380433Y-103186650D02*
X217933540Y-103633540D01*
X214369744Y-100069744D02*
X213922852Y-100516635D01*
X217786467Y-102592684D02*
X217339574Y-103039574D01*
X220309404Y-106009404D02*
X219862512Y-106456295D01*
X220661546Y-105300885D02*
X220720942Y-105360281D01*
X217783632Y-104377415D02*
X218230523Y-103930523D01*
X202500000Y-95820000D02*
X200660000Y-93980000D01*
X217636557Y-103336557D02*
X218083447Y-102889664D01*
X218915003Y-103483632D02*
X218974399Y-103543028D01*
X221750000Y-107450000D02*
X221750000Y-109000000D01*
X218971564Y-105565347D02*
X219418455Y-105118455D01*
X221944230Y-106750448D02*
X221616133Y-107078546D01*
X216448625Y-102148625D02*
X216895515Y-101701732D01*
X215260693Y-100960693D02*
X215707583Y-100513800D01*
X218674580Y-105505951D02*
X218733976Y-105565347D01*
X215557676Y-101257676D02*
X215110784Y-101704567D01*
X214219836Y-100813619D02*
X214666727Y-100366727D01*
X215351207Y-99919836D02*
X215410603Y-99979232D01*
X214781282Y-99658209D02*
X214369744Y-100069744D01*
X215945173Y-100513802D02*
X216004569Y-100573198D01*
X202500000Y-110500000D02*
X202500000Y-95820000D01*
X215110784Y-101942155D02*
X215170180Y-102001551D01*
X215410603Y-100216820D02*
X214963710Y-100663710D01*
X214813802Y-101407585D02*
X215260693Y-100960693D01*
X214187313Y-99064241D02*
X213894571Y-99356984D01*
X217189666Y-103783449D02*
X217636557Y-103336557D01*
X217486648Y-104318019D02*
X217546044Y-104377415D01*
X216598535Y-101404752D02*
X216151642Y-101851642D01*
X221675531Y-107375531D02*
X221750000Y-107450000D01*
X216001734Y-102595517D02*
X216448625Y-102148625D01*
X212750000Y-99060000D02*
X213220000Y-99060000D01*
X218080614Y-104911985D02*
X218140010Y-104971381D01*
X221314908Y-106191835D02*
X221022164Y-106484576D01*
X214127917Y-98767257D02*
X214187313Y-98826653D01*
X219268546Y-106099917D02*
X219327942Y-106159313D01*
X221750000Y-109000000D02*
X221750000Y-111750000D01*
X216539139Y-101107768D02*
X216598535Y-101167164D01*
X218321037Y-102889666D02*
X218380433Y-102949062D01*
X218377598Y-104971381D02*
X218824489Y-104524489D01*
X220067580Y-104706919D02*
X220126976Y-104766315D01*
X221255512Y-105894851D02*
X221314908Y-105954247D01*
X215854659Y-101554659D02*
X216301549Y-101107766D01*
X215407768Y-102001551D02*
X215854659Y-101554659D01*
X213220000Y-99060000D02*
X213360000Y-99060000D01*
X220606387Y-106306387D02*
X220725179Y-106187592D01*
X217042591Y-102742591D02*
X217489481Y-102295698D01*
X200660000Y-93980000D02*
X198120000Y-93980000D01*
X220750000Y-112750000D02*
X202900000Y-112750000D01*
X221750000Y-111750000D02*
X220750000Y-112750000D01*
X215704750Y-102536121D02*
X215764146Y-102595517D01*
X214516818Y-101348189D02*
X214576214Y-101407585D01*
X220012421Y-105712421D02*
X220423956Y-105300883D01*
X216595700Y-103189483D02*
X217042591Y-102742591D01*
X218527506Y-104227506D02*
X218080614Y-104674397D01*
X220126976Y-105003903D02*
X219715438Y-105415438D01*
X214666727Y-100366727D02*
X215113617Y-99919834D01*
X215707583Y-100513800D02*
G75*
G02*
X215945196Y-100513779I118817J-118800D01*
G01*
X220720942Y-105360281D02*
G75*
G02*
X220720967Y-105597894I-118842J-118819D01*
G01*
X219271379Y-104077596D02*
G75*
G02*
X219508996Y-104077571I118821J-118804D01*
G01*
X216895515Y-101701732D02*
G75*
G02*
X217133096Y-101701743I118785J-118768D01*
G01*
X219862512Y-106456295D02*
G75*
G03*
X219862501Y-106693894I118788J-118805D01*
G01*
X217786467Y-102355096D02*
G75*
G02*
X217786477Y-102592694I-118767J-118804D01*
G01*
X218083447Y-102889664D02*
G75*
G02*
X218320996Y-102889707I118753J-118836D01*
G01*
X215764146Y-102595517D02*
G75*
G03*
X216001734Y-102595517I118794J118794D01*
G01*
X217546044Y-104377415D02*
G75*
G03*
X217783632Y-104377415I118794J118794D01*
G01*
X214576214Y-101407585D02*
G75*
G03*
X214813802Y-101407585I118794J118794D01*
G01*
X215170180Y-102001551D02*
G75*
G03*
X215407768Y-102001551I118794J118794D01*
G01*
X221616133Y-107078546D02*
G75*
G03*
X221616173Y-107316094I118767J-118754D01*
G01*
X213922852Y-100516635D02*
G75*
G03*
X213922881Y-100754194I118748J-118765D01*
G01*
X216004569Y-100573198D02*
G75*
G02*
X216004577Y-100810794I-118769J-118802D01*
G01*
X213890329Y-98767257D02*
G75*
G02*
X214127917Y-98767257I118794J-118794D01*
G01*
X219568365Y-104136994D02*
G75*
G02*
X219568377Y-104374594I-118765J-118806D01*
G01*
X218140010Y-104971381D02*
G75*
G03*
X218377598Y-104971381I118794J118794D01*
G01*
X221081562Y-106781562D02*
G75*
G03*
X221319194Y-106781607I118838J118762D01*
G01*
X221017922Y-105894849D02*
G75*
G02*
X221255496Y-105894867I118778J-118851D01*
G01*
X213982248Y-100813619D02*
G75*
G03*
X214219836Y-100813619I118794J118794D01*
G01*
X213360000Y-99060000D02*
G75*
G03*
X213597593Y-99060007I118800J118800D01*
G01*
X218080614Y-104674397D02*
G75*
G03*
X218080605Y-104911994I118786J-118803D01*
G01*
X219268546Y-105862329D02*
G75*
G03*
X219268569Y-106099894I118754J-118771D01*
G01*
X213388282Y-100219653D02*
G75*
G03*
X213625870Y-100219653I118794J118794D01*
G01*
X216298716Y-102892499D02*
G75*
G03*
X216298709Y-103130094I118784J-118801D01*
G01*
X219829990Y-104706917D02*
G75*
G02*
X220067596Y-104706903I118810J-118783D01*
G01*
X216952078Y-103783449D02*
G75*
G03*
X217189666Y-103783449I118794J118794D01*
G01*
X218677413Y-103483630D02*
G75*
G02*
X218914996Y-103483639I118787J-118770D01*
G01*
X217192501Y-101761130D02*
G75*
G02*
X217192477Y-101998694I-118801J-118770D01*
G01*
X219921908Y-106753279D02*
G75*
G03*
X220159496Y-106753279I118794J118794D01*
G01*
X220423956Y-105300883D02*
G75*
G02*
X220661496Y-105300935I118744J-118817D01*
G01*
X216892682Y-103486465D02*
G75*
G03*
X216892641Y-103724094I118818J-118835D01*
G01*
X216598535Y-101167164D02*
G75*
G02*
X216598577Y-101404794I-118835J-118836D01*
G01*
X216358112Y-103189483D02*
G75*
G03*
X216595700Y-103189483I118794J118794D01*
G01*
X219327942Y-106159313D02*
G75*
G03*
X219565530Y-106159313I118794J118794D01*
G01*
X217489481Y-102295698D02*
G75*
G02*
X217727096Y-102295675I118819J-118802D01*
G01*
X215110784Y-101704567D02*
G75*
G03*
X215110745Y-101942194I118816J-118833D01*
G01*
X213328886Y-99922669D02*
G75*
G03*
X213328849Y-100160294I118814J-118831D01*
G01*
X215113617Y-99919834D02*
G75*
G02*
X215351196Y-99919847I118783J-118766D01*
G01*
X217486648Y-104080431D02*
G75*
G03*
X217486673Y-104317994I118752J-118769D01*
G01*
X215410603Y-99979232D02*
G75*
G02*
X215410577Y-100216794I-118803J-118768D01*
G01*
X218674580Y-105268363D02*
G75*
G03*
X218674537Y-105505994I118820J-118837D01*
G01*
X221647246Y-106453464D02*
G75*
G02*
X221884834Y-106453464I118794J-118794D01*
G01*
X220126976Y-104766315D02*
G75*
G02*
X220126967Y-105003894I-118776J-118785D01*
G01*
X218733976Y-105565347D02*
G75*
G03*
X218971564Y-105565347I118794J118794D01*
G01*
X221944230Y-106512860D02*
G75*
G02*
X221944276Y-106750494I-118830J-118840D01*
G01*
X214187313Y-98826653D02*
G75*
G02*
X214187266Y-99064194I-118813J-118747D01*
G01*
X215704750Y-102298533D02*
G75*
G03*
X215704777Y-102536094I118750J-118767D01*
G01*
X214484296Y-99361223D02*
G75*
G02*
X214721896Y-99361215I118804J-118777D01*
G01*
X221022164Y-106484576D02*
G75*
G03*
X221022134Y-106722194I118836J-118824D01*
G01*
X218380433Y-102949062D02*
G75*
G02*
X218380477Y-103186694I-118833J-118838D01*
G01*
X214781282Y-99420621D02*
G75*
G02*
X214781267Y-99658194I-118782J-118779D01*
G01*
X216301549Y-101107766D02*
G75*
G02*
X216539096Y-101107811I118751J-118834D01*
G01*
X218974399Y-103543028D02*
G75*
G02*
X218974377Y-103780594I-118799J-118772D01*
G01*
X221314908Y-105954247D02*
G75*
G02*
X221314867Y-106191794I-118808J-118753D01*
G01*
X214516818Y-101110601D02*
G75*
G03*
X214516813Y-101348194I118782J-118799D01*
G01*
%TO.N,D1*%
X219519632Y-92519632D02*
X219374675Y-92664588D01*
X221248505Y-93668678D02*
X221389926Y-93810099D01*
X215351247Y-88061335D02*
X215206291Y-88206292D01*
X220237343Y-93817170D02*
X220378764Y-93958591D01*
X216500294Y-89500294D02*
X216645249Y-89355336D01*
X217797833Y-90218006D02*
X217939254Y-90359427D01*
X199900000Y-88900000D02*
X198120000Y-88900000D01*
X222111173Y-94531346D02*
X222252594Y-94672767D01*
X222538970Y-95538970D02*
X222683925Y-95394012D01*
X216931628Y-89931628D02*
X216786671Y-90076584D01*
X223256683Y-96256683D02*
X223520000Y-96520000D01*
X221962679Y-95542506D02*
X222104100Y-95683927D01*
X216935165Y-89355338D02*
X217076586Y-89496759D01*
X221531346Y-94821259D02*
X221676302Y-94676302D01*
X210820000Y-86360000D02*
X213360000Y-86360000D01*
X224750000Y-113750000D02*
X224750000Y-97750000D01*
X217218006Y-90507919D02*
X217362962Y-90362962D01*
X215061335Y-88641162D02*
X215202756Y-88782583D01*
X219806010Y-93095923D02*
X219950966Y-92950966D01*
X220813634Y-93813634D02*
X220958589Y-93668676D01*
X218080674Y-91370587D02*
X218225630Y-91225630D01*
X217076586Y-89786673D02*
X216931628Y-89931628D01*
X218656964Y-91656964D02*
X218512007Y-91801920D01*
X217362962Y-90362962D02*
X217507917Y-90218004D01*
X215924003Y-89503830D02*
X216065424Y-89645251D01*
X221100011Y-94679838D02*
X221241432Y-94821259D01*
X204500000Y-93500000D02*
X199900000Y-88900000D01*
X222394014Y-95683927D02*
X222538970Y-95538970D01*
X215637626Y-88637626D02*
X215782581Y-88492668D01*
X220668678Y-93958591D02*
X220813634Y-93813634D01*
X224750000Y-97750000D02*
X223520000Y-96520000D01*
X215206292Y-88206292D02*
X215061335Y-88351248D01*
X222252594Y-94962681D02*
X222107636Y-95107636D01*
X216213918Y-88924005D02*
X216068960Y-89068960D01*
X223115261Y-96115261D02*
X223256683Y-96256683D01*
X220527258Y-93237345D02*
X220382300Y-93382300D01*
X204500000Y-110500000D02*
X204500000Y-93500000D01*
X221389926Y-94100013D02*
X221244968Y-94244968D01*
X219374675Y-92954502D02*
X219516096Y-93095923D01*
X215206291Y-88206292D02*
X215206292Y-88206292D01*
X216786671Y-90366498D02*
X216928092Y-90507919D01*
X218225630Y-91225630D02*
X218370585Y-91080672D01*
X223000000Y-115500000D02*
X224750000Y-113750000D01*
X221244968Y-94244968D02*
X221100011Y-94389924D01*
X216072497Y-88492670D02*
X216213918Y-88634091D01*
X221676302Y-94676302D02*
X221821257Y-94531344D01*
X217649339Y-91229166D02*
X217790760Y-91370587D01*
X205000000Y-115500000D02*
X223000000Y-115500000D01*
X216068960Y-89068960D02*
X215924003Y-89213916D01*
X217939254Y-90649341D02*
X217794296Y-90794296D01*
X222107636Y-95107636D02*
X221962679Y-95252592D01*
X219664590Y-92374677D02*
X219519632Y-92519632D01*
X218943342Y-92233255D02*
X219088298Y-92088298D01*
X213360000Y-86360000D02*
X214630000Y-87630000D01*
X217794296Y-90794296D02*
X217649339Y-90939252D01*
X220382300Y-93382300D02*
X220237343Y-93527256D01*
X218512007Y-92091834D02*
X218653428Y-92233255D01*
X218801922Y-91512009D02*
X218656964Y-91656964D01*
X215209826Y-87630000D02*
X215351247Y-87771421D01*
X219950966Y-92950966D02*
X220095921Y-92806008D01*
X218660501Y-91080674D02*
X218801922Y-91222095D01*
X219523169Y-91943342D02*
X219664590Y-92084763D01*
X216355338Y-89645251D02*
X216500294Y-89500294D01*
X220385837Y-92806010D02*
X220527258Y-92947431D01*
X219088298Y-92088298D02*
X219233253Y-91943340D01*
X215492670Y-88782583D02*
X215637626Y-88637626D01*
X222973841Y-95394014D02*
X223115262Y-95535435D01*
X216645249Y-89355336D02*
G75*
G02*
X216935159Y-89355344I144951J-144964D01*
G01*
X214919914Y-87630001D02*
G75*
G02*
X215209855Y-87629970I144986J-144999D01*
G01*
X216928092Y-90507919D02*
G75*
G03*
X217218006Y-90507919I144957J144958D01*
G01*
X219374675Y-92664588D02*
G75*
G03*
X219374720Y-92954457I144925J-144912D01*
G01*
X219516096Y-93095923D02*
G75*
G03*
X219806010Y-93095923I144957J144958D01*
G01*
X216213918Y-88634091D02*
G75*
G02*
X216213870Y-88923957I-144918J-144909D01*
G01*
X216786671Y-90076584D02*
G75*
G03*
X216786712Y-90366457I144929J-144916D01*
G01*
X221821257Y-94531344D02*
G75*
G02*
X222111159Y-94531360I144943J-144956D01*
G01*
X219233253Y-91943340D02*
G75*
G02*
X219523159Y-91943352I144947J-144960D01*
G01*
X220378764Y-93958591D02*
G75*
G03*
X220668678Y-93958591I144957J144958D01*
G01*
X217649339Y-90939252D02*
G75*
G03*
X217649348Y-91229157I144961J-144948D01*
G01*
X220958589Y-93668676D02*
G75*
G02*
X221248459Y-93668724I144911J-144924D01*
G01*
X220237343Y-93527256D02*
G75*
G03*
X220237356Y-93817157I144957J-144944D01*
G01*
X217076586Y-89496759D02*
G75*
G02*
X217076570Y-89786657I-144986J-144941D01*
G01*
X215202756Y-88782583D02*
G75*
G03*
X215492670Y-88782583I144957J144958D01*
G01*
X220527258Y-92947431D02*
G75*
G02*
X220527270Y-93237357I-144958J-144969D01*
G01*
X215782581Y-88492668D02*
G75*
G02*
X216072459Y-88492708I144919J-144932D01*
G01*
X218370585Y-91080672D02*
G75*
G02*
X218660459Y-91080716I144915J-144928D01*
G01*
X217790760Y-91370587D02*
G75*
G03*
X218080674Y-91370587I144957J144958D01*
G01*
X217939254Y-90359427D02*
G75*
G02*
X217939270Y-90649357I-144954J-144973D01*
G01*
X218801922Y-91222095D02*
G75*
G02*
X218801970Y-91512057I-144922J-145005D01*
G01*
X214630000Y-87630000D02*
G75*
G03*
X214919956Y-87630044I145000J145000D01*
G01*
X221962679Y-95252592D02*
G75*
G03*
X221962728Y-95542457I144921J-144908D01*
G01*
X218512007Y-91801920D02*
G75*
G03*
X218511984Y-92091857I144993J-144980D01*
G01*
X223115262Y-95825349D02*
G75*
G03*
X223115266Y-96115255I144938J-144951D01*
G01*
X223115262Y-95535435D02*
G75*
G02*
X223115270Y-95825357I-144962J-144965D01*
G01*
X221100011Y-94389924D02*
G75*
G03*
X221099992Y-94679857I144989J-144976D01*
G01*
X222252594Y-94672767D02*
G75*
G02*
X222252570Y-94962657I-144994J-144933D01*
G01*
X221389926Y-93810099D02*
G75*
G02*
X221389970Y-94100057I-144926J-145001D01*
G01*
X215924003Y-89213916D02*
G75*
G03*
X215923976Y-89503857I144997J-144984D01*
G01*
X222104100Y-95683927D02*
G75*
G03*
X222394014Y-95683927I144957J144958D01*
G01*
X222683925Y-95394012D02*
G75*
G02*
X222973859Y-95393996I144975J-144988D01*
G01*
X218653428Y-92233255D02*
G75*
G03*
X218943342Y-92233255I144957J144958D01*
G01*
X216065424Y-89645251D02*
G75*
G03*
X216355338Y-89645251I144957J144958D01*
G01*
X220095921Y-92806008D02*
G75*
G02*
X220385859Y-92805988I144979J-144992D01*
G01*
X217507917Y-90218004D02*
G75*
G02*
X217797859Y-90217980I144983J-144996D01*
G01*
X215351247Y-87771421D02*
G75*
G02*
X215351269Y-88061357I-144947J-144979D01*
G01*
X221241432Y-94821259D02*
G75*
G03*
X221531346Y-94821259I144957J144958D01*
G01*
X215061335Y-88351248D02*
G75*
G03*
X215061340Y-88641157I144965J-144952D01*
G01*
X219664590Y-92084763D02*
G75*
G02*
X219664570Y-92374657I-144990J-144937D01*
G01*
%TO.N,D0*%
X193850000Y-88900000D02*
X195580000Y-88900000D01*
X190750000Y-92000000D02*
X193850000Y-88900000D01*
X190750000Y-111500000D02*
X190750000Y-92000000D01*
X210820000Y-83820000D02*
X213360000Y-83820000D01*
X225500000Y-114250000D02*
X223500000Y-116250000D01*
X195500000Y-116250000D02*
X190750000Y-111500000D01*
X225500000Y-95960000D02*
X213360000Y-83820000D01*
X223500000Y-116250000D02*
X195500000Y-116250000D01*
X225500000Y-114250000D02*
X225500000Y-95960000D01*
%TO.N,D4*%
X221884879Y-104456567D02*
X221590722Y-104750723D01*
X213880377Y-97888905D02*
X213815323Y-97823851D01*
X195580000Y-93980000D02*
X193770000Y-93980000D01*
X214760020Y-97920020D02*
X215054176Y-97625863D01*
X219019667Y-102767979D02*
X219313822Y-102473821D01*
X217133092Y-101141620D02*
X217068038Y-101076566D01*
X219313821Y-102473821D02*
X219607977Y-102179664D01*
X222500000Y-105660000D02*
X222371372Y-105531372D01*
X220940179Y-104100180D02*
X220940179Y-104100179D01*
X214109477Y-97269477D02*
X214239584Y-97139369D01*
X216061107Y-99221106D02*
X216061106Y-99221106D01*
X220971296Y-104719608D02*
X221265451Y-104425450D01*
X215085292Y-98245292D02*
X214791134Y-98539447D01*
X215704719Y-98016191D02*
X215639665Y-97951137D01*
X214760021Y-97920020D02*
X214760020Y-97920020D01*
X218012736Y-101172735D02*
X218012735Y-101172735D01*
X217068038Y-100816350D02*
X217362193Y-100522192D01*
X214239584Y-97139369D02*
X214403633Y-96975320D01*
X215766952Y-99515264D02*
X216061107Y-99221106D01*
X215410563Y-98570563D02*
X215704719Y-98276406D01*
X214434749Y-97594750D02*
X214434749Y-97594749D01*
X214434749Y-97594749D02*
X214140591Y-97888904D01*
X221686890Y-105695419D02*
X221621836Y-105630365D01*
X213815323Y-97563635D02*
X214109478Y-97269477D01*
X219964364Y-103124364D02*
X220258520Y-102830207D01*
X216711650Y-99871649D02*
X216711649Y-99871649D01*
X221265450Y-104425450D02*
X221559606Y-104131293D01*
X221590722Y-104750722D02*
X221296564Y-105044877D01*
X215832006Y-99840534D02*
X215766952Y-99775480D01*
X217687464Y-100847465D02*
X217687464Y-100847464D01*
X218338007Y-101498008D02*
X218338007Y-101498007D01*
X215735835Y-98895836D02*
X215735835Y-98895835D01*
X215410564Y-98570563D02*
X215410563Y-98570563D01*
X221621836Y-105370149D02*
X221785885Y-105206101D01*
X218338007Y-101498007D02*
X218043849Y-101792162D01*
X218369124Y-102117436D02*
X218663279Y-101823278D01*
X215379449Y-97951137D02*
X215085292Y-98245293D01*
X217981621Y-100553309D02*
X217687464Y-100847465D01*
X219670210Y-103418522D02*
X219964365Y-103124364D01*
X220289636Y-103449636D02*
X219995478Y-103743791D01*
X217005805Y-99317277D02*
X216940751Y-99252223D01*
X221036350Y-105044878D02*
X220971296Y-104979824D01*
X219282707Y-101854395D02*
X218988550Y-102148551D01*
X219084721Y-103093249D02*
X219019667Y-103028195D01*
X219964365Y-103124364D02*
X219964364Y-103124364D01*
X215735835Y-98895835D02*
X215441677Y-99189990D01*
X217362192Y-100522192D02*
X217656348Y-100228035D01*
X213654098Y-96814099D02*
X213589046Y-96749046D01*
X221590722Y-104750723D02*
X221590722Y-104750722D01*
X216482549Y-100491077D02*
X216417495Y-100426023D01*
X217718581Y-101466893D02*
X218012736Y-101172735D01*
X222210149Y-104521621D02*
X222145095Y-104456567D01*
X219313822Y-102473821D02*
X219313821Y-102473821D01*
X221559606Y-103871078D02*
X221494552Y-103806024D01*
X222500000Y-112250000D02*
X222500000Y-105660000D01*
X218632164Y-101203852D02*
X218338007Y-101498008D01*
X218012735Y-101172735D02*
X218306891Y-100878578D01*
X221234336Y-103806024D02*
X220940179Y-104100180D01*
X213360000Y-96520000D02*
X210820000Y-96520000D01*
X220614907Y-103774907D02*
X220909063Y-103480750D01*
X217362193Y-100522192D02*
X217362192Y-100522192D01*
X213589046Y-96749046D02*
X213360000Y-96520000D01*
X193770000Y-93980000D02*
X192250000Y-95500000D01*
X214078363Y-96650051D02*
X213914314Y-96814099D01*
X214728906Y-97300594D02*
X214434749Y-97594750D01*
X221350000Y-113400000D02*
X222500000Y-112250000D01*
X215181463Y-99189991D02*
X215116409Y-99124937D01*
X217331078Y-99902766D02*
X217036921Y-100196922D01*
X214530920Y-98539448D02*
X214465866Y-98474394D01*
X214109478Y-97269477D02*
X214109477Y-97269477D01*
X218957434Y-101268906D02*
X218892380Y-101203852D01*
X220583793Y-103155481D02*
X220289636Y-103449637D01*
X220289636Y-103449637D02*
X220289636Y-103449636D01*
X217036921Y-100196922D02*
X217036921Y-100196921D01*
X218434178Y-102442706D02*
X218369124Y-102377652D01*
X192250000Y-95500000D02*
X192250000Y-111000000D01*
X221785885Y-105206101D02*
X221915993Y-105075993D01*
X215054176Y-97365648D02*
X214989122Y-97300594D01*
X221915993Y-105075993D02*
X222210149Y-104781836D01*
X214465866Y-98214178D02*
X214760021Y-97920020D01*
X216386378Y-99546379D02*
X216386378Y-99546378D01*
X216711649Y-99871649D02*
X217005805Y-99577492D01*
X215116409Y-98864721D02*
X215410564Y-98570563D01*
X219639093Y-102799094D02*
X219639093Y-102799093D01*
X216355262Y-98666734D02*
X216290208Y-98601680D01*
X220614908Y-103774907D02*
X220614907Y-103774907D01*
X218988550Y-102148551D02*
X218988550Y-102148550D01*
X219607977Y-101919449D02*
X219542923Y-101854395D01*
X216386378Y-99546378D02*
X216092220Y-99840533D01*
X216061106Y-99221106D02*
X216355262Y-98926949D01*
X194650000Y-113400000D02*
X221350000Y-113400000D01*
X217687464Y-100847464D02*
X217393306Y-101141619D01*
X220320753Y-104069065D02*
X220614908Y-103774907D01*
X222111156Y-105531372D02*
X221947106Y-105695419D01*
X218663278Y-101823278D02*
X218957434Y-101529121D01*
X215085292Y-98245293D02*
X215085292Y-98245292D01*
X218663279Y-101823278D02*
X218663278Y-101823278D01*
X220909063Y-103220535D02*
X220844009Y-103155481D01*
X218306891Y-100618363D02*
X218241837Y-100553309D01*
X218988550Y-102148550D02*
X218694392Y-102442705D01*
X192250000Y-111000000D02*
X194650000Y-113400000D01*
X216417495Y-100165807D02*
X216711650Y-99871649D01*
X220940179Y-104100179D02*
X220646021Y-104394334D01*
X219735264Y-103743792D02*
X219670210Y-103678738D01*
X214403633Y-96715105D02*
X214338579Y-96650051D01*
X217036921Y-100196921D02*
X216742763Y-100491076D01*
X217783635Y-101792163D02*
X217718581Y-101727109D01*
X216680535Y-99252223D02*
X216386378Y-99546379D01*
X221265451Y-104425450D02*
X221265450Y-104425450D01*
X219639093Y-102799093D02*
X219344935Y-103093248D01*
X216029992Y-98601680D02*
X215735835Y-98895836D01*
X219933250Y-102504938D02*
X219639093Y-102799094D01*
X220385807Y-104394335D02*
X220320753Y-104329281D01*
X217656348Y-99967820D02*
X217591294Y-99902766D01*
X220258520Y-102569992D02*
X220193466Y-102504938D01*
X213815323Y-97823851D02*
G75*
G02*
X213815280Y-97563592I130077J130151D01*
G01*
X219344935Y-103093248D02*
G75*
G02*
X219084694Y-103093277I-130135J130148D01*
G01*
X213914314Y-96814099D02*
G75*
G02*
X213654098Y-96814099I-130108J130110D01*
G01*
X214338579Y-96650051D02*
G75*
G03*
X214078363Y-96650051I-130108J-130110D01*
G01*
X216940751Y-99252223D02*
G75*
G03*
X216680535Y-99252223I-130108J-130110D01*
G01*
X221494552Y-103806024D02*
G75*
G03*
X221234336Y-103806024I-130108J-130110D01*
G01*
X216092220Y-99840533D02*
G75*
G02*
X215831994Y-99840547I-130120J130133D01*
G01*
X217656348Y-100228035D02*
G75*
G03*
X217656376Y-99967793I-130148J130135D01*
G01*
X222371372Y-105531372D02*
G75*
G03*
X222111156Y-105531372I-130108J-130110D01*
G01*
X219670210Y-103678738D02*
G75*
G02*
X219670180Y-103418492I130090J130138D01*
G01*
X214791134Y-98539447D02*
G75*
G02*
X214530894Y-98539475I-130134J130147D01*
G01*
X220193466Y-102504938D02*
G75*
G03*
X219933250Y-102504938I-130108J-130110D01*
G01*
X218306891Y-100878578D02*
G75*
G03*
X218306862Y-100618393I-130091J130078D01*
G01*
X219542923Y-101854395D02*
G75*
G03*
X219282707Y-101854395I-130108J-130110D01*
G01*
X219607977Y-102179664D02*
G75*
G03*
X219607934Y-101919493I-130077J130064D01*
G01*
X217591294Y-99902766D02*
G75*
G03*
X217331078Y-99902766I-130108J-130110D01*
G01*
X222145095Y-104456567D02*
G75*
G03*
X221884879Y-104456567I-130108J-130110D01*
G01*
X214989122Y-97300594D02*
G75*
G03*
X214728906Y-97300594I-130108J-130110D01*
G01*
X219995478Y-103743791D02*
G75*
G02*
X219735294Y-103743763I-130078J130091D01*
G01*
X217718581Y-101727109D02*
G75*
G02*
X217718580Y-101466892I130119J130109D01*
G01*
X215116409Y-99124937D02*
G75*
G02*
X215116380Y-98864692I130091J130137D01*
G01*
X220909063Y-103480750D02*
G75*
G03*
X220909106Y-103220492I-130063J130150D01*
G01*
X216417495Y-100426023D02*
G75*
G02*
X216417480Y-100165792I130105J130123D01*
G01*
X218241837Y-100553309D02*
G75*
G03*
X217981621Y-100553309I-130108J-130110D01*
G01*
X218892380Y-101203852D02*
G75*
G03*
X218632164Y-101203852I-130108J-130110D01*
G01*
X220320753Y-104329281D02*
G75*
G02*
X220320780Y-104069092I130147J130081D01*
G01*
X220258520Y-102830207D02*
G75*
G03*
X220258520Y-102569992I-130120J130107D01*
G01*
X217005805Y-99577492D02*
G75*
G03*
X217005790Y-99317293I-130105J130092D01*
G01*
X220844009Y-103155481D02*
G75*
G03*
X220583793Y-103155481I-130108J-130110D01*
G01*
X214140591Y-97888904D02*
G75*
G02*
X213880394Y-97888889I-130091J130104D01*
G01*
X222210149Y-104781836D02*
G75*
G03*
X222210178Y-104521593I-130149J130136D01*
G01*
X221621836Y-105630365D02*
G75*
G02*
X221621879Y-105370192I130064J130065D01*
G01*
X214465866Y-98474394D02*
G75*
G02*
X214465880Y-98214192I130134J130094D01*
G01*
X216355262Y-98926949D02*
G75*
G03*
X216355304Y-98666692I-130062J130149D01*
G01*
X218369124Y-102377652D02*
G75*
G02*
X218369080Y-102117392I130076J130152D01*
G01*
X220646021Y-104394334D02*
G75*
G02*
X220385794Y-104394349I-130121J130134D01*
G01*
X217393306Y-101141619D02*
G75*
G02*
X217133093Y-101141618I-130106J130119D01*
G01*
X216290208Y-98601680D02*
G75*
G03*
X216029992Y-98601680I-130108J-130110D01*
G01*
X216742763Y-100491076D02*
G75*
G02*
X216482594Y-100491033I-130063J130076D01*
G01*
X215704719Y-98276406D02*
G75*
G03*
X215704718Y-98016192I-130119J130106D01*
G01*
X214403633Y-96975320D02*
G75*
G03*
X214403646Y-96715093I-130133J130120D01*
G01*
X221559606Y-104131293D02*
G75*
G03*
X221559592Y-103871093I-130106J130093D01*
G01*
X219019667Y-103028195D02*
G75*
G02*
X219019680Y-102767992I130133J130095D01*
G01*
X215441677Y-99189990D02*
G75*
G02*
X215181494Y-99189961I-130077J130090D01*
G01*
X221296564Y-105044877D02*
G75*
G02*
X221036394Y-105044835I-130064J130077D01*
G01*
X217068038Y-101076566D02*
G75*
G02*
X217068080Y-100816392I130062J130066D01*
G01*
X218694392Y-102442705D02*
G75*
G02*
X218434194Y-102442691I-130092J130105D01*
G01*
X215766952Y-99775480D02*
G75*
G02*
X215766980Y-99515292I130148J130080D01*
G01*
X220971296Y-104979824D02*
G75*
G02*
X220971280Y-104719592I130104J130124D01*
G01*
X218957434Y-101529121D02*
G75*
G03*
X218957448Y-101268893I-130134J130121D01*
G01*
X215054176Y-97625863D02*
G75*
G03*
X215054132Y-97365693I-130076J130063D01*
G01*
X215639665Y-97951137D02*
G75*
G03*
X215379449Y-97951137I-130108J-130110D01*
G01*
X221947106Y-105695419D02*
G75*
G02*
X221686890Y-105695419I-130108J130110D01*
G01*
X218043849Y-101792162D02*
G75*
G02*
X217783593Y-101792205I-130149J130062D01*
G01*
%TO.N,D7*%
X210726000Y-110564000D02*
X210726000Y-111250000D01*
X204986000Y-110914000D02*
X204986000Y-111086000D01*
X216180000Y-106680000D02*
X216505269Y-107005269D01*
X216426072Y-107896222D02*
X216795181Y-107527112D01*
X215608000Y-106680000D02*
X215690000Y-106680000D01*
X213394000Y-106144000D02*
X213394000Y-106680000D01*
X210562000Y-111600000D02*
X210480000Y-111600000D01*
X206216000Y-111250000D02*
X206216000Y-110564000D01*
X214378000Y-107530000D02*
X214460000Y-107530000D01*
X209086000Y-111250000D02*
X209086000Y-111436000D01*
X218824577Y-109556508D02*
X218455467Y-109925617D01*
X208922000Y-111600000D02*
X208840000Y-111600000D01*
X216712000Y-110400000D02*
X216630000Y-110400000D01*
X213804000Y-107366000D02*
X213804000Y-106680000D01*
X215072000Y-110400000D02*
X214990000Y-110400000D01*
X218926000Y-110964000D02*
X218926000Y-111086000D01*
X217085096Y-107817027D02*
X216715986Y-108186136D01*
X218165553Y-109635703D02*
X218534662Y-109266593D01*
X219336000Y-111086000D02*
X219336000Y-110964000D01*
X218106000Y-111250000D02*
X218106000Y-111436000D01*
X219346419Y-109614488D02*
X219715529Y-109245378D01*
X209906000Y-111250000D02*
X209906000Y-111436000D01*
X206052000Y-110400000D02*
X205970000Y-110400000D01*
X205806000Y-110564000D02*
X205806000Y-111250000D01*
X211136000Y-111436000D02*
X211136000Y-111250000D01*
X212574000Y-106680000D02*
X212574000Y-107366000D01*
X206626000Y-110564000D02*
X206626000Y-111250000D01*
X214006000Y-111250000D02*
X214006000Y-111436000D01*
X205806000Y-111250000D02*
X205806000Y-111436000D01*
X220005444Y-109535293D02*
X219636333Y-109904401D01*
X211792000Y-110400000D02*
X211710000Y-110400000D01*
X216715986Y-108418067D02*
X216773968Y-108476049D01*
X219674731Y-111075269D02*
X219500000Y-111250000D01*
X214214000Y-106680000D02*
X214214000Y-107366000D01*
X209742000Y-111600000D02*
X209660000Y-111600000D01*
X208676000Y-111436000D02*
X208676000Y-111250000D01*
X210820000Y-106680000D02*
X212000000Y-106680000D01*
X212574000Y-106516000D02*
X212574000Y-106680000D01*
X214788000Y-106130000D02*
X214870000Y-106130000D01*
X212202000Y-111600000D02*
X212120000Y-111600000D01*
X206462000Y-111600000D02*
X206380000Y-111600000D01*
X218244750Y-108976681D02*
X217875640Y-109345790D01*
X217005899Y-108476049D02*
X217375008Y-108106939D01*
X219230455Y-109730455D02*
X219346419Y-109614488D01*
X218352000Y-110850000D02*
X218270000Y-110850000D01*
X213186000Y-110564000D02*
X213186000Y-111250000D01*
X212366000Y-111250000D02*
X212366000Y-111436000D01*
X213968000Y-106130000D02*
X214050000Y-106130000D01*
X210316000Y-111250000D02*
X210316000Y-110564000D01*
X216876000Y-111436000D02*
X216876000Y-111250000D01*
X205232000Y-110750000D02*
X205150000Y-110750000D01*
X207036000Y-111436000D02*
X207036000Y-111250000D01*
X207036000Y-111250000D02*
X207036000Y-110564000D01*
X213842000Y-111600000D02*
X213760000Y-111600000D01*
X206626000Y-111250000D02*
X206626000Y-111436000D01*
X214006000Y-110564000D02*
X214006000Y-111250000D01*
X212574000Y-105994000D02*
X212574000Y-106516000D01*
X215198000Y-107530000D02*
X215280000Y-107530000D01*
X208266000Y-111250000D02*
X208266000Y-111436000D01*
X214252000Y-110400000D02*
X214170000Y-110400000D01*
X218186766Y-108686766D02*
X218244750Y-108744750D01*
X212164000Y-106516000D02*
X212164000Y-105994000D01*
X216466000Y-110564000D02*
X216466000Y-111250000D01*
X215444000Y-107366000D02*
X215444000Y-106844000D01*
X217286000Y-110564000D02*
X217286000Y-111250000D01*
X217696000Y-111436000D02*
X217696000Y-111250000D01*
X209332000Y-110400000D02*
X209250000Y-110400000D01*
X215892000Y-110400000D02*
X215810000Y-110400000D01*
X218762000Y-111600000D02*
X218680000Y-111600000D01*
X214826000Y-111250000D02*
X214826000Y-111436000D01*
X213022000Y-111600000D02*
X212940000Y-111600000D01*
X212776000Y-111436000D02*
X212776000Y-111250000D01*
X218926000Y-111086000D02*
X218926000Y-111250000D01*
X214662000Y-111600000D02*
X214580000Y-111600000D01*
X219230455Y-109730454D02*
X219230455Y-109730455D01*
X218516000Y-111250000D02*
X218516000Y-111014000D01*
X214416000Y-111436000D02*
X214416000Y-111250000D01*
X210972000Y-110400000D02*
X210890000Y-110400000D01*
X209496000Y-111436000D02*
X209496000Y-111250000D01*
X218766593Y-109266593D02*
X218824577Y-109324577D01*
X217696000Y-111250000D02*
X217696000Y-110564000D01*
X218516000Y-111436000D02*
X218516000Y-111250000D01*
X210726000Y-111250000D02*
X210726000Y-111436000D01*
X213596000Y-111250000D02*
X213596000Y-110564000D01*
X216466000Y-111250000D02*
X216466000Y-111436000D01*
X219947461Y-109245379D02*
X220005443Y-109303361D01*
X215034000Y-106294000D02*
X215034000Y-106680000D01*
X212738000Y-107530000D02*
X212820000Y-107530000D01*
X215690000Y-106680000D02*
X216180000Y-106680000D01*
X207692000Y-110400000D02*
X207610000Y-110400000D01*
X217286000Y-111250000D02*
X217286000Y-111436000D01*
X216302000Y-111600000D02*
X216220000Y-111600000D01*
X215034000Y-106844000D02*
X215034000Y-107366000D01*
X205396000Y-111250000D02*
X205396000Y-111086000D01*
X219694317Y-110194317D02*
X220000000Y-110500000D01*
X219172000Y-110800000D02*
X219090000Y-110800000D01*
X201500000Y-97500000D02*
X200520000Y-96520000D01*
X215034000Y-106680000D02*
X215034000Y-106844000D01*
X204740000Y-111250000D02*
X204500000Y-111250000D01*
X212366000Y-110564000D02*
X212366000Y-111250000D01*
X217532000Y-110400000D02*
X217450000Y-110400000D01*
X201500000Y-110625000D02*
X201500000Y-97500000D01*
X214214000Y-106294000D02*
X214214000Y-106680000D01*
X209906000Y-110564000D02*
X209906000Y-111250000D01*
X212612000Y-110400000D02*
X212530000Y-110400000D01*
X217295813Y-108997894D02*
X217353795Y-109055876D01*
X204822000Y-111250000D02*
X204740000Y-111250000D01*
X217606939Y-108106939D02*
X217664923Y-108164923D01*
X207446000Y-110564000D02*
X207446000Y-111250000D01*
X214624000Y-106680000D02*
X214624000Y-106294000D01*
X209086000Y-110564000D02*
X209086000Y-111250000D01*
X217122000Y-111600000D02*
X217040000Y-111600000D01*
X219114489Y-109846420D02*
X219230455Y-109730454D01*
X218106000Y-111014000D02*
X218106000Y-111250000D01*
X212776000Y-111250000D02*
X212776000Y-110564000D01*
X206216000Y-111436000D02*
X206216000Y-111250000D01*
X219636334Y-110136333D02*
X219694317Y-110194317D01*
X215236000Y-111436000D02*
X215236000Y-111250000D01*
X208266000Y-110564000D02*
X208266000Y-111250000D01*
X217585726Y-109055876D02*
X217954835Y-108686766D01*
X218455467Y-110157548D02*
X218513449Y-110215530D01*
X213186000Y-111250000D02*
X213186000Y-111436000D01*
X207446000Y-111250000D02*
X207446000Y-111436000D01*
X205396000Y-111436000D02*
X205396000Y-111250000D01*
X207856000Y-111436000D02*
X207856000Y-111250000D01*
X215646000Y-110564000D02*
X215646000Y-111250000D01*
X211546000Y-111250000D02*
X211546000Y-111436000D01*
X216136159Y-107838240D02*
X216194141Y-107896222D01*
X216876000Y-111250000D02*
X216876000Y-110564000D01*
X208102000Y-111600000D02*
X208020000Y-111600000D01*
X212984000Y-106680000D02*
X212984000Y-106144000D01*
X211956000Y-111250000D02*
X211956000Y-110564000D01*
X213596000Y-111436000D02*
X213596000Y-111250000D01*
X207282000Y-111600000D02*
X207200000Y-111600000D01*
X211382000Y-111600000D02*
X211300000Y-111600000D01*
X214416000Y-111250000D02*
X214416000Y-110564000D01*
X220000000Y-110750000D02*
X219674731Y-111075269D01*
X216056000Y-111250000D02*
X216056000Y-110564000D01*
X213432000Y-110400000D02*
X213350000Y-110400000D01*
X215646000Y-111250000D02*
X215646000Y-111436000D01*
X212984000Y-107366000D02*
X212984000Y-106680000D01*
X208676000Y-111250000D02*
X208676000Y-110564000D01*
X211546000Y-110564000D02*
X211546000Y-111250000D01*
X213148000Y-105980000D02*
X213230000Y-105980000D01*
X211956000Y-111436000D02*
X211956000Y-111250000D01*
X217664923Y-108396854D02*
X217295813Y-108765963D01*
X216056000Y-111436000D02*
X216056000Y-111250000D01*
X214624000Y-107366000D02*
X214624000Y-106680000D01*
X210152000Y-110400000D02*
X210070000Y-110400000D01*
X212328000Y-105830000D02*
X212410000Y-105830000D01*
X220000000Y-110500000D02*
X220000000Y-110750000D01*
X213558000Y-107530000D02*
X213640000Y-107530000D01*
X204500000Y-111250000D02*
X202125000Y-111250000D01*
X214826000Y-110564000D02*
X214826000Y-111250000D01*
X218926000Y-111250000D02*
X218926000Y-111436000D01*
X215236000Y-111250000D02*
X215236000Y-110564000D01*
X205642000Y-111600000D02*
X205560000Y-111600000D01*
X200520000Y-96520000D02*
X198120000Y-96520000D01*
X210316000Y-111436000D02*
X210316000Y-111250000D01*
X207856000Y-111250000D02*
X207856000Y-110564000D01*
X208512000Y-110400000D02*
X208430000Y-110400000D01*
X216505269Y-107237200D02*
X216136159Y-107606309D01*
X206872000Y-110400000D02*
X206790000Y-110400000D01*
X211136000Y-111250000D02*
X211136000Y-110564000D01*
X213394000Y-106680000D02*
X213394000Y-107366000D01*
X218745380Y-110215530D02*
X219114489Y-109846420D01*
X213804000Y-106680000D02*
X213804000Y-106294000D01*
X205396000Y-111086000D02*
X205396000Y-110914000D01*
X217027112Y-107527112D02*
X217085096Y-107585096D01*
X217875640Y-109577721D02*
X217933622Y-109635703D01*
X210820000Y-106680000D02*
X210890000Y-106750000D01*
X215482000Y-111600000D02*
X215400000Y-111600000D01*
X209496000Y-111250000D02*
X209496000Y-110564000D01*
X202125000Y-111250000D02*
X201500000Y-110625000D01*
X217942000Y-111600000D02*
X217860000Y-111600000D01*
X209086000Y-111436000D02*
G75*
G02*
X208922000Y-111600000I-164000J0D01*
G01*
X212164000Y-105994000D02*
G75*
G02*
X212328000Y-105830000I164000J0D01*
G01*
X214170000Y-110400000D02*
G75*
G03*
X214006000Y-110564000I0J-164000D01*
G01*
X215400000Y-111600000D02*
G75*
G02*
X215236000Y-111436000I0J164000D01*
G01*
X217933622Y-109635703D02*
G75*
G03*
X218165553Y-109635704I115966J115967D01*
G01*
X218106000Y-111436000D02*
G75*
G02*
X217942000Y-111600000I-164000J0D01*
G01*
X217286000Y-111436000D02*
G75*
G02*
X217122000Y-111600000I-164000J0D01*
G01*
X218244750Y-108744750D02*
G75*
G02*
X218244735Y-108976665I-115950J-115950D01*
G01*
X215810000Y-110400000D02*
G75*
G03*
X215646000Y-110564000I0J-164000D01*
G01*
X217085096Y-107585096D02*
G75*
G02*
X217085135Y-107817065I-115996J-116004D01*
G01*
X214006000Y-111436000D02*
G75*
G02*
X213842000Y-111600000I-164000J0D01*
G01*
X214416000Y-110564000D02*
G75*
G03*
X214252000Y-110400000I-164000J0D01*
G01*
X209660000Y-111600000D02*
G75*
G02*
X209496000Y-111436000I0J164000D01*
G01*
X210726000Y-111436000D02*
G75*
G02*
X210562000Y-111600000I-164000J0D01*
G01*
X208020000Y-111600000D02*
G75*
G02*
X207856000Y-111436000I0J164000D01*
G01*
X215444000Y-106844000D02*
G75*
G02*
X215608000Y-106680000I164000J0D01*
G01*
X212366000Y-111436000D02*
G75*
G02*
X212202000Y-111600000I-164000J0D01*
G01*
X216876000Y-110564000D02*
G75*
G03*
X216712000Y-110400000I-164000J0D01*
G01*
X212120000Y-111600000D02*
G75*
G02*
X211956000Y-111436000I0J164000D01*
G01*
X208430000Y-110400000D02*
G75*
G03*
X208266000Y-110564000I0J-164000D01*
G01*
X219500000Y-111250000D02*
G75*
G02*
X219336000Y-111086000I0J164000D01*
G01*
X218513449Y-110215530D02*
G75*
G03*
X218745380Y-110215531I115966J115967D01*
G01*
X212820000Y-107530000D02*
G75*
G03*
X212984000Y-107366000I0J164000D01*
G01*
X205150000Y-110750000D02*
G75*
G03*
X204986000Y-110914000I0J-164000D01*
G01*
X207036000Y-110564000D02*
G75*
G03*
X206872000Y-110400000I-164000J0D01*
G01*
X217954835Y-108686766D02*
G75*
G02*
X218186766Y-108686765I115966J-115967D01*
G01*
X217040000Y-111600000D02*
G75*
G02*
X216876000Y-111436000I0J164000D01*
G01*
X211136000Y-110564000D02*
G75*
G03*
X210972000Y-110400000I-164000J0D01*
G01*
X216056000Y-110564000D02*
G75*
G03*
X215892000Y-110400000I-164000J0D01*
G01*
X218270000Y-110850000D02*
G75*
G03*
X218106000Y-111014000I0J-164000D01*
G01*
X216466000Y-111436000D02*
G75*
G02*
X216302000Y-111600000I-164000J0D01*
G01*
X205560000Y-111600000D02*
G75*
G02*
X205396000Y-111436000I0J164000D01*
G01*
X211956000Y-110564000D02*
G75*
G03*
X211792000Y-110400000I-164000J0D01*
G01*
X207200000Y-111600000D02*
G75*
G02*
X207036000Y-111436000I0J164000D01*
G01*
X215236000Y-110564000D02*
G75*
G03*
X215072000Y-110400000I-164000J0D01*
G01*
X208840000Y-111600000D02*
G75*
G02*
X208676000Y-111436000I0J164000D01*
G01*
X210890000Y-110400000D02*
G75*
G03*
X210726000Y-110564000I0J-164000D01*
G01*
X206216000Y-110564000D02*
G75*
G03*
X206052000Y-110400000I-164000J0D01*
G01*
X212940000Y-111600000D02*
G75*
G02*
X212776000Y-111436000I0J164000D01*
G01*
X206380000Y-111600000D02*
G75*
G02*
X206216000Y-111436000I0J164000D01*
G01*
X219636333Y-109904401D02*
G75*
G03*
X219636300Y-110136366I115967J-115999D01*
G01*
X218534662Y-109266593D02*
G75*
G02*
X218766593Y-109266592I115966J-115967D01*
G01*
X214050000Y-106130000D02*
G75*
G02*
X214214000Y-106294000I0J-164000D01*
G01*
X214624000Y-106294000D02*
G75*
G02*
X214788000Y-106130000I164000J0D01*
G01*
X205396000Y-110914000D02*
G75*
G03*
X205232000Y-110750000I-164000J0D01*
G01*
X213760000Y-111600000D02*
G75*
G02*
X213596000Y-111436000I0J164000D01*
G01*
X215646000Y-111436000D02*
G75*
G02*
X215482000Y-111600000I-164000J0D01*
G01*
X208676000Y-110564000D02*
G75*
G03*
X208512000Y-110400000I-164000J0D01*
G01*
X212530000Y-110400000D02*
G75*
G03*
X212366000Y-110564000I0J-164000D01*
G01*
X219336000Y-110964000D02*
G75*
G03*
X219172000Y-110800000I-164000J0D01*
G01*
X211546000Y-111436000D02*
G75*
G02*
X211382000Y-111600000I-164000J0D01*
G01*
X217860000Y-111600000D02*
G75*
G02*
X217696000Y-111436000I0J164000D01*
G01*
X217696000Y-110564000D02*
G75*
G03*
X217532000Y-110400000I-164000J0D01*
G01*
X210316000Y-110564000D02*
G75*
G03*
X210152000Y-110400000I-164000J0D01*
G01*
X216773968Y-108476049D02*
G75*
G03*
X217005899Y-108476050I115966J115967D01*
G01*
X213804000Y-106294000D02*
G75*
G02*
X213968000Y-106130000I164000J0D01*
G01*
X216715986Y-108186136D02*
G75*
G03*
X216715987Y-108418066I116014J-115964D01*
G01*
X213350000Y-110400000D02*
G75*
G03*
X213186000Y-110564000I0J-164000D01*
G01*
X214214000Y-107366000D02*
G75*
G03*
X214378000Y-107530000I164000J0D01*
G01*
X213640000Y-107530000D02*
G75*
G03*
X213804000Y-107366000I0J164000D01*
G01*
X210070000Y-110400000D02*
G75*
G03*
X209906000Y-110564000I0J-164000D01*
G01*
X212574000Y-107366000D02*
G75*
G03*
X212738000Y-107530000I164000J0D01*
G01*
X217450000Y-110400000D02*
G75*
G03*
X217286000Y-110564000I0J-164000D01*
G01*
X218516000Y-111014000D02*
G75*
G03*
X218352000Y-110850000I-164000J0D01*
G01*
X204986000Y-111086000D02*
G75*
G02*
X204822000Y-111250000I-164000J0D01*
G01*
X207856000Y-110564000D02*
G75*
G03*
X207692000Y-110400000I-164000J0D01*
G01*
X207610000Y-110400000D02*
G75*
G03*
X207446000Y-110564000I0J-164000D01*
G01*
X217664923Y-108164923D02*
G75*
G02*
X217664935Y-108396866I-115923J-115977D01*
G01*
X215280000Y-107530000D02*
G75*
G03*
X215444000Y-107366000I0J164000D01*
G01*
X205970000Y-110400000D02*
G75*
G03*
X205806000Y-110564000I0J-164000D01*
G01*
X209250000Y-110400000D02*
G75*
G03*
X209086000Y-110564000I0J-164000D01*
G01*
X214580000Y-111600000D02*
G75*
G02*
X214416000Y-111436000I0J164000D01*
G01*
X218824577Y-109324577D02*
G75*
G02*
X218824535Y-109556465I-115977J-115923D01*
G01*
X217353795Y-109055876D02*
G75*
G03*
X217585726Y-109055877I115966J115967D01*
G01*
X211300000Y-111600000D02*
G75*
G02*
X211136000Y-111436000I0J164000D01*
G01*
X217375008Y-108106939D02*
G75*
G02*
X217606939Y-108106938I115966J-115967D01*
G01*
X216136159Y-107606309D02*
G75*
G03*
X216136133Y-107838266I115941J-115991D01*
G01*
X209906000Y-111436000D02*
G75*
G02*
X209742000Y-111600000I-164000J0D01*
G01*
X217295813Y-108765963D02*
G75*
G03*
X217295841Y-108997866I115987J-115937D01*
G01*
X214990000Y-110400000D02*
G75*
G03*
X214826000Y-110564000I0J-164000D01*
G01*
X212410000Y-105830000D02*
G75*
G02*
X212574000Y-105994000I0J-164000D01*
G01*
X206626000Y-111436000D02*
G75*
G02*
X206462000Y-111600000I-164000J0D01*
G01*
X211710000Y-110400000D02*
G75*
G03*
X211546000Y-110564000I0J-164000D01*
G01*
X212776000Y-110564000D02*
G75*
G03*
X212612000Y-110400000I-164000J0D01*
G01*
X205806000Y-111436000D02*
G75*
G02*
X205642000Y-111600000I-164000J0D01*
G01*
X214826000Y-111436000D02*
G75*
G02*
X214662000Y-111600000I-164000J0D01*
G01*
X213596000Y-110564000D02*
G75*
G03*
X213432000Y-110400000I-164000J0D01*
G01*
X218680000Y-111600000D02*
G75*
G02*
X218516000Y-111436000I0J164000D01*
G01*
X217875640Y-109345790D02*
G75*
G03*
X217875595Y-109577765I115960J-116010D01*
G01*
X212984000Y-106144000D02*
G75*
G02*
X213148000Y-105980000I164000J0D01*
G01*
X214870000Y-106130000D02*
G75*
G02*
X215034000Y-106294000I0J-164000D01*
G01*
X214460000Y-107530000D02*
G75*
G03*
X214624000Y-107366000I0J164000D01*
G01*
X213230000Y-105980000D02*
G75*
G02*
X213394000Y-106144000I0J-164000D01*
G01*
X219090000Y-110800000D02*
G75*
G03*
X218926000Y-110964000I0J-164000D01*
G01*
X220005443Y-109303361D02*
G75*
G02*
X220005417Y-109535265I-115943J-115939D01*
G01*
X216194141Y-107896222D02*
G75*
G03*
X216426072Y-107896223I115966J115967D01*
G01*
X206790000Y-110400000D02*
G75*
G03*
X206626000Y-110564000I0J-164000D01*
G01*
X207446000Y-111436000D02*
G75*
G02*
X207282000Y-111600000I-164000J0D01*
G01*
X216505269Y-107005269D02*
G75*
G02*
X216505235Y-107237165I-115969J-115931D01*
G01*
X219715529Y-109245378D02*
G75*
G02*
X219947467Y-109245374I115971J-115922D01*
G01*
X210480000Y-111600000D02*
G75*
G02*
X210316000Y-111436000I0J164000D01*
G01*
X216630000Y-110400000D02*
G75*
G03*
X216466000Y-110564000I0J-164000D01*
G01*
X213186000Y-111436000D02*
G75*
G02*
X213022000Y-111600000I-164000J0D01*
G01*
X216795181Y-107527112D02*
G75*
G02*
X217027112Y-107527112I115965J-115967D01*
G01*
X209496000Y-110564000D02*
G75*
G03*
X209332000Y-110400000I-164000J0D01*
G01*
X215034000Y-107366000D02*
G75*
G03*
X215198000Y-107530000I164000J0D01*
G01*
X218455467Y-109925617D02*
G75*
G03*
X218455449Y-110157566I115933J-115983D01*
G01*
X218926000Y-111436000D02*
G75*
G02*
X218762000Y-111600000I-164000J0D01*
G01*
X213394000Y-107366000D02*
G75*
G03*
X213558000Y-107530000I164000J0D01*
G01*
X208266000Y-111436000D02*
G75*
G02*
X208102000Y-111600000I-164000J0D01*
G01*
X216220000Y-111600000D02*
G75*
G02*
X216056000Y-111436000I0J164000D01*
G01*
X212000000Y-106680000D02*
G75*
G03*
X212164000Y-106516000I0J164000D01*
G01*
%TO.N,D3*%
X218636811Y-98708096D02*
X218362453Y-98982453D01*
X218495392Y-99935636D02*
X218427509Y-99867753D01*
X221012701Y-100812457D02*
X220944818Y-100744574D01*
X222370353Y-102170109D02*
X222302470Y-102102226D01*
X219994463Y-100065748D02*
X219720105Y-100340105D01*
X222568348Y-104008592D02*
X222500465Y-103940709D01*
X222030941Y-102102226D02*
X221756583Y-102376583D01*
X219315637Y-99386922D02*
X219041279Y-99661279D01*
X216458914Y-97899158D02*
X216391031Y-97831275D01*
X215101262Y-96541506D02*
X215033379Y-96473623D01*
X219720105Y-100340105D02*
X219445746Y-100614461D01*
X218976223Y-98775979D02*
X218908340Y-98708096D01*
X219041279Y-99661279D02*
X218766920Y-99935635D01*
X222095996Y-102715996D02*
X222370353Y-102441638D01*
X203900000Y-114000000D02*
X222000000Y-114000000D01*
X221352115Y-101423400D02*
X221077757Y-101697757D01*
X214563855Y-94635140D02*
X214425262Y-94773732D01*
X221142812Y-102311527D02*
X221417170Y-102037170D01*
X203500000Y-95000000D02*
X199940000Y-91440000D01*
X215780088Y-97220332D02*
X215712205Y-97152449D01*
X217137740Y-98577984D02*
X217069857Y-98510101D01*
X221756583Y-102376583D02*
X221482224Y-102650939D01*
X218427508Y-99596223D02*
X218701866Y-99321866D01*
X216391030Y-97559745D02*
X216665388Y-97285388D01*
X219655049Y-99454805D02*
X219587166Y-99386922D01*
X213644720Y-94264720D02*
X213360000Y-93980000D01*
X215307736Y-95927736D02*
X215582093Y-95653378D01*
X214085851Y-94705851D02*
X213644720Y-94264720D01*
X222978470Y-103870000D02*
X222839876Y-104008591D01*
X217683627Y-98303627D02*
X217409268Y-98577983D01*
X218023040Y-98643040D02*
X218297397Y-98368682D01*
X219853044Y-101293288D02*
X219785161Y-101225405D01*
X215921507Y-95992792D02*
X215647149Y-96267149D01*
X221821638Y-102990353D02*
X222095996Y-102715996D01*
X220463986Y-101632701D02*
X220738344Y-101358344D01*
X223250000Y-112750000D02*
X223250000Y-104140000D01*
X217344214Y-97964214D02*
X217618571Y-97689856D01*
X219106334Y-100275049D02*
X219380692Y-100000692D01*
X216939745Y-96739501D02*
X216871862Y-96671618D01*
X222709767Y-102781052D02*
X222435409Y-103055409D01*
X220673289Y-100744574D02*
X220398931Y-101018931D01*
X218362453Y-98982453D02*
X218088094Y-99256809D01*
X217004801Y-97624801D02*
X216730442Y-97899157D01*
X219785160Y-100953875D02*
X220059518Y-100679518D01*
X220059518Y-100679518D02*
X220333875Y-100405160D01*
X217069856Y-98238571D02*
X217344214Y-97964214D01*
X213360000Y-93980000D02*
X210820000Y-93980000D01*
X218297397Y-98097153D02*
X218229514Y-98029270D01*
X214153733Y-94773732D02*
X214085851Y-94705851D01*
X221417170Y-102037170D02*
X221691527Y-101762812D01*
X221889522Y-103329766D02*
X221821639Y-103261883D01*
X219380692Y-100000692D02*
X219655049Y-99726334D01*
X221691527Y-101491283D02*
X221623644Y-101423400D01*
X222639057Y-103530587D02*
X222774822Y-103394822D01*
X218701866Y-99321866D02*
X218976223Y-99047508D01*
X199940000Y-91440000D02*
X198120000Y-91440000D01*
X222435409Y-103055409D02*
X222161050Y-103329765D01*
X215582093Y-95381849D02*
X215514210Y-95313966D01*
X214764674Y-95113145D02*
X214903267Y-94974552D01*
X215712204Y-96880919D02*
X215986562Y-96606562D01*
X214968323Y-95588323D02*
X214693964Y-95862679D01*
X220333875Y-100133631D02*
X220265992Y-100065748D01*
X220531870Y-101972114D02*
X220463987Y-101904231D01*
X221077757Y-101697757D02*
X220803398Y-101972113D01*
X214422436Y-95862680D02*
X214354553Y-95794797D01*
X222774822Y-103394822D02*
X223049179Y-103120464D01*
X203500000Y-110500000D02*
X203500000Y-95000000D01*
X222000000Y-114000000D02*
X223250000Y-112750000D01*
X216325975Y-96945975D02*
X216051616Y-97220331D01*
X220398931Y-101018931D02*
X220124572Y-101293287D01*
X219174218Y-100614462D02*
X219106335Y-100546579D01*
X217957985Y-98029270D02*
X217683627Y-98303627D01*
X215242681Y-95313966D02*
X214968323Y-95588323D01*
X222500464Y-103669179D02*
X222639057Y-103530587D01*
X217816566Y-99256810D02*
X217748683Y-99188927D01*
X217748682Y-98917397D02*
X218023040Y-98643040D01*
X220738344Y-101358344D02*
X221012701Y-101083986D01*
X215986562Y-96606562D02*
X216260919Y-96332204D01*
X223250000Y-104140000D02*
X223250000Y-103870000D01*
X223049179Y-102848935D02*
X222981296Y-102781052D01*
X216665388Y-97285388D02*
X216939745Y-97011030D01*
X214903267Y-94703023D02*
X214835384Y-94635140D01*
X217279159Y-97350444D02*
X217004801Y-97624801D01*
X214628910Y-95248910D02*
X214764674Y-95113145D01*
X215647149Y-96267149D02*
X215372790Y-96541505D01*
X216260919Y-96060675D02*
X216193036Y-95992792D01*
X221210696Y-102650940D02*
X221142813Y-102583057D01*
X217618571Y-97418327D02*
X217550688Y-97350444D01*
X215033378Y-96202093D02*
X215307736Y-95927736D01*
X216600333Y-96671618D02*
X216325975Y-96945975D01*
X214354552Y-95523267D02*
X214628910Y-95248910D01*
X215033379Y-96473623D02*
G75*
G02*
X215033420Y-96202136I135721J135723D01*
G01*
X215582093Y-95653378D02*
G75*
G03*
X215582107Y-95381836I-135793J135778D01*
G01*
X216871862Y-96671618D02*
G75*
G03*
X216600334Y-96671618I-135764J-135763D01*
G01*
X218229514Y-98029270D02*
G75*
G03*
X217957986Y-98029270I-135764J-135763D01*
G01*
X216260919Y-96332204D02*
G75*
G03*
X216260959Y-96060635I-135719J135804D01*
G01*
X217748683Y-99188927D02*
G75*
G02*
X217748720Y-98917436I135717J135727D01*
G01*
X218976223Y-99047508D02*
G75*
G03*
X218976267Y-98775935I-135723J135808D01*
G01*
X219587166Y-99386922D02*
G75*
G03*
X219315638Y-99386922I-135764J-135763D01*
G01*
X214693964Y-95862679D02*
G75*
G02*
X214422436Y-95862679I-135764J135779D01*
G01*
X215514210Y-95313966D02*
G75*
G03*
X215242682Y-95313966I-135764J-135763D01*
G01*
X222370353Y-102441638D02*
G75*
G03*
X222370327Y-102170136I-135753J135738D01*
G01*
X216391031Y-97831275D02*
G75*
G02*
X216391020Y-97559736I135769J135775D01*
G01*
X220803398Y-101972113D02*
G75*
G02*
X220531836Y-101972148I-135798J135713D01*
G01*
X217409268Y-98577983D02*
G75*
G02*
X217137737Y-98577987I-135768J135783D01*
G01*
X222839876Y-104008591D02*
G75*
G02*
X222568337Y-104008604I-135776J135791D01*
G01*
X223250000Y-103870000D02*
G75*
G03*
X222978470Y-103870000I-135765J-135761D01*
G01*
X218088094Y-99256809D02*
G75*
G02*
X217816537Y-99256840I-135794J135809D01*
G01*
X214835384Y-94635140D02*
G75*
G03*
X214563856Y-94635140I-135764J-135763D01*
G01*
X218766920Y-99935635D02*
G75*
G02*
X218495437Y-99935592I-135720J135735D01*
G01*
X220944818Y-100744574D02*
G75*
G03*
X220673290Y-100744574I-135764J-135763D01*
G01*
X215372790Y-96541505D02*
G75*
G02*
X215101237Y-96541532I-135790J135805D01*
G01*
X222981296Y-102781052D02*
G75*
G03*
X222709768Y-102781052I-135764J-135763D01*
G01*
X216051616Y-97220331D02*
G75*
G02*
X215780137Y-97220284I-135716J135731D01*
G01*
X223049179Y-103120464D02*
G75*
G03*
X223049179Y-102848935I-135779J135764D01*
G01*
X214354553Y-95794797D02*
G75*
G02*
X214354520Y-95523235I135747J135797D01*
G01*
X216193036Y-95992792D02*
G75*
G03*
X215921506Y-95992791I-135765J-135763D01*
G01*
X219785161Y-101225405D02*
G75*
G02*
X219785120Y-100953835I135739J135805D01*
G01*
X215712205Y-97152449D02*
G75*
G02*
X215712220Y-96880935I135795J135749D01*
G01*
X216730442Y-97899157D02*
G75*
G02*
X216458937Y-97899136I-135742J135757D01*
G01*
X222500465Y-103940709D02*
G75*
G02*
X222500420Y-103669135I135735J135809D01*
G01*
X218297397Y-98368682D02*
G75*
G03*
X218297415Y-98097136I-135797J135782D01*
G01*
X216939745Y-97011030D02*
G75*
G03*
X216939711Y-96739536I-135745J135730D01*
G01*
X218908340Y-98708096D02*
G75*
G03*
X218636810Y-98708095I-135765J-135763D01*
G01*
X221142813Y-102583057D02*
G75*
G02*
X221142820Y-102311535I135787J135757D01*
G01*
X218427509Y-99867753D02*
G75*
G02*
X218427520Y-99596235I135791J135753D01*
G01*
X221821639Y-103261883D02*
G75*
G02*
X221821620Y-102990336I135761J135783D01*
G01*
X220265992Y-100065748D02*
G75*
G03*
X219994462Y-100065747I-135765J-135763D01*
G01*
X214425262Y-94773732D02*
G75*
G02*
X214153734Y-94773732I-135764J135763D01*
G01*
X221623644Y-101423400D02*
G75*
G03*
X221352114Y-101423399I-135765J-135763D01*
G01*
X221012701Y-101083986D02*
G75*
G03*
X221012723Y-100812436I-135801J135786D01*
G01*
X219445746Y-100614461D02*
G75*
G02*
X219174237Y-100614444I-135746J135761D01*
G01*
X219655049Y-99726334D02*
G75*
G03*
X219655019Y-99454836I-135749J135734D01*
G01*
X214903267Y-94974552D02*
G75*
G03*
X214903255Y-94703036I-135767J135752D01*
G01*
X221482224Y-102650939D02*
G75*
G02*
X221210737Y-102650900I-135724J135739D01*
G01*
X220463987Y-101904231D02*
G75*
G02*
X220464020Y-101632735I135813J135731D01*
G01*
X222161050Y-103329765D02*
G75*
G02*
X221889537Y-103329752I-135750J135765D01*
G01*
X220333875Y-100405160D02*
G75*
G03*
X220333871Y-100133635I-135775J135760D01*
G01*
X217618571Y-97689856D02*
G75*
G03*
X217618563Y-97418335I-135771J135756D01*
G01*
X217069857Y-98510101D02*
G75*
G02*
X217069820Y-98238535I135743J135801D01*
G01*
X221691527Y-101762812D02*
G75*
G03*
X221691575Y-101491235I-135727J135812D01*
G01*
X220124572Y-101293287D02*
G75*
G02*
X219853037Y-101293296I-135772J135787D01*
G01*
X222302470Y-102102226D02*
G75*
G03*
X222030942Y-102102226I-135764J-135763D01*
G01*
X217550688Y-97350444D02*
G75*
G03*
X217279160Y-97350444I-135764J-135763D01*
G01*
X219106335Y-100546579D02*
G75*
G02*
X219106320Y-100275036I135765J135779D01*
G01*
%TO.N,SCL*%
X205710000Y-61000000D02*
X200750000Y-61000000D01*
X205750000Y-60960000D02*
X205710000Y-61000000D01*
%TO.N,XLK*%
X228600000Y-91440000D02*
X233680000Y-91440000D01*
X194750000Y-110250000D02*
X193750000Y-109250000D01*
X198000000Y-110750000D02*
X197500000Y-110250000D01*
X193750000Y-109250000D02*
X193750000Y-100890000D01*
X197500000Y-110250000D02*
X194750000Y-110250000D01*
X193750000Y-100890000D02*
X195580000Y-99060000D01*
%TO.N,Net-(J2-Pin_9)*%
X228600000Y-78740000D02*
X233680000Y-78740000D01*
D14*
%TO.N,Net-(J2-Pin_2)*%
X228600000Y-60960000D02*
X233680000Y-60960000D01*
D13*
%TO.N,Net-(J2-Pin_16)*%
X228600000Y-96520000D02*
X233680000Y-96520000D01*
D14*
%TO.N,Net-(J2-Pin_4)*%
X228600000Y-66040000D02*
X233680000Y-66040000D01*
D13*
%TO.N,Net-(J2-Pin_17)*%
X228600000Y-99060000D02*
X233680000Y-99060000D01*
%TO.N,Net-(J2-Pin_6)*%
X228600000Y-71120000D02*
X233680000Y-71120000D01*
%TO.N,Net-(J2-Pin_12)*%
X228600000Y-86360000D02*
X233680000Y-86360000D01*
D14*
%TO.N,Net-(J2-Pin_1)*%
X228600000Y-58420000D02*
X233680000Y-58420000D01*
D13*
%TO.N,Net-(J2-Pin_20)*%
X228600000Y-106680000D02*
X233680000Y-106680000D01*
%TO.N,Net-(J2-Pin_15)*%
X228600000Y-93980000D02*
X233680000Y-93980000D01*
%TO.N,Net-(J2-Pin_7)*%
X228600000Y-73660000D02*
X233680000Y-73660000D01*
%TO.N,Net-(J2-Pin_10)*%
X228600000Y-81280000D02*
X233680000Y-81280000D01*
%TO.N,Net-(J2-Pin_19)*%
X228600000Y-104140000D02*
X233680000Y-104140000D01*
%TO.N,Net-(J2-Pin_11)*%
X228600000Y-83820000D02*
X233680000Y-83820000D01*
%TD*%
%TA.AperFunction,Conductor*%
%TO.N,GND*%
G36*
X200286942Y-97140185D02*
G01*
X200307584Y-97156819D01*
X200863181Y-97712416D01*
X200896666Y-97773739D01*
X200899500Y-97800097D01*
X200899500Y-110538330D01*
X200899499Y-110538348D01*
X200899499Y-110704054D01*
X200899498Y-110704054D01*
X200940424Y-110856789D01*
X200940425Y-110856790D01*
X200964120Y-110897830D01*
X200964121Y-110897831D01*
X201019477Y-110993712D01*
X201019481Y-110993717D01*
X201138349Y-111112585D01*
X201138355Y-111112590D01*
X201213584Y-111187819D01*
X201247069Y-111249142D01*
X201242085Y-111318834D01*
X201200213Y-111374767D01*
X201134749Y-111399184D01*
X201125903Y-111399500D01*
X198761661Y-111399500D01*
X198694622Y-111379815D01*
X198648867Y-111327011D01*
X198638923Y-111257853D01*
X198656668Y-111209527D01*
X198725788Y-111099524D01*
X198725789Y-111099522D01*
X198785368Y-110929255D01*
X198793533Y-110856789D01*
X198805565Y-110750003D01*
X198805565Y-110749996D01*
X198785369Y-110570750D01*
X198785368Y-110570745D01*
X198774032Y-110538348D01*
X198725789Y-110400478D01*
X198629816Y-110247738D01*
X198502262Y-110120184D01*
X198439849Y-110080967D01*
X198349521Y-110024210D01*
X198179249Y-109964630D01*
X198092332Y-109954837D01*
X198027918Y-109927770D01*
X198018535Y-109919298D01*
X197980523Y-109881286D01*
X197980520Y-109881284D01*
X197868717Y-109769481D01*
X197868709Y-109769475D01*
X197756010Y-109704409D01*
X197756009Y-109704408D01*
X197738982Y-109694578D01*
X197731785Y-109690423D01*
X197579057Y-109649499D01*
X197420943Y-109649499D01*
X197413347Y-109649499D01*
X197413331Y-109649500D01*
X195050098Y-109649500D01*
X194983059Y-109629815D01*
X194962417Y-109613181D01*
X194386819Y-109037583D01*
X194353334Y-108976260D01*
X194350500Y-108949902D01*
X194350500Y-108100695D01*
X194370185Y-108033656D01*
X194422989Y-107987901D01*
X194492147Y-107977957D01*
X194517834Y-107984513D01*
X194622623Y-108023597D01*
X194622627Y-108023598D01*
X194682155Y-108029999D01*
X194682172Y-108030000D01*
X195330000Y-108030000D01*
X195330000Y-107113012D01*
X195387007Y-107145925D01*
X195514174Y-107180000D01*
X195645826Y-107180000D01*
X195772993Y-107145925D01*
X195830000Y-107113012D01*
X195830000Y-108030000D01*
X196477828Y-108030000D01*
X196477844Y-108029999D01*
X196537372Y-108023598D01*
X196537379Y-108023596D01*
X196672086Y-107973354D01*
X196672093Y-107973350D01*
X196787187Y-107887190D01*
X196787190Y-107887187D01*
X196873350Y-107772093D01*
X196873354Y-107772086D01*
X196922422Y-107640529D01*
X196964293Y-107584595D01*
X197029757Y-107560178D01*
X197098030Y-107575030D01*
X197126285Y-107596181D01*
X197248599Y-107718495D01*
X197325135Y-107772086D01*
X197442165Y-107854032D01*
X197442167Y-107854033D01*
X197442170Y-107854035D01*
X197656337Y-107953903D01*
X197884592Y-108015063D01*
X198055319Y-108030000D01*
X198119999Y-108035659D01*
X198120000Y-108035659D01*
X198120001Y-108035659D01*
X198184681Y-108030000D01*
X198355408Y-108015063D01*
X198583663Y-107953903D01*
X198797830Y-107854035D01*
X198991401Y-107718495D01*
X199158495Y-107551401D01*
X199294035Y-107357830D01*
X199393903Y-107143663D01*
X199455063Y-106915408D01*
X199475659Y-106680000D01*
X199455063Y-106444592D01*
X199393903Y-106216337D01*
X199294035Y-106002171D01*
X199294034Y-106002169D01*
X199158494Y-105808597D01*
X198991402Y-105641506D01*
X198991396Y-105641501D01*
X198805842Y-105511575D01*
X198762217Y-105456998D01*
X198755023Y-105387500D01*
X198786546Y-105325145D01*
X198805842Y-105308425D01*
X198913284Y-105233193D01*
X198991401Y-105178495D01*
X199158495Y-105011401D01*
X199294035Y-104817830D01*
X199393903Y-104603663D01*
X199455063Y-104375408D01*
X199475659Y-104140000D01*
X199455063Y-103904592D01*
X199393903Y-103676337D01*
X199294035Y-103462171D01*
X199294034Y-103462169D01*
X199158494Y-103268597D01*
X198991402Y-103101506D01*
X198991396Y-103101501D01*
X198805842Y-102971575D01*
X198762217Y-102916998D01*
X198755023Y-102847500D01*
X198786546Y-102785145D01*
X198805842Y-102768425D01*
X198981962Y-102645104D01*
X198991401Y-102638495D01*
X199158495Y-102471401D01*
X199294035Y-102277830D01*
X199393903Y-102063663D01*
X199455063Y-101835408D01*
X199475659Y-101600000D01*
X199455063Y-101364592D01*
X199404159Y-101174615D01*
X199393905Y-101136344D01*
X199393904Y-101136343D01*
X199393903Y-101136337D01*
X199294035Y-100922171D01*
X199288425Y-100914158D01*
X199158494Y-100728597D01*
X198991402Y-100561506D01*
X198991396Y-100561501D01*
X198805842Y-100431575D01*
X198762217Y-100376998D01*
X198755023Y-100307500D01*
X198786546Y-100245145D01*
X198805842Y-100228425D01*
X198885732Y-100172485D01*
X198991401Y-100098495D01*
X199158495Y-99931401D01*
X199294035Y-99737830D01*
X199393903Y-99523663D01*
X199455063Y-99295408D01*
X199475659Y-99060000D01*
X199455063Y-98824592D01*
X199393903Y-98596337D01*
X199294035Y-98382171D01*
X199294034Y-98382169D01*
X199158494Y-98188597D01*
X198991402Y-98021506D01*
X198991396Y-98021501D01*
X198805842Y-97891575D01*
X198762217Y-97836998D01*
X198755023Y-97767500D01*
X198786546Y-97705145D01*
X198805842Y-97688425D01*
X198854476Y-97654371D01*
X198991401Y-97558495D01*
X199158495Y-97391401D01*
X199294035Y-97197830D01*
X199296707Y-97192097D01*
X199342878Y-97139658D01*
X199409091Y-97120500D01*
X200219903Y-97120500D01*
X200286942Y-97140185D01*
G37*
%TD.AperFunction*%
%TA.AperFunction,Conductor*%
G36*
X212656166Y-99680185D02*
G01*
X212701921Y-99732989D01*
X212711865Y-99802147D01*
X212709841Y-99811251D01*
X212709962Y-99811275D01*
X212679223Y-99965699D01*
X212679199Y-100117060D01*
X212690214Y-100172485D01*
X212708703Y-100265521D01*
X212766599Y-100405373D01*
X212841147Y-100516995D01*
X212845413Y-100523858D01*
X212848365Y-100528971D01*
X212848366Y-100528972D01*
X212848367Y-100528973D01*
X212903839Y-100584445D01*
X212904167Y-100584773D01*
X212955712Y-100636343D01*
X212955713Y-100636343D01*
X212960855Y-100641488D01*
X212961083Y-100641690D01*
X213006445Y-100687052D01*
X213019566Y-100700173D01*
X213024757Y-100703170D01*
X213031642Y-100707451D01*
X213143055Y-100781894D01*
X213249404Y-100825945D01*
X213303806Y-100869786D01*
X213316501Y-100893028D01*
X213360663Y-100999578D01*
X213360666Y-100999585D01*
X213434978Y-101110738D01*
X213439278Y-101117649D01*
X213442330Y-101122935D01*
X213442516Y-101123178D01*
X213499380Y-101179986D01*
X213499423Y-101180029D01*
X213613532Y-101294139D01*
X213618723Y-101297136D01*
X213625608Y-101301417D01*
X213737021Y-101375860D01*
X213812215Y-101407007D01*
X213843402Y-101419925D01*
X213897805Y-101463766D01*
X213910508Y-101487029D01*
X213954579Y-101593423D01*
X213954582Y-101593428D01*
X213954584Y-101593431D01*
X214029013Y-101704818D01*
X214033300Y-101711711D01*
X214036298Y-101716905D01*
X214036300Y-101716907D01*
X214038685Y-101719292D01*
X214038688Y-101719296D01*
X214069218Y-101749825D01*
X214102703Y-101811144D01*
X214097721Y-101880836D01*
X214055851Y-101936771D01*
X214012015Y-101954639D01*
X214012754Y-101957399D01*
X213997381Y-101961516D01*
X213989517Y-101963350D01*
X213862041Y-101988730D01*
X213771435Y-102026277D01*
X213701966Y-102033756D01*
X213676529Y-102026291D01*
X213585714Y-101988690D01*
X213585712Y-101988689D01*
X213585711Y-101988689D01*
X213516395Y-101974913D01*
X213459053Y-101963518D01*
X213451136Y-101961673D01*
X213443026Y-101959500D01*
X213442910Y-101959485D01*
X213364364Y-101959499D01*
X213364117Y-101959485D01*
X213356763Y-101959486D01*
X213356762Y-101959486D01*
X213342210Y-101959488D01*
X213335247Y-101959490D01*
X213335138Y-101959458D01*
X213205041Y-101959482D01*
X213204908Y-101959500D01*
X213197381Y-101961516D01*
X213189517Y-101963350D01*
X213062042Y-101988730D01*
X212923659Y-102046075D01*
X212923655Y-102046077D01*
X212799129Y-102129306D01*
X212799120Y-102129313D01*
X212693215Y-102235239D01*
X212693208Y-102235248D01*
X212610006Y-102359788D01*
X212609999Y-102359802D01*
X212552687Y-102498183D01*
X212552686Y-102498187D01*
X212527465Y-102624995D01*
X212525626Y-102632883D01*
X212523468Y-102640940D01*
X212523467Y-102640949D01*
X212523468Y-102684560D01*
X212523468Y-103415500D01*
X212503783Y-103482539D01*
X212450979Y-103528294D01*
X212399468Y-103539500D01*
X212109091Y-103539500D01*
X212042052Y-103519815D01*
X211996711Y-103467909D01*
X211994037Y-103462175D01*
X211994034Y-103462170D01*
X211994033Y-103462169D01*
X211912921Y-103346327D01*
X211858494Y-103268597D01*
X211691402Y-103101506D01*
X211691401Y-103101505D01*
X211505405Y-102971269D01*
X211461781Y-102916692D01*
X211454588Y-102847193D01*
X211486110Y-102784839D01*
X211505405Y-102768119D01*
X211691082Y-102638105D01*
X211858105Y-102471082D01*
X211993600Y-102277578D01*
X212093429Y-102063492D01*
X212093432Y-102063486D01*
X212150636Y-101850000D01*
X211253012Y-101850000D01*
X211285925Y-101792993D01*
X211320000Y-101665826D01*
X211320000Y-101534174D01*
X211285925Y-101407007D01*
X211253012Y-101350000D01*
X212150636Y-101350000D01*
X212150635Y-101349999D01*
X212093432Y-101136513D01*
X212093429Y-101136507D01*
X211993600Y-100922422D01*
X211993599Y-100922420D01*
X211858113Y-100728926D01*
X211858108Y-100728920D01*
X211691078Y-100561890D01*
X211505405Y-100431879D01*
X211461780Y-100377302D01*
X211454588Y-100307804D01*
X211486110Y-100245449D01*
X211505406Y-100228730D01*
X211585732Y-100172485D01*
X211691401Y-100098495D01*
X211858495Y-99931401D01*
X211994035Y-99737830D01*
X211996707Y-99732097D01*
X212042878Y-99679658D01*
X212109091Y-99660500D01*
X212589127Y-99660500D01*
X212656166Y-99680185D01*
G37*
%TD.AperFunction*%
%TA.AperFunction,Conductor*%
G36*
X232457948Y-99680185D02*
G01*
X232503292Y-99732097D01*
X232505965Y-99737830D01*
X232641501Y-99931396D01*
X232641506Y-99931402D01*
X232808597Y-100098493D01*
X232808603Y-100098498D01*
X232994594Y-100228730D01*
X233038219Y-100283307D01*
X233045413Y-100352805D01*
X233013890Y-100415160D01*
X232994595Y-100431880D01*
X232808922Y-100561890D01*
X232808920Y-100561891D01*
X232641891Y-100728920D01*
X232641886Y-100728926D01*
X232506400Y-100922420D01*
X232506399Y-100922422D01*
X232406570Y-101136507D01*
X232406567Y-101136513D01*
X232349364Y-101349999D01*
X232349364Y-101350000D01*
X233246988Y-101350000D01*
X233214075Y-101407007D01*
X233180000Y-101534174D01*
X233180000Y-101665826D01*
X233214075Y-101792993D01*
X233246988Y-101850000D01*
X232349364Y-101850000D01*
X232406567Y-102063486D01*
X232406570Y-102063492D01*
X232506399Y-102277578D01*
X232641894Y-102471082D01*
X232808917Y-102638105D01*
X232994595Y-102768119D01*
X233038219Y-102822696D01*
X233045412Y-102892195D01*
X233013890Y-102954549D01*
X232994595Y-102971269D01*
X232808594Y-103101508D01*
X232641506Y-103268596D01*
X232505965Y-103462170D01*
X232505962Y-103462175D01*
X232503289Y-103467909D01*
X232457115Y-103520346D01*
X232390909Y-103539500D01*
X229889091Y-103539500D01*
X229822052Y-103519815D01*
X229776711Y-103467909D01*
X229774037Y-103462175D01*
X229774034Y-103462170D01*
X229774033Y-103462169D01*
X229692921Y-103346327D01*
X229638494Y-103268597D01*
X229471402Y-103101506D01*
X229471401Y-103101505D01*
X229285405Y-102971269D01*
X229241781Y-102916692D01*
X229234588Y-102847193D01*
X229266110Y-102784839D01*
X229285405Y-102768119D01*
X229471082Y-102638105D01*
X229638105Y-102471082D01*
X229773600Y-102277578D01*
X229873429Y-102063492D01*
X229873432Y-102063486D01*
X229930636Y-101850000D01*
X229033012Y-101850000D01*
X229065925Y-101792993D01*
X229100000Y-101665826D01*
X229100000Y-101534174D01*
X229065925Y-101407007D01*
X229033012Y-101350000D01*
X229930636Y-101350000D01*
X229930635Y-101349999D01*
X229873432Y-101136513D01*
X229873429Y-101136507D01*
X229773600Y-100922422D01*
X229773599Y-100922420D01*
X229638113Y-100728926D01*
X229638108Y-100728920D01*
X229471078Y-100561890D01*
X229285405Y-100431879D01*
X229241780Y-100377302D01*
X229234588Y-100307804D01*
X229266110Y-100245449D01*
X229285406Y-100228730D01*
X229365732Y-100172485D01*
X229471401Y-100098495D01*
X229638495Y-99931401D01*
X229774035Y-99737830D01*
X229776707Y-99732097D01*
X229822878Y-99679658D01*
X229889091Y-99660500D01*
X232390909Y-99660500D01*
X232457948Y-99680185D01*
G37*
%TD.AperFunction*%
%TA.AperFunction,Conductor*%
G36*
X213126942Y-86980185D02*
G01*
X213147584Y-86996819D01*
X214170510Y-88019745D01*
X214205382Y-88054618D01*
X214205382Y-88054617D01*
X214261383Y-88110620D01*
X214262069Y-88111164D01*
X214264800Y-88112860D01*
X214369323Y-88182705D01*
X214414127Y-88236319D01*
X214422832Y-88305644D01*
X214422047Y-88309992D01*
X214400789Y-88416880D01*
X214400789Y-88416881D01*
X214400791Y-88575548D01*
X214400792Y-88575550D01*
X214431745Y-88731159D01*
X214431746Y-88731161D01*
X214492468Y-88877755D01*
X214551315Y-88965826D01*
X214580616Y-89009678D01*
X214580816Y-89009878D01*
X214834299Y-89263361D01*
X214837059Y-89265277D01*
X214838303Y-89266174D01*
X214840132Y-89267236D01*
X214966167Y-89351450D01*
X215112758Y-89412170D01*
X215183037Y-89426149D01*
X215244947Y-89458533D01*
X215279521Y-89519248D01*
X215280465Y-89523589D01*
X215294410Y-89593742D01*
X215294411Y-89593745D01*
X215317318Y-89649072D01*
X215355098Y-89740324D01*
X215355099Y-89740325D01*
X215441862Y-89870231D01*
X215442853Y-89871819D01*
X215443224Y-89872286D01*
X215443483Y-89872545D01*
X215443484Y-89872546D01*
X215499268Y-89928330D01*
X215499281Y-89928354D01*
X215499287Y-89928349D01*
X215509431Y-89938498D01*
X215556041Y-89985128D01*
X215556258Y-89985320D01*
X215696967Y-90126029D01*
X215699727Y-90127945D01*
X215700971Y-90128842D01*
X215702800Y-90129904D01*
X215828835Y-90214118D01*
X215975426Y-90274838D01*
X216045654Y-90288807D01*
X216107564Y-90321191D01*
X216142138Y-90381907D01*
X216143075Y-90386213D01*
X216157086Y-90456592D01*
X216157088Y-90456598D01*
X216217840Y-90603189D01*
X216217843Y-90603194D01*
X216306032Y-90735119D01*
X216306033Y-90735120D01*
X216306036Y-90735124D01*
X216344704Y-90773774D01*
X216344710Y-90773782D01*
X216364006Y-90793068D01*
X216364005Y-90793068D01*
X216364028Y-90793090D01*
X216559635Y-90988697D01*
X216562395Y-90990613D01*
X216563639Y-90991510D01*
X216565468Y-90992572D01*
X216691503Y-91076786D01*
X216838094Y-91137506D01*
X216908346Y-91151479D01*
X216970255Y-91183862D01*
X217004830Y-91244577D01*
X217005771Y-91248901D01*
X217019752Y-91319178D01*
X217080474Y-91465766D01*
X217080476Y-91465770D01*
X217163346Y-91589787D01*
X217168630Y-91597694D01*
X217214962Y-91644024D01*
X217214964Y-91644026D01*
X217422303Y-91851365D01*
X217425063Y-91853281D01*
X217426307Y-91854178D01*
X217428136Y-91855240D01*
X217554171Y-91939454D01*
X217700762Y-92000174D01*
X217771039Y-92014152D01*
X217832947Y-92046536D01*
X217867522Y-92107251D01*
X217868465Y-92111587D01*
X217881348Y-92176390D01*
X217882416Y-92181759D01*
X217882417Y-92181764D01*
X217943106Y-92328339D01*
X218029907Y-92458296D01*
X218030876Y-92459847D01*
X218031231Y-92460293D01*
X218031487Y-92460549D01*
X218031488Y-92460550D01*
X218087303Y-92516365D01*
X218087320Y-92516382D01*
X218144124Y-92573208D01*
X218144314Y-92573376D01*
X218284971Y-92714033D01*
X218287731Y-92715949D01*
X218288975Y-92716846D01*
X218290804Y-92717908D01*
X218416839Y-92802122D01*
X218563430Y-92862842D01*
X218633654Y-92876810D01*
X218695563Y-92909194D01*
X218730138Y-92969909D01*
X218731075Y-92974212D01*
X218745092Y-93044613D01*
X218805852Y-93191213D01*
X218894048Y-93323139D01*
X218950170Y-93379232D01*
X218950169Y-93379232D01*
X218950192Y-93379254D01*
X219147639Y-93576701D01*
X219150399Y-93578617D01*
X219151643Y-93579514D01*
X219153472Y-93580576D01*
X219279507Y-93664790D01*
X219426098Y-93725510D01*
X219496345Y-93739482D01*
X219558256Y-93771867D01*
X219592830Y-93832583D01*
X219593770Y-93836903D01*
X219607753Y-93907186D01*
X219668484Y-94053784D01*
X219668487Y-94053789D01*
X219756644Y-94185712D01*
X219795299Y-94224362D01*
X219795309Y-94224377D01*
X219817124Y-94246186D01*
X220010307Y-94439369D01*
X220013067Y-94441285D01*
X220014311Y-94442182D01*
X220016140Y-94443244D01*
X220142175Y-94527458D01*
X220288766Y-94588178D01*
X220359039Y-94602155D01*
X220420948Y-94634538D01*
X220455523Y-94695253D01*
X220456466Y-94699591D01*
X220470418Y-94769768D01*
X220470422Y-94769778D01*
X220531112Y-94916349D01*
X220531115Y-94916357D01*
X220617833Y-95046179D01*
X220618865Y-95047834D01*
X220619227Y-95048289D01*
X220619491Y-95048553D01*
X220619492Y-95048554D01*
X220675304Y-95104366D01*
X220675313Y-95104384D01*
X220675318Y-95104380D01*
X220675319Y-95104381D01*
X220726868Y-95155948D01*
X220726869Y-95155949D01*
X220732159Y-95161240D01*
X220732323Y-95161385D01*
X220872975Y-95302037D01*
X220875735Y-95303953D01*
X220876979Y-95304850D01*
X220878808Y-95305912D01*
X221004843Y-95390126D01*
X221151434Y-95450846D01*
X221221655Y-95464813D01*
X221283563Y-95497197D01*
X221318138Y-95557912D01*
X221319074Y-95562213D01*
X221333094Y-95632621D01*
X221333096Y-95632625D01*
X221388418Y-95766097D01*
X221393861Y-95779227D01*
X221393861Y-95779228D01*
X221482061Y-95911154D01*
X221537287Y-95966349D01*
X221537286Y-95966349D01*
X221537311Y-95966373D01*
X221735643Y-96164705D01*
X221738403Y-96166621D01*
X221739647Y-96167518D01*
X221741475Y-96168580D01*
X221747216Y-96172416D01*
X221867511Y-96252794D01*
X222014102Y-96313514D01*
X222169718Y-96344468D01*
X222169721Y-96344469D01*
X222169723Y-96344469D01*
X222328393Y-96344469D01*
X222409743Y-96328286D01*
X222435196Y-96323224D01*
X222504788Y-96329451D01*
X222559965Y-96372314D01*
X222562486Y-96375944D01*
X222634569Y-96483811D01*
X222688089Y-96537324D01*
X224113181Y-97962416D01*
X224146666Y-98023739D01*
X224149500Y-98050097D01*
X224149500Y-101080902D01*
X224129815Y-101147941D01*
X224077011Y-101193696D01*
X224007853Y-101203640D01*
X223944297Y-101174615D01*
X223937820Y-101168584D01*
X223888717Y-101119482D01*
X223885996Y-101116761D01*
X223852511Y-101055438D01*
X223852063Y-101004877D01*
X223882176Y-100853583D01*
X223882200Y-100687056D01*
X223849739Y-100523724D01*
X223805001Y-100415659D01*
X223786040Y-100369858D01*
X223739711Y-100300492D01*
X223693552Y-100231379D01*
X223693546Y-100231373D01*
X223693427Y-100231227D01*
X223690492Y-100228292D01*
X223634708Y-100172508D01*
X223634695Y-100172485D01*
X223634691Y-100172490D01*
X223577951Y-100115724D01*
X223577842Y-100115628D01*
X223564823Y-100102612D01*
X223564736Y-100102453D01*
X223469604Y-100007350D01*
X223469601Y-100007348D01*
X223331121Y-99914846D01*
X223331120Y-99914845D01*
X223331117Y-99914843D01*
X223331116Y-99914843D01*
X223177240Y-99851127D01*
X223108463Y-99837454D01*
X223064531Y-99828721D01*
X223002617Y-99796343D01*
X222968036Y-99735631D01*
X222967094Y-99731304D01*
X222961305Y-99702217D01*
X222944642Y-99618488D01*
X222944641Y-99618485D01*
X222944641Y-99618484D01*
X222880899Y-99464633D01*
X222880899Y-99464632D01*
X222788369Y-99326166D01*
X222788368Y-99326165D01*
X222788366Y-99326162D01*
X222729489Y-99267289D01*
X222680482Y-99218282D01*
X222680392Y-99218180D01*
X222659737Y-99197529D01*
X222659664Y-99197396D01*
X222564527Y-99102279D01*
X222564523Y-99102276D01*
X222426033Y-99009761D01*
X222272157Y-98946041D01*
X222272155Y-98946040D01*
X222272145Y-98946038D01*
X222159429Y-98923627D01*
X222097515Y-98891247D01*
X222062936Y-98830535D01*
X222061995Y-98826209D01*
X222039548Y-98713411D01*
X222039547Y-98713410D01*
X222039547Y-98713407D01*
X221975810Y-98559553D01*
X221883287Y-98421087D01*
X221856398Y-98394198D01*
X221824409Y-98362209D01*
X221775259Y-98313058D01*
X221775205Y-98312996D01*
X221754648Y-98292441D01*
X221754593Y-98292341D01*
X221718326Y-98256080D01*
X221718327Y-98256080D01*
X221659438Y-98197200D01*
X221654587Y-98193959D01*
X221520954Y-98104682D01*
X221520945Y-98104678D01*
X221367073Y-98040955D01*
X221367066Y-98040953D01*
X221254357Y-98018542D01*
X221192443Y-97986161D01*
X221157865Y-97925447D01*
X221156926Y-97921130D01*
X221134460Y-97808261D01*
X221134459Y-97808258D01*
X221087123Y-97694035D01*
X221070687Y-97654373D01*
X220978113Y-97515888D01*
X220920405Y-97458205D01*
X220870176Y-97407976D01*
X220870139Y-97407934D01*
X220849562Y-97387358D01*
X220849519Y-97387280D01*
X220812431Y-97350196D01*
X220754354Y-97292124D01*
X220754351Y-97292121D01*
X220754349Y-97292120D01*
X220615870Y-97199600D01*
X220615869Y-97199599D01*
X220615867Y-97199598D01*
X220512575Y-97156819D01*
X220461993Y-97135870D01*
X220461984Y-97135867D01*
X220349254Y-97113449D01*
X220287341Y-97081067D01*
X220252765Y-97020353D01*
X220251835Y-97016083D01*
X220229364Y-96903178D01*
X220223371Y-96888716D01*
X220188510Y-96804586D01*
X220165598Y-96749294D01*
X220165597Y-96749292D01*
X220165596Y-96749290D01*
X220073034Y-96610812D01*
X220073031Y-96610809D01*
X220030590Y-96568385D01*
X220014127Y-96551927D01*
X220014128Y-96551927D01*
X220011184Y-96548984D01*
X219966776Y-96504576D01*
X219966764Y-96504562D01*
X219943366Y-96481165D01*
X219943339Y-96481116D01*
X219849269Y-96387047D01*
X219710791Y-96294522D01*
X219710781Y-96294516D01*
X219556907Y-96230783D01*
X219556904Y-96230782D01*
X219444152Y-96208357D01*
X219382241Y-96175973D01*
X219347665Y-96115258D01*
X219346726Y-96110940D01*
X219324270Y-95998098D01*
X219317969Y-95982892D01*
X219260509Y-95844215D01*
X219217072Y-95779227D01*
X219167948Y-95705731D01*
X219110799Y-95648599D01*
X219039390Y-95577190D01*
X219039377Y-95577167D01*
X218944190Y-95481975D01*
X218944189Y-95481974D01*
X218805704Y-95389438D01*
X218805703Y-95389437D01*
X218805701Y-95389436D01*
X218651824Y-95325697D01*
X218651818Y-95325695D01*
X218539050Y-95303264D01*
X218477139Y-95270879D01*
X218442565Y-95210163D01*
X218441632Y-95205874D01*
X218419176Y-95093017D01*
X218409744Y-95070252D01*
X218355419Y-94939133D01*
X218262867Y-94800653D01*
X218262866Y-94800652D01*
X218231974Y-94769768D01*
X218206627Y-94744427D01*
X218086171Y-94623971D01*
X218086167Y-94623965D01*
X218086167Y-94623966D01*
X218039104Y-94576898D01*
X218039099Y-94576894D01*
X217900620Y-94484356D01*
X217900618Y-94484355D01*
X217746741Y-94420611D01*
X217633949Y-94398173D01*
X217572039Y-94365786D01*
X217537466Y-94305070D01*
X217536534Y-94300784D01*
X217514082Y-94187937D01*
X217450332Y-94034057D01*
X217357783Y-93895573D01*
X217357482Y-93895272D01*
X217357477Y-93895263D01*
X217298889Y-93836689D01*
X217298890Y-93836689D01*
X217294542Y-93832342D01*
X217136965Y-93674765D01*
X217136964Y-93674764D01*
X217134032Y-93671832D01*
X217134021Y-93671823D01*
X217134018Y-93671820D01*
X217134014Y-93671817D01*
X217134010Y-93671814D01*
X216995540Y-93579274D01*
X216907052Y-93542616D01*
X216841658Y-93515525D01*
X216841655Y-93515524D01*
X216841652Y-93515523D01*
X216841653Y-93515523D01*
X216728848Y-93493080D01*
X216666939Y-93460693D01*
X216632367Y-93399975D01*
X216631435Y-93395693D01*
X216608988Y-93282856D01*
X216602923Y-93268216D01*
X216545244Y-93128980D01*
X216545238Y-93128969D01*
X216452704Y-92990499D01*
X216452703Y-92990498D01*
X216452701Y-92990495D01*
X216402040Y-92939840D01*
X216231871Y-92769671D01*
X216228987Y-92766787D01*
X216228934Y-92766744D01*
X216090452Y-92674193D01*
X215936575Y-92610439D01*
X215823746Y-92587988D01*
X215761838Y-92555598D01*
X215727268Y-92494880D01*
X215726329Y-92490563D01*
X215703895Y-92377781D01*
X215703894Y-92377775D01*
X215703892Y-92377770D01*
X215703891Y-92377766D01*
X215640156Y-92223903D01*
X215640155Y-92223901D01*
X215640154Y-92223899D01*
X215547618Y-92085416D01*
X215488731Y-92026531D01*
X215488730Y-92026530D01*
X215488730Y-92026529D01*
X215488729Y-92026529D01*
X215323950Y-91861750D01*
X215323854Y-91861671D01*
X215314232Y-91855240D01*
X215185370Y-91769111D01*
X215185369Y-91769110D01*
X215185367Y-91769109D01*
X215031493Y-91705353D01*
X215031490Y-91705352D01*
X214918645Y-91682896D01*
X214856737Y-91650506D01*
X214822168Y-91589787D01*
X214821238Y-91585511D01*
X214798798Y-91472687D01*
X214735061Y-91318812D01*
X214735060Y-91318811D01*
X214735057Y-91318805D01*
X214642530Y-91180329D01*
X214583643Y-91121444D01*
X214583643Y-91121443D01*
X214559586Y-91097387D01*
X214450637Y-90988438D01*
X214450635Y-90988435D01*
X214418701Y-90956500D01*
X214418699Y-90956498D01*
X214280224Y-90863972D01*
X214280214Y-90863967D01*
X214126347Y-90800233D01*
X214126339Y-90800231D01*
X213963002Y-90767741D01*
X213962998Y-90767741D01*
X213796448Y-90767741D01*
X213796443Y-90767741D01*
X213633106Y-90800230D01*
X213633106Y-90800231D01*
X213633103Y-90800232D01*
X213633099Y-90800233D01*
X213541658Y-90838108D01*
X213476534Y-90845109D01*
X213476514Y-90845452D01*
X213474487Y-90845329D01*
X213472191Y-90845576D01*
X213471860Y-90845515D01*
X213467740Y-90844760D01*
X213444730Y-90841019D01*
X213439059Y-90839500D01*
X213439057Y-90839500D01*
X213381883Y-90839500D01*
X213374396Y-90839274D01*
X213323480Y-90836194D01*
X213323475Y-90836194D01*
X213316519Y-90837469D01*
X213294169Y-90839500D01*
X212109091Y-90839500D01*
X212042052Y-90819815D01*
X211996711Y-90767909D01*
X211994037Y-90762175D01*
X211994034Y-90762170D01*
X211994033Y-90762169D01*
X211880591Y-90600155D01*
X211858494Y-90568597D01*
X211691402Y-90401506D01*
X211691401Y-90401505D01*
X211505405Y-90271269D01*
X211461781Y-90216692D01*
X211454588Y-90147193D01*
X211486110Y-90084839D01*
X211505405Y-90068119D01*
X211691082Y-89938105D01*
X211858105Y-89771082D01*
X211993600Y-89577578D01*
X212093429Y-89363492D01*
X212093432Y-89363486D01*
X212150636Y-89150000D01*
X211253012Y-89150000D01*
X211285925Y-89092993D01*
X211320000Y-88965826D01*
X211320000Y-88834174D01*
X211285925Y-88707007D01*
X211253012Y-88650000D01*
X212150636Y-88650000D01*
X212150635Y-88649999D01*
X212093432Y-88436513D01*
X212093429Y-88436507D01*
X211993600Y-88222422D01*
X211993599Y-88222420D01*
X211858113Y-88028926D01*
X211858108Y-88028920D01*
X211691078Y-87861890D01*
X211505405Y-87731879D01*
X211461780Y-87677302D01*
X211454588Y-87607804D01*
X211486110Y-87545449D01*
X211505406Y-87528730D01*
X211506279Y-87528119D01*
X211691401Y-87398495D01*
X211858495Y-87231401D01*
X211994035Y-87037830D01*
X211996707Y-87032097D01*
X212042878Y-86979658D01*
X212109091Y-86960500D01*
X213059903Y-86960500D01*
X213126942Y-86980185D01*
G37*
%TD.AperFunction*%
%TA.AperFunction,Conductor*%
G36*
X232457948Y-86980185D02*
G01*
X232503292Y-87032097D01*
X232505965Y-87037830D01*
X232641504Y-87231400D01*
X232641506Y-87231402D01*
X232808597Y-87398493D01*
X232808603Y-87398498D01*
X232994594Y-87528730D01*
X233038219Y-87583307D01*
X233045413Y-87652805D01*
X233013890Y-87715160D01*
X232994595Y-87731880D01*
X232808922Y-87861890D01*
X232808920Y-87861891D01*
X232641891Y-88028920D01*
X232641886Y-88028926D01*
X232506400Y-88222420D01*
X232506399Y-88222422D01*
X232406570Y-88436507D01*
X232406567Y-88436513D01*
X232349364Y-88649999D01*
X232349364Y-88650000D01*
X233246988Y-88650000D01*
X233214075Y-88707007D01*
X233180000Y-88834174D01*
X233180000Y-88965826D01*
X233214075Y-89092993D01*
X233246988Y-89150000D01*
X232349364Y-89150000D01*
X232406567Y-89363486D01*
X232406570Y-89363492D01*
X232506399Y-89577578D01*
X232641894Y-89771082D01*
X232808917Y-89938105D01*
X232994595Y-90068119D01*
X233038219Y-90122696D01*
X233045412Y-90192195D01*
X233013890Y-90254549D01*
X232994595Y-90271269D01*
X232808594Y-90401508D01*
X232641506Y-90568596D01*
X232505965Y-90762170D01*
X232505962Y-90762175D01*
X232503289Y-90767909D01*
X232457115Y-90820346D01*
X232390909Y-90839500D01*
X229889091Y-90839500D01*
X229822052Y-90819815D01*
X229776711Y-90767909D01*
X229774037Y-90762175D01*
X229774034Y-90762170D01*
X229774033Y-90762169D01*
X229660591Y-90600155D01*
X229638494Y-90568597D01*
X229471402Y-90401506D01*
X229471401Y-90401505D01*
X229285405Y-90271269D01*
X229241781Y-90216692D01*
X229234588Y-90147193D01*
X229266110Y-90084839D01*
X229285405Y-90068119D01*
X229471082Y-89938105D01*
X229638105Y-89771082D01*
X229773600Y-89577578D01*
X229873429Y-89363492D01*
X229873432Y-89363486D01*
X229930636Y-89150000D01*
X229033012Y-89150000D01*
X229065925Y-89092993D01*
X229100000Y-88965826D01*
X229100000Y-88834174D01*
X229065925Y-88707007D01*
X229033012Y-88650000D01*
X229930636Y-88650000D01*
X229930635Y-88649999D01*
X229873432Y-88436513D01*
X229873429Y-88436507D01*
X229773600Y-88222422D01*
X229773599Y-88222420D01*
X229638113Y-88028926D01*
X229638108Y-88028920D01*
X229471078Y-87861890D01*
X229285405Y-87731879D01*
X229241780Y-87677302D01*
X229234588Y-87607804D01*
X229266110Y-87545449D01*
X229285406Y-87528730D01*
X229286279Y-87528119D01*
X229471401Y-87398495D01*
X229638495Y-87231401D01*
X229774035Y-87037830D01*
X229776707Y-87032097D01*
X229822878Y-86979658D01*
X229889091Y-86960500D01*
X232390909Y-86960500D01*
X232457948Y-86980185D01*
G37*
%TD.AperFunction*%
%TA.AperFunction,Conductor*%
G36*
X232457948Y-74280185D02*
G01*
X232503292Y-74332097D01*
X232505965Y-74337830D01*
X232505966Y-74337831D01*
X232641501Y-74531395D01*
X232641506Y-74531402D01*
X232808597Y-74698493D01*
X232808603Y-74698498D01*
X232994594Y-74828730D01*
X233038219Y-74883307D01*
X233045413Y-74952805D01*
X233013890Y-75015160D01*
X232994595Y-75031880D01*
X232808922Y-75161890D01*
X232808920Y-75161891D01*
X232641891Y-75328920D01*
X232641886Y-75328926D01*
X232506400Y-75522420D01*
X232506399Y-75522422D01*
X232406570Y-75736507D01*
X232406567Y-75736513D01*
X232349364Y-75949999D01*
X232349364Y-75950000D01*
X233246988Y-75950000D01*
X233214075Y-76007007D01*
X233180000Y-76134174D01*
X233180000Y-76265826D01*
X233214075Y-76392993D01*
X233246988Y-76450000D01*
X232349364Y-76450000D01*
X232406567Y-76663486D01*
X232406570Y-76663492D01*
X232506399Y-76877578D01*
X232641894Y-77071082D01*
X232808917Y-77238105D01*
X232994595Y-77368119D01*
X233038219Y-77422696D01*
X233045412Y-77492195D01*
X233013890Y-77554549D01*
X232994595Y-77571269D01*
X232808594Y-77701508D01*
X232641506Y-77868596D01*
X232505965Y-78062170D01*
X232505962Y-78062175D01*
X232503289Y-78067909D01*
X232457115Y-78120346D01*
X232390909Y-78139500D01*
X229889091Y-78139500D01*
X229822052Y-78119815D01*
X229776711Y-78067909D01*
X229774037Y-78062175D01*
X229774034Y-78062170D01*
X229774033Y-78062169D01*
X229638495Y-77868599D01*
X229638494Y-77868597D01*
X229471402Y-77701506D01*
X229471401Y-77701505D01*
X229285405Y-77571269D01*
X229241781Y-77516692D01*
X229234588Y-77447193D01*
X229266110Y-77384839D01*
X229285405Y-77368119D01*
X229471082Y-77238105D01*
X229638105Y-77071082D01*
X229773600Y-76877578D01*
X229873429Y-76663492D01*
X229873432Y-76663486D01*
X229930636Y-76450000D01*
X229033012Y-76450000D01*
X229065925Y-76392993D01*
X229100000Y-76265826D01*
X229100000Y-76134174D01*
X229065925Y-76007007D01*
X229033012Y-75950000D01*
X229930636Y-75950000D01*
X229930635Y-75949999D01*
X229873432Y-75736513D01*
X229873429Y-75736507D01*
X229773600Y-75522422D01*
X229773599Y-75522420D01*
X229638113Y-75328926D01*
X229638108Y-75328920D01*
X229471078Y-75161890D01*
X229285405Y-75031879D01*
X229241780Y-74977302D01*
X229234588Y-74907804D01*
X229266110Y-74845449D01*
X229285406Y-74828730D01*
X229471401Y-74698495D01*
X229638495Y-74531401D01*
X229774035Y-74337830D01*
X229776707Y-74332097D01*
X229822878Y-74279658D01*
X229889091Y-74260500D01*
X232390909Y-74260500D01*
X232457948Y-74280185D01*
G37*
%TD.AperFunction*%
%TA.AperFunction,Conductor*%
G36*
X232594348Y-61780185D02*
G01*
X232628884Y-61813376D01*
X232641508Y-61831405D01*
X232808597Y-61998493D01*
X232808603Y-61998498D01*
X232994594Y-62128730D01*
X233038219Y-62183307D01*
X233045413Y-62252805D01*
X233013890Y-62315160D01*
X232994595Y-62331880D01*
X232808922Y-62461890D01*
X232808920Y-62461891D01*
X232641891Y-62628920D01*
X232641886Y-62628926D01*
X232506400Y-62822420D01*
X232506399Y-62822422D01*
X232406570Y-63036507D01*
X232406567Y-63036513D01*
X232349364Y-63249999D01*
X232349364Y-63250000D01*
X233246988Y-63250000D01*
X233214075Y-63307007D01*
X233180000Y-63434174D01*
X233180000Y-63565826D01*
X233214075Y-63692993D01*
X233246988Y-63750000D01*
X232349364Y-63750000D01*
X232406567Y-63963486D01*
X232406570Y-63963492D01*
X232506399Y-64177578D01*
X232641894Y-64371082D01*
X232808917Y-64538105D01*
X232994595Y-64668119D01*
X233038219Y-64722696D01*
X233045412Y-64792195D01*
X233013890Y-64854549D01*
X232994595Y-64871269D01*
X232808594Y-65001508D01*
X232641508Y-65168594D01*
X232628884Y-65186624D01*
X232574307Y-65230248D01*
X232527309Y-65239500D01*
X229752691Y-65239500D01*
X229685652Y-65219815D01*
X229651116Y-65186624D01*
X229638491Y-65168594D01*
X229471402Y-65001506D01*
X229471401Y-65001505D01*
X229285405Y-64871269D01*
X229241781Y-64816692D01*
X229234588Y-64747193D01*
X229266110Y-64684839D01*
X229285405Y-64668119D01*
X229471082Y-64538105D01*
X229638105Y-64371082D01*
X229773600Y-64177578D01*
X229873429Y-63963492D01*
X229873432Y-63963486D01*
X229930636Y-63750000D01*
X229033012Y-63750000D01*
X229065925Y-63692993D01*
X229100000Y-63565826D01*
X229100000Y-63434174D01*
X229065925Y-63307007D01*
X229033012Y-63250000D01*
X229930636Y-63250000D01*
X229930635Y-63249999D01*
X229873432Y-63036513D01*
X229873429Y-63036507D01*
X229773600Y-62822422D01*
X229773599Y-62822420D01*
X229638113Y-62628926D01*
X229638108Y-62628920D01*
X229471078Y-62461890D01*
X229285405Y-62331879D01*
X229241780Y-62277302D01*
X229234588Y-62207804D01*
X229266110Y-62145449D01*
X229285406Y-62128730D01*
X229471401Y-61998495D01*
X229638495Y-61831401D01*
X229651116Y-61813375D01*
X229705693Y-61769752D01*
X229752691Y-61760500D01*
X232527309Y-61760500D01*
X232594348Y-61780185D01*
G37*
%TD.AperFunction*%
%TA.AperFunction,Conductor*%
G36*
X236163039Y-53359685D02*
G01*
X236208794Y-53412489D01*
X236220000Y-53464000D01*
X236220000Y-119256000D01*
X236200315Y-119323039D01*
X236147511Y-119368794D01*
X236096000Y-119380000D01*
X179194000Y-119380000D01*
X179126961Y-119360315D01*
X179081206Y-119307511D01*
X179070000Y-119256000D01*
X179070000Y-96142135D01*
X183939500Y-96142135D01*
X183939500Y-97937870D01*
X183939501Y-97937876D01*
X183945908Y-97997483D01*
X183996202Y-98132328D01*
X183996206Y-98132335D01*
X184082452Y-98247544D01*
X184082455Y-98247547D01*
X184197664Y-98333793D01*
X184197671Y-98333797D01*
X184332517Y-98384091D01*
X184332516Y-98384091D01*
X184339444Y-98384835D01*
X184392127Y-98390500D01*
X186187872Y-98390499D01*
X186247483Y-98384091D01*
X186382331Y-98333796D01*
X186497546Y-98247546D01*
X186583796Y-98132331D01*
X186632810Y-98000916D01*
X186674681Y-97944984D01*
X186740145Y-97920566D01*
X186808418Y-97935417D01*
X186836673Y-97956569D01*
X186958599Y-98078495D01*
X187055384Y-98146265D01*
X187152165Y-98214032D01*
X187152167Y-98214033D01*
X187152170Y-98214035D01*
X187366337Y-98313903D01*
X187594592Y-98375063D01*
X187771034Y-98390500D01*
X187829999Y-98395659D01*
X187830000Y-98395659D01*
X187830001Y-98395659D01*
X187888966Y-98390500D01*
X188065408Y-98375063D01*
X188293663Y-98313903D01*
X188507830Y-98214035D01*
X188701401Y-98078495D01*
X188868495Y-97911401D01*
X189004035Y-97717830D01*
X189103903Y-97503663D01*
X189165063Y-97275408D01*
X189185659Y-97040000D01*
X189165063Y-96804592D01*
X189103903Y-96576337D01*
X189004035Y-96362171D01*
X188996830Y-96351880D01*
X188868494Y-96168597D01*
X188701402Y-96001506D01*
X188701395Y-96001501D01*
X188507834Y-95865967D01*
X188507830Y-95865965D01*
X188456812Y-95842175D01*
X188293663Y-95766097D01*
X188293659Y-95766096D01*
X188293655Y-95766094D01*
X188065413Y-95704938D01*
X188065403Y-95704936D01*
X187830001Y-95684341D01*
X187829999Y-95684341D01*
X187594596Y-95704936D01*
X187594586Y-95704938D01*
X187366344Y-95766094D01*
X187366335Y-95766098D01*
X187152171Y-95865964D01*
X187152169Y-95865965D01*
X186958600Y-96001503D01*
X186836673Y-96123430D01*
X186775350Y-96156914D01*
X186705658Y-96151930D01*
X186649725Y-96110058D01*
X186632810Y-96079081D01*
X186583797Y-95947671D01*
X186583793Y-95947664D01*
X186497547Y-95832455D01*
X186497544Y-95832452D01*
X186382335Y-95746206D01*
X186382328Y-95746202D01*
X186247482Y-95695908D01*
X186247483Y-95695908D01*
X186187883Y-95689501D01*
X186187881Y-95689500D01*
X186187873Y-95689500D01*
X186187864Y-95689500D01*
X184392129Y-95689500D01*
X184392123Y-95689501D01*
X184332516Y-95695908D01*
X184197671Y-95746202D01*
X184197664Y-95746206D01*
X184082455Y-95832452D01*
X184082452Y-95832455D01*
X183996206Y-95947664D01*
X183996202Y-95947671D01*
X183945908Y-96082517D01*
X183939501Y-96142116D01*
X183939500Y-96142135D01*
X179070000Y-96142135D01*
X179070000Y-91232135D01*
X181219500Y-91232135D01*
X181219500Y-93027870D01*
X181219501Y-93027876D01*
X181225908Y-93087483D01*
X181276202Y-93222328D01*
X181276206Y-93222335D01*
X181362452Y-93337544D01*
X181362455Y-93337547D01*
X181477664Y-93423793D01*
X181477671Y-93423797D01*
X181612517Y-93474091D01*
X181612516Y-93474091D01*
X181619444Y-93474835D01*
X181672127Y-93480500D01*
X183467872Y-93480499D01*
X183527483Y-93474091D01*
X183662331Y-93423796D01*
X183777546Y-93337546D01*
X183863796Y-93222331D01*
X183912810Y-93090916D01*
X183954681Y-93034984D01*
X184020145Y-93010566D01*
X184088418Y-93025417D01*
X184116673Y-93046569D01*
X184238599Y-93168495D01*
X184325210Y-93229141D01*
X184432165Y-93304032D01*
X184432167Y-93304033D01*
X184432170Y-93304035D01*
X184646337Y-93403903D01*
X184874592Y-93465063D01*
X185051034Y-93480500D01*
X185109999Y-93485659D01*
X185110000Y-93485659D01*
X185110001Y-93485659D01*
X185168966Y-93480500D01*
X185345408Y-93465063D01*
X185573663Y-93403903D01*
X185787830Y-93304035D01*
X185981401Y-93168495D01*
X186148495Y-93001401D01*
X186284035Y-92807830D01*
X186383903Y-92593663D01*
X186445063Y-92365408D01*
X186465659Y-92130000D01*
X186445063Y-91894592D01*
X186383903Y-91666337D01*
X186284035Y-91452171D01*
X186275513Y-91439999D01*
X186148494Y-91258597D01*
X185981402Y-91091506D01*
X185981395Y-91091501D01*
X185962616Y-91078352D01*
X185904518Y-91037671D01*
X185787834Y-90955967D01*
X185787830Y-90955965D01*
X185787828Y-90955964D01*
X185573663Y-90856097D01*
X185573659Y-90856096D01*
X185573655Y-90856094D01*
X185345413Y-90794938D01*
X185345403Y-90794936D01*
X185110001Y-90774341D01*
X185109999Y-90774341D01*
X184874596Y-90794936D01*
X184874586Y-90794938D01*
X184646344Y-90856094D01*
X184646335Y-90856098D01*
X184432171Y-90955964D01*
X184432169Y-90955965D01*
X184238600Y-91091503D01*
X184116673Y-91213430D01*
X184055350Y-91246914D01*
X183985658Y-91241930D01*
X183929725Y-91200058D01*
X183912810Y-91169081D01*
X183863797Y-91037671D01*
X183863793Y-91037664D01*
X183777547Y-90922455D01*
X183777544Y-90922452D01*
X183662335Y-90836206D01*
X183662328Y-90836202D01*
X183527482Y-90785908D01*
X183527483Y-90785908D01*
X183467883Y-90779501D01*
X183467881Y-90779500D01*
X183467873Y-90779500D01*
X183467864Y-90779500D01*
X181672129Y-90779500D01*
X181672123Y-90779501D01*
X181612516Y-90785908D01*
X181477671Y-90836202D01*
X181477664Y-90836206D01*
X181362455Y-90922452D01*
X181362452Y-90922455D01*
X181276206Y-91037664D01*
X181276202Y-91037671D01*
X181225908Y-91172517D01*
X181219501Y-91232116D01*
X181219500Y-91232135D01*
X179070000Y-91232135D01*
X179070000Y-84284998D01*
X184409435Y-84284998D01*
X184409435Y-84285001D01*
X184413720Y-84323029D01*
X184414500Y-84336914D01*
X184414500Y-84363844D01*
X184422288Y-84403003D01*
X184423890Y-84413303D01*
X184429632Y-84464252D01*
X184429633Y-84464260D01*
X184437976Y-84488104D01*
X184442550Y-84504860D01*
X184445262Y-84518496D01*
X184465509Y-84567377D01*
X184467988Y-84573872D01*
X184489212Y-84634524D01*
X184495709Y-84644865D01*
X184505268Y-84663365D01*
X184505603Y-84664173D01*
X184505605Y-84664179D01*
X184542223Y-84718982D01*
X184544114Y-84721900D01*
X184585180Y-84787257D01*
X184585182Y-84787260D01*
X184585184Y-84787262D01*
X184712738Y-84914816D01*
X184778096Y-84955883D01*
X184778131Y-84955905D01*
X184781040Y-84957790D01*
X184835821Y-84994394D01*
X184836606Y-84994719D01*
X184855134Y-85004289D01*
X184865478Y-85010789D01*
X184926175Y-85032028D01*
X184932607Y-85034484D01*
X184953172Y-85043002D01*
X184981497Y-85054735D01*
X184981498Y-85054735D01*
X184981503Y-85054737D01*
X184995139Y-85057449D01*
X185011898Y-85062023D01*
X185035745Y-85070368D01*
X185086714Y-85076110D01*
X185096992Y-85077709D01*
X185124140Y-85083109D01*
X185136157Y-85085500D01*
X185136158Y-85085500D01*
X185163085Y-85085500D01*
X185176969Y-85086280D01*
X185214998Y-85090565D01*
X185215000Y-85090565D01*
X185215002Y-85090565D01*
X185253031Y-85086280D01*
X185266915Y-85085500D01*
X185293841Y-85085500D01*
X185293842Y-85085500D01*
X185333017Y-85077707D01*
X185343283Y-85076110D01*
X185394255Y-85070368D01*
X185418100Y-85062023D01*
X185434862Y-85057448D01*
X185448497Y-85054737D01*
X185497389Y-85034484D01*
X185503837Y-85032023D01*
X185564522Y-85010789D01*
X185574868Y-85004287D01*
X185593390Y-84994720D01*
X185594179Y-84994394D01*
X185648987Y-84957771D01*
X185651825Y-84955931D01*
X185717262Y-84914816D01*
X185844816Y-84787262D01*
X187045259Y-83586819D01*
X187106582Y-83553334D01*
X187132940Y-83550500D01*
X197195500Y-83550500D01*
X197262539Y-83570185D01*
X197308294Y-83622989D01*
X197319500Y-83674500D01*
X197319500Y-85207309D01*
X197299815Y-85274348D01*
X197266625Y-85308883D01*
X197248601Y-85321503D01*
X197248595Y-85321508D01*
X197081508Y-85488594D01*
X196951269Y-85674595D01*
X196896692Y-85718219D01*
X196827193Y-85725412D01*
X196764839Y-85693890D01*
X196748119Y-85674594D01*
X196618113Y-85488926D01*
X196618108Y-85488920D01*
X196451082Y-85321894D01*
X196257578Y-85186399D01*
X196043492Y-85086570D01*
X196043486Y-85086567D01*
X195830000Y-85029364D01*
X195830000Y-85926988D01*
X195772993Y-85894075D01*
X195645826Y-85860000D01*
X195514174Y-85860000D01*
X195387007Y-85894075D01*
X195330000Y-85926988D01*
X195330000Y-85029364D01*
X195329999Y-85029364D01*
X195116513Y-85086567D01*
X195116507Y-85086570D01*
X194902422Y-85186399D01*
X194902420Y-85186400D01*
X194708926Y-85321886D01*
X194708920Y-85321891D01*
X194541891Y-85488920D01*
X194541886Y-85488926D01*
X194406400Y-85682420D01*
X194406399Y-85682422D01*
X194306570Y-85896507D01*
X194306567Y-85896513D01*
X194249364Y-86109999D01*
X194249364Y-86110000D01*
X195146988Y-86110000D01*
X195114075Y-86167007D01*
X195080000Y-86294174D01*
X195080000Y-86425826D01*
X195114075Y-86552993D01*
X195146988Y-86610000D01*
X194249364Y-86610000D01*
X194306567Y-86823486D01*
X194306570Y-86823492D01*
X194406399Y-87037578D01*
X194541894Y-87231082D01*
X194708917Y-87398105D01*
X194894595Y-87528119D01*
X194938219Y-87582696D01*
X194945412Y-87652195D01*
X194913890Y-87714549D01*
X194894595Y-87731269D01*
X194708594Y-87861508D01*
X194541506Y-88028596D01*
X194405965Y-88222170D01*
X194405962Y-88222175D01*
X194403289Y-88227909D01*
X194357115Y-88280346D01*
X194290909Y-88299500D01*
X193936669Y-88299500D01*
X193936653Y-88299499D01*
X193929057Y-88299499D01*
X193770943Y-88299499D01*
X193663587Y-88328265D01*
X193618210Y-88340424D01*
X193618209Y-88340425D01*
X193568096Y-88369359D01*
X193568095Y-88369360D01*
X193524689Y-88394420D01*
X193481285Y-88419479D01*
X193481282Y-88419481D01*
X190269481Y-91631282D01*
X190269479Y-91631285D01*
X190226721Y-91705346D01*
X190226720Y-91705347D01*
X190220383Y-91716323D01*
X190190423Y-91768215D01*
X190149499Y-91920943D01*
X190149499Y-91920945D01*
X190149499Y-92089046D01*
X190149500Y-92089059D01*
X190149500Y-111413330D01*
X190149499Y-111413348D01*
X190149499Y-111579054D01*
X190149498Y-111579054D01*
X190190423Y-111731785D01*
X190219358Y-111781900D01*
X190219359Y-111781904D01*
X190219360Y-111781904D01*
X190269479Y-111868714D01*
X190269481Y-111868717D01*
X190388349Y-111987585D01*
X190388355Y-111987590D01*
X195015139Y-116614374D01*
X195015149Y-116614385D01*
X195019479Y-116618715D01*
X195019480Y-116618716D01*
X195131284Y-116730520D01*
X195131286Y-116730521D01*
X195131290Y-116730524D01*
X195268209Y-116809573D01*
X195268216Y-116809577D01*
X195380019Y-116839534D01*
X195420942Y-116850500D01*
X195420943Y-116850500D01*
X223413331Y-116850500D01*
X223413347Y-116850501D01*
X223420943Y-116850501D01*
X223579054Y-116850501D01*
X223579057Y-116850501D01*
X223731785Y-116809577D01*
X223781904Y-116780639D01*
X223868716Y-116730520D01*
X223980520Y-116618716D01*
X223980520Y-116618714D01*
X223990728Y-116608507D01*
X223990730Y-116608504D01*
X225858506Y-114740728D01*
X225858511Y-114740724D01*
X225868714Y-114730520D01*
X225868716Y-114730520D01*
X225980520Y-114618716D01*
X226047754Y-114502262D01*
X226059577Y-114481785D01*
X226100500Y-114329057D01*
X226100500Y-114170943D01*
X226100500Y-96049060D01*
X226100501Y-96049047D01*
X226100501Y-95880944D01*
X226099654Y-95877783D01*
X226059577Y-95728216D01*
X226046596Y-95705732D01*
X225980524Y-95591290D01*
X225980518Y-95591282D01*
X219924259Y-89535023D01*
X213847589Y-83458354D01*
X213847588Y-83458352D01*
X213728717Y-83339481D01*
X213728716Y-83339480D01*
X213641904Y-83289360D01*
X213641904Y-83289359D01*
X213641900Y-83289358D01*
X213591785Y-83260423D01*
X213439057Y-83219499D01*
X213280943Y-83219499D01*
X213273347Y-83219499D01*
X213273331Y-83219500D01*
X212109091Y-83219500D01*
X212042052Y-83199815D01*
X211996711Y-83147909D01*
X211994037Y-83142175D01*
X211994034Y-83142170D01*
X211994033Y-83142169D01*
X211858495Y-82948599D01*
X211858494Y-82948597D01*
X211691402Y-82781506D01*
X211691396Y-82781501D01*
X211505842Y-82651575D01*
X211462217Y-82596998D01*
X211455023Y-82527500D01*
X211486546Y-82465145D01*
X211505842Y-82448425D01*
X211528026Y-82432891D01*
X211691401Y-82318495D01*
X211858495Y-82151401D01*
X211994035Y-81957830D01*
X212093903Y-81743663D01*
X212155063Y-81515408D01*
X212175659Y-81280000D01*
X212155063Y-81044592D01*
X212093903Y-80816337D01*
X211994035Y-80602171D01*
X211994034Y-80602169D01*
X211858494Y-80408597D01*
X211691402Y-80241506D01*
X211691396Y-80241501D01*
X211505842Y-80111575D01*
X211462217Y-80056998D01*
X211455023Y-79987500D01*
X211486546Y-79925145D01*
X211505842Y-79908425D01*
X211528026Y-79892891D01*
X211691401Y-79778495D01*
X211858495Y-79611401D01*
X211994035Y-79417830D01*
X212093903Y-79203663D01*
X212155063Y-78975408D01*
X212175659Y-78740000D01*
X212155063Y-78504592D01*
X212093903Y-78276337D01*
X211994035Y-78062171D01*
X211994034Y-78062169D01*
X211858494Y-77868597D01*
X211691402Y-77701506D01*
X211691401Y-77701505D01*
X211505405Y-77571269D01*
X211461781Y-77516692D01*
X211454588Y-77447193D01*
X211486110Y-77384839D01*
X211505405Y-77368119D01*
X211691082Y-77238105D01*
X211858105Y-77071082D01*
X211993600Y-76877578D01*
X212093429Y-76663492D01*
X212093432Y-76663486D01*
X212150636Y-76450000D01*
X211253012Y-76450000D01*
X211285925Y-76392993D01*
X211320000Y-76265826D01*
X211320000Y-76134174D01*
X211285925Y-76007007D01*
X211253012Y-75950000D01*
X212150636Y-75950000D01*
X212150635Y-75949999D01*
X212093432Y-75736513D01*
X212093429Y-75736507D01*
X211993600Y-75522422D01*
X211993599Y-75522420D01*
X211858113Y-75328926D01*
X211858108Y-75328920D01*
X211691078Y-75161890D01*
X211505405Y-75031879D01*
X211461780Y-74977302D01*
X211454588Y-74907804D01*
X211486110Y-74845449D01*
X211505406Y-74828730D01*
X211691401Y-74698495D01*
X211858495Y-74531401D01*
X211994035Y-74337830D01*
X212093903Y-74123663D01*
X212155063Y-73895408D01*
X212175659Y-73660000D01*
X212155063Y-73424592D01*
X212093903Y-73196337D01*
X211994035Y-72982171D01*
X211994034Y-72982169D01*
X211858494Y-72788597D01*
X211691402Y-72621506D01*
X211691396Y-72621501D01*
X211505842Y-72491575D01*
X211462217Y-72436998D01*
X211455023Y-72367500D01*
X211486546Y-72305145D01*
X211505842Y-72288425D01*
X211528026Y-72272891D01*
X211691401Y-72158495D01*
X211858495Y-71991401D01*
X211994035Y-71797830D01*
X212093903Y-71583663D01*
X212155063Y-71355408D01*
X212175659Y-71120000D01*
X212155063Y-70884592D01*
X212093903Y-70656337D01*
X211994035Y-70442171D01*
X211994034Y-70442169D01*
X211858494Y-70248597D01*
X211691402Y-70081506D01*
X211691396Y-70081501D01*
X211505842Y-69951575D01*
X211462217Y-69896998D01*
X211455023Y-69827500D01*
X211486546Y-69765145D01*
X211505842Y-69748425D01*
X211528026Y-69732891D01*
X211691401Y-69618495D01*
X211858495Y-69451401D01*
X211994035Y-69257830D01*
X212093903Y-69043663D01*
X212155063Y-68815408D01*
X212175659Y-68580000D01*
X212155063Y-68344592D01*
X212093903Y-68116337D01*
X211994035Y-67902171D01*
X211908141Y-67779500D01*
X211858494Y-67708597D01*
X211691402Y-67541506D01*
X211691396Y-67541501D01*
X211505842Y-67411575D01*
X211462217Y-67356998D01*
X211455023Y-67287500D01*
X211486546Y-67225145D01*
X211505842Y-67208425D01*
X211528026Y-67192891D01*
X211691401Y-67078495D01*
X211858495Y-66911401D01*
X211994035Y-66717830D01*
X212093903Y-66503663D01*
X212155063Y-66275408D01*
X212175659Y-66040000D01*
X212155063Y-65804592D01*
X212093903Y-65576337D01*
X211994035Y-65362171D01*
X211908141Y-65239500D01*
X211858494Y-65168597D01*
X211691402Y-65001506D01*
X211691401Y-65001505D01*
X211505405Y-64871269D01*
X211461781Y-64816692D01*
X211454588Y-64747193D01*
X211486110Y-64684839D01*
X211505405Y-64668119D01*
X211691082Y-64538105D01*
X211858105Y-64371082D01*
X211993600Y-64177578D01*
X212093429Y-63963492D01*
X212093432Y-63963486D01*
X212150636Y-63750000D01*
X211253012Y-63750000D01*
X211285925Y-63692993D01*
X211320000Y-63565826D01*
X211320000Y-63434174D01*
X211285925Y-63307007D01*
X211253012Y-63250000D01*
X212150636Y-63250000D01*
X212150635Y-63249999D01*
X212093432Y-63036513D01*
X212093429Y-63036507D01*
X211993600Y-62822422D01*
X211993599Y-62822420D01*
X211858113Y-62628926D01*
X211858108Y-62628920D01*
X211691078Y-62461890D01*
X211505405Y-62331879D01*
X211461780Y-62277302D01*
X211454588Y-62207804D01*
X211486110Y-62145449D01*
X211505406Y-62128730D01*
X211691401Y-61998495D01*
X211858495Y-61831401D01*
X211994035Y-61637830D01*
X212093903Y-61423663D01*
X212155063Y-61195408D01*
X212175659Y-60960000D01*
X212155063Y-60724592D01*
X212104557Y-60536097D01*
X212093905Y-60496344D01*
X212093904Y-60496343D01*
X212093903Y-60496337D01*
X211994035Y-60282171D01*
X211988461Y-60274211D01*
X211858496Y-60088600D01*
X211858493Y-60088597D01*
X211736567Y-59966671D01*
X211703084Y-59905351D01*
X211708068Y-59835659D01*
X211749939Y-59779725D01*
X211780915Y-59762810D01*
X211912331Y-59713796D01*
X212027546Y-59627546D01*
X212113796Y-59512331D01*
X212164091Y-59377483D01*
X212170500Y-59317873D01*
X212170499Y-57522128D01*
X212164091Y-57462517D01*
X212113796Y-57327669D01*
X212113795Y-57327668D01*
X212113793Y-57327664D01*
X212027547Y-57212455D01*
X212027544Y-57212452D01*
X211912335Y-57126206D01*
X211912328Y-57126202D01*
X211777482Y-57075908D01*
X211777483Y-57075908D01*
X211717883Y-57069501D01*
X211717881Y-57069500D01*
X211717873Y-57069500D01*
X211717864Y-57069500D01*
X209922129Y-57069500D01*
X209922123Y-57069501D01*
X209862516Y-57075908D01*
X209727671Y-57126202D01*
X209727664Y-57126206D01*
X209612455Y-57212452D01*
X209612452Y-57212455D01*
X209526206Y-57327664D01*
X209526202Y-57327671D01*
X209475908Y-57462517D01*
X209469501Y-57522116D01*
X209469501Y-57522123D01*
X209469500Y-57522135D01*
X209469500Y-59317870D01*
X209469501Y-59317876D01*
X209475908Y-59377483D01*
X209526202Y-59512328D01*
X209526206Y-59512335D01*
X209612452Y-59627544D01*
X209612455Y-59627547D01*
X209727664Y-59713793D01*
X209727671Y-59713797D01*
X209859081Y-59762810D01*
X209915015Y-59804681D01*
X209939432Y-59870145D01*
X209924580Y-59938418D01*
X209903430Y-59966673D01*
X209781503Y-60088600D01*
X209645965Y-60282169D01*
X209645964Y-60282171D01*
X209546098Y-60496335D01*
X209546094Y-60496344D01*
X209484938Y-60724586D01*
X209484936Y-60724596D01*
X209464341Y-60959999D01*
X209464341Y-60960000D01*
X209484936Y-61195403D01*
X209484938Y-61195413D01*
X209546094Y-61423655D01*
X209546096Y-61423659D01*
X209546097Y-61423663D01*
X209637420Y-61619506D01*
X209645965Y-61637830D01*
X209645967Y-61637834D01*
X209781501Y-61831395D01*
X209781506Y-61831402D01*
X209948597Y-61998493D01*
X209948603Y-61998498D01*
X210134594Y-62128730D01*
X210178219Y-62183307D01*
X210185413Y-62252805D01*
X210153890Y-62315160D01*
X210134595Y-62331880D01*
X209948922Y-62461890D01*
X209948920Y-62461891D01*
X209781891Y-62628920D01*
X209781886Y-62628926D01*
X209646400Y-62822420D01*
X209646399Y-62822422D01*
X209546570Y-63036507D01*
X209546567Y-63036513D01*
X209489364Y-63249999D01*
X209489364Y-63250000D01*
X210386988Y-63250000D01*
X210354075Y-63307007D01*
X210320000Y-63434174D01*
X210320000Y-63565826D01*
X210354075Y-63692993D01*
X210386988Y-63750000D01*
X209489364Y-63750000D01*
X209546567Y-63963486D01*
X209546570Y-63963492D01*
X209646399Y-64177578D01*
X209781894Y-64371082D01*
X209948917Y-64538105D01*
X210134595Y-64668119D01*
X210178219Y-64722696D01*
X210185412Y-64792195D01*
X210153890Y-64854549D01*
X210134595Y-64871269D01*
X209948594Y-65001508D01*
X209781505Y-65168597D01*
X209645965Y-65362169D01*
X209645964Y-65362171D01*
X209546098Y-65576335D01*
X209546094Y-65576344D01*
X209484938Y-65804586D01*
X209484936Y-65804596D01*
X209464341Y-66039999D01*
X209464341Y-66040000D01*
X209484936Y-66275403D01*
X209484938Y-66275413D01*
X209546094Y-66503655D01*
X209546096Y-66503659D01*
X209546097Y-66503663D01*
X209645965Y-66717830D01*
X209645967Y-66717834D01*
X209781501Y-66911395D01*
X209781506Y-66911402D01*
X209948597Y-67078493D01*
X209948603Y-67078498D01*
X210134158Y-67208425D01*
X210177783Y-67263002D01*
X210184977Y-67332500D01*
X210153454Y-67394855D01*
X210134158Y-67411575D01*
X209948597Y-67541505D01*
X209781505Y-67708597D01*
X209645965Y-67902169D01*
X209645964Y-67902171D01*
X209546098Y-68116335D01*
X209546094Y-68116344D01*
X209484938Y-68344586D01*
X209484936Y-68344596D01*
X209464341Y-68579999D01*
X209464341Y-68580000D01*
X209484936Y-68815403D01*
X209484938Y-68815413D01*
X209546094Y-69043655D01*
X209546096Y-69043659D01*
X209546097Y-69043663D01*
X209619833Y-69201789D01*
X209645965Y-69257830D01*
X209645967Y-69257834D01*
X209781501Y-69451395D01*
X209781506Y-69451402D01*
X209948597Y-69618493D01*
X209948603Y-69618498D01*
X210134158Y-69748425D01*
X210177783Y-69803002D01*
X210184977Y-69872500D01*
X210153454Y-69934855D01*
X210134158Y-69951575D01*
X209948597Y-70081505D01*
X209781505Y-70248597D01*
X209645965Y-70442169D01*
X209645964Y-70442171D01*
X209546098Y-70656335D01*
X209546094Y-70656344D01*
X209484938Y-70884586D01*
X209484936Y-70884596D01*
X209464341Y-71119999D01*
X209464341Y-71120000D01*
X209484936Y-71355403D01*
X209484938Y-71355413D01*
X209546094Y-71583655D01*
X209546096Y-71583659D01*
X209546097Y-71583663D01*
X209618839Y-71739658D01*
X209645965Y-71797830D01*
X209645967Y-71797834D01*
X209781501Y-71991395D01*
X209781506Y-71991402D01*
X209948597Y-72158493D01*
X209948603Y-72158498D01*
X210134158Y-72288425D01*
X210177783Y-72343002D01*
X210184977Y-72412500D01*
X210153454Y-72474855D01*
X210134158Y-72491575D01*
X209948597Y-72621505D01*
X209781505Y-72788597D01*
X209645965Y-72982169D01*
X209645964Y-72982171D01*
X209546098Y-73196335D01*
X209546094Y-73196344D01*
X209484938Y-73424586D01*
X209484936Y-73424596D01*
X209464341Y-73659999D01*
X209464341Y-73660000D01*
X209484936Y-73895403D01*
X209484938Y-73895413D01*
X209546094Y-74123655D01*
X209546096Y-74123659D01*
X209546097Y-74123663D01*
X209618839Y-74279658D01*
X209645965Y-74337830D01*
X209645967Y-74337834D01*
X209781501Y-74531395D01*
X209781506Y-74531402D01*
X209948597Y-74698493D01*
X209948603Y-74698498D01*
X210134594Y-74828730D01*
X210178219Y-74883307D01*
X210185413Y-74952805D01*
X210153890Y-75015160D01*
X210134595Y-75031880D01*
X209948922Y-75161890D01*
X209948920Y-75161891D01*
X209781891Y-75328920D01*
X209781886Y-75328926D01*
X209646400Y-75522420D01*
X209646399Y-75522422D01*
X209546570Y-75736507D01*
X209546567Y-75736513D01*
X209489364Y-75949999D01*
X209489364Y-75950000D01*
X210386988Y-75950000D01*
X210354075Y-76007007D01*
X210320000Y-76134174D01*
X210320000Y-76265826D01*
X210354075Y-76392993D01*
X210386988Y-76450000D01*
X209489364Y-76450000D01*
X209546567Y-76663486D01*
X209546570Y-76663492D01*
X209646399Y-76877578D01*
X209781894Y-77071082D01*
X209948917Y-77238105D01*
X210134595Y-77368119D01*
X210178219Y-77422696D01*
X210185412Y-77492195D01*
X210153890Y-77554549D01*
X210134595Y-77571269D01*
X209948594Y-77701508D01*
X209781505Y-77868597D01*
X209645965Y-78062169D01*
X209645964Y-78062171D01*
X209546098Y-78276335D01*
X209546094Y-78276344D01*
X209484938Y-78504586D01*
X209484936Y-78504596D01*
X209464341Y-78739999D01*
X209464341Y-78740000D01*
X209484936Y-78975403D01*
X209484938Y-78975413D01*
X209546094Y-79203655D01*
X209546096Y-79203659D01*
X209546097Y-79203663D01*
X209618839Y-79359658D01*
X209645965Y-79417830D01*
X209645967Y-79417834D01*
X209781501Y-79611395D01*
X209781506Y-79611402D01*
X209948597Y-79778493D01*
X209948603Y-79778498D01*
X210134158Y-79908425D01*
X210177783Y-79963002D01*
X210184977Y-80032500D01*
X210153454Y-80094855D01*
X210134158Y-80111575D01*
X209948597Y-80241505D01*
X209781505Y-80408597D01*
X209645965Y-80602169D01*
X209645964Y-80602171D01*
X209546098Y-80816335D01*
X209546094Y-80816344D01*
X209484938Y-81044586D01*
X209484936Y-81044596D01*
X209464341Y-81279999D01*
X209464341Y-81280000D01*
X209484936Y-81515403D01*
X209484938Y-81515413D01*
X209546094Y-81743655D01*
X209546096Y-81743659D01*
X209546097Y-81743663D01*
X209618839Y-81899658D01*
X209645965Y-81957830D01*
X209645967Y-81957834D01*
X209754281Y-82112521D01*
X209765266Y-82128210D01*
X209781501Y-82151395D01*
X209781506Y-82151402D01*
X209948597Y-82318493D01*
X209948603Y-82318498D01*
X210134158Y-82448425D01*
X210177783Y-82503002D01*
X210184977Y-82572500D01*
X210153454Y-82634855D01*
X210134158Y-82651575D01*
X209948597Y-82781505D01*
X209781505Y-82948597D01*
X209645965Y-83142169D01*
X209645964Y-83142171D01*
X209546098Y-83356335D01*
X209546094Y-83356344D01*
X209484938Y-83584586D01*
X209484936Y-83584596D01*
X209464341Y-83819999D01*
X209464341Y-83820000D01*
X209484936Y-84055403D01*
X209484938Y-84055413D01*
X209546094Y-84283655D01*
X209546096Y-84283659D01*
X209546097Y-84283663D01*
X209618839Y-84439658D01*
X209645965Y-84497830D01*
X209645967Y-84497834D01*
X209781501Y-84691395D01*
X209781506Y-84691402D01*
X209948597Y-84858493D01*
X209948603Y-84858498D01*
X210134158Y-84988425D01*
X210177783Y-85043002D01*
X210184977Y-85112500D01*
X210153454Y-85174855D01*
X210134158Y-85191575D01*
X209948597Y-85321505D01*
X209781505Y-85488597D01*
X209645965Y-85682169D01*
X209645964Y-85682171D01*
X209546098Y-85896335D01*
X209546094Y-85896344D01*
X209484938Y-86124586D01*
X209484936Y-86124596D01*
X209464341Y-86359999D01*
X209464341Y-86360000D01*
X209484936Y-86595403D01*
X209484938Y-86595413D01*
X209546094Y-86823655D01*
X209546096Y-86823659D01*
X209546097Y-86823663D01*
X209618839Y-86979658D01*
X209645965Y-87037830D01*
X209645967Y-87037834D01*
X209662227Y-87061055D01*
X209781504Y-87231400D01*
X209781506Y-87231402D01*
X209948597Y-87398493D01*
X209948603Y-87398498D01*
X210134594Y-87528730D01*
X210178219Y-87583307D01*
X210185413Y-87652805D01*
X210153890Y-87715160D01*
X210134595Y-87731880D01*
X209948922Y-87861890D01*
X209948920Y-87861891D01*
X209781891Y-88028920D01*
X209781886Y-88028926D01*
X209646400Y-88222420D01*
X209646399Y-88222422D01*
X209546570Y-88436507D01*
X209546567Y-88436513D01*
X209489364Y-88649999D01*
X209489364Y-88650000D01*
X210386988Y-88650000D01*
X210354075Y-88707007D01*
X210320000Y-88834174D01*
X210320000Y-88965826D01*
X210354075Y-89092993D01*
X210386988Y-89150000D01*
X209489364Y-89150000D01*
X209546567Y-89363486D01*
X209546570Y-89363492D01*
X209646399Y-89577578D01*
X209781894Y-89771082D01*
X209948917Y-89938105D01*
X210134595Y-90068119D01*
X210178219Y-90122696D01*
X210185412Y-90192195D01*
X210153890Y-90254549D01*
X210134595Y-90271269D01*
X209948594Y-90401508D01*
X209781505Y-90568597D01*
X209645965Y-90762169D01*
X209645964Y-90762171D01*
X209546098Y-90976335D01*
X209546094Y-90976344D01*
X209484938Y-91204586D01*
X209484936Y-91204596D01*
X209464341Y-91439999D01*
X209464341Y-91440000D01*
X209484936Y-91675403D01*
X209484938Y-91675413D01*
X209546094Y-91903655D01*
X209546096Y-91903659D01*
X209546097Y-91903663D01*
X209612720Y-92046536D01*
X209645965Y-92117830D01*
X209645967Y-92117834D01*
X209729469Y-92237086D01*
X209781504Y-92311400D01*
X209781506Y-92311402D01*
X209948597Y-92478493D01*
X209948603Y-92478498D01*
X210134158Y-92608425D01*
X210177783Y-92663002D01*
X210184977Y-92732500D01*
X210153454Y-92794855D01*
X210134158Y-92811575D01*
X209948597Y-92941505D01*
X209781505Y-93108597D01*
X209645965Y-93302169D01*
X209645964Y-93302171D01*
X209546098Y-93516335D01*
X209546094Y-93516344D01*
X209484938Y-93744586D01*
X209484936Y-93744596D01*
X209464341Y-93979999D01*
X209464341Y-93980000D01*
X209484936Y-94215403D01*
X209484938Y-94215413D01*
X209546094Y-94443655D01*
X209546096Y-94443659D01*
X209546097Y-94443663D01*
X209630174Y-94623966D01*
X209645965Y-94657830D01*
X209645967Y-94657834D01*
X209724352Y-94769778D01*
X209781501Y-94851396D01*
X209781506Y-94851402D01*
X209948597Y-95018493D01*
X209948603Y-95018498D01*
X210134158Y-95148425D01*
X210177783Y-95203002D01*
X210184977Y-95272500D01*
X210153454Y-95334855D01*
X210134158Y-95351575D01*
X209948597Y-95481505D01*
X209781505Y-95648597D01*
X209645965Y-95842169D01*
X209645964Y-95842171D01*
X209546098Y-96056335D01*
X209546094Y-96056344D01*
X209484938Y-96284586D01*
X209484936Y-96284596D01*
X209464341Y-96519999D01*
X209464341Y-96520000D01*
X209484936Y-96755403D01*
X209484938Y-96755413D01*
X209546094Y-96983655D01*
X209546096Y-96983659D01*
X209546097Y-96983663D01*
X209618839Y-97139658D01*
X209645965Y-97197830D01*
X209645967Y-97197834D01*
X209711988Y-97292121D01*
X209781501Y-97391396D01*
X209781506Y-97391402D01*
X209948597Y-97558493D01*
X209948603Y-97558498D01*
X210134158Y-97688425D01*
X210177783Y-97743002D01*
X210184977Y-97812500D01*
X210153454Y-97874855D01*
X210134158Y-97891575D01*
X209948597Y-98021505D01*
X209781505Y-98188597D01*
X209645965Y-98382169D01*
X209645964Y-98382171D01*
X209546098Y-98596335D01*
X209546094Y-98596344D01*
X209484938Y-98824586D01*
X209484936Y-98824596D01*
X209464341Y-99059999D01*
X209464341Y-99060000D01*
X209484936Y-99295403D01*
X209484938Y-99295413D01*
X209546094Y-99523655D01*
X209546096Y-99523659D01*
X209546097Y-99523663D01*
X209618839Y-99679658D01*
X209645965Y-99737830D01*
X209645967Y-99737834D01*
X209725296Y-99851127D01*
X209781501Y-99931396D01*
X209781506Y-99931402D01*
X209948597Y-100098493D01*
X209948603Y-100098498D01*
X210134594Y-100228730D01*
X210178219Y-100283307D01*
X210185413Y-100352805D01*
X210153890Y-100415160D01*
X210134595Y-100431880D01*
X209948922Y-100561890D01*
X209948920Y-100561891D01*
X209781891Y-100728920D01*
X209781886Y-100728926D01*
X209646400Y-100922420D01*
X209646399Y-100922422D01*
X209546570Y-101136507D01*
X209546567Y-101136513D01*
X209489364Y-101349999D01*
X209489364Y-101350000D01*
X210386988Y-101350000D01*
X210354075Y-101407007D01*
X210320000Y-101534174D01*
X210320000Y-101665826D01*
X210354075Y-101792993D01*
X210386988Y-101850000D01*
X209489364Y-101850000D01*
X209546567Y-102063486D01*
X209546570Y-102063492D01*
X209646399Y-102277578D01*
X209781894Y-102471082D01*
X209948917Y-102638105D01*
X210134595Y-102768119D01*
X210178219Y-102822696D01*
X210185412Y-102892195D01*
X210153890Y-102954549D01*
X210134595Y-102971269D01*
X209948594Y-103101508D01*
X209781505Y-103268597D01*
X209645965Y-103462169D01*
X209645964Y-103462171D01*
X209546098Y-103676335D01*
X209546094Y-103676344D01*
X209484938Y-103904586D01*
X209484936Y-103904596D01*
X209464341Y-104139999D01*
X209464341Y-104140000D01*
X209484936Y-104375403D01*
X209484938Y-104375413D01*
X209546094Y-104603655D01*
X209546096Y-104603659D01*
X209546097Y-104603663D01*
X209618839Y-104759658D01*
X209645965Y-104817830D01*
X209645967Y-104817834D01*
X209754281Y-104972521D01*
X209781501Y-105011396D01*
X209781506Y-105011402D01*
X209948597Y-105178493D01*
X209948603Y-105178498D01*
X210134158Y-105308425D01*
X210177783Y-105363002D01*
X210184977Y-105432500D01*
X210153454Y-105494855D01*
X210134158Y-105511575D01*
X209948597Y-105641505D01*
X209781505Y-105808597D01*
X209645965Y-106002169D01*
X209645964Y-106002171D01*
X209546098Y-106216335D01*
X209546094Y-106216344D01*
X209484938Y-106444586D01*
X209484936Y-106444596D01*
X209464341Y-106679999D01*
X209464341Y-106680000D01*
X209484936Y-106915403D01*
X209484938Y-106915413D01*
X209546094Y-107143655D01*
X209546096Y-107143659D01*
X209546097Y-107143663D01*
X209618839Y-107299658D01*
X209645965Y-107357830D01*
X209645967Y-107357834D01*
X209666499Y-107387156D01*
X209781505Y-107551401D01*
X209948599Y-107718495D01*
X210025135Y-107772086D01*
X210142165Y-107854032D01*
X210142167Y-107854033D01*
X210142170Y-107854035D01*
X210356337Y-107953903D01*
X210584592Y-108015063D01*
X210755319Y-108030000D01*
X210819999Y-108035659D01*
X210820000Y-108035659D01*
X210820001Y-108035659D01*
X210884681Y-108030000D01*
X211055408Y-108015063D01*
X211283663Y-107953903D01*
X211497830Y-107854035D01*
X211691401Y-107718495D01*
X211818354Y-107591542D01*
X211879677Y-107558057D01*
X211949369Y-107563041D01*
X212005302Y-107604913D01*
X212020596Y-107631770D01*
X212060507Y-107728123D01*
X212060512Y-107728133D01*
X212144173Y-107853339D01*
X212144176Y-107853343D01*
X212250656Y-107959823D01*
X212250660Y-107959826D01*
X212375866Y-108043487D01*
X212375872Y-108043490D01*
X212375873Y-108043491D01*
X212515004Y-108101121D01*
X212644151Y-108126809D01*
X212652020Y-108128645D01*
X212652528Y-108128781D01*
X212658943Y-108130500D01*
X212658945Y-108130500D01*
X212899056Y-108130500D01*
X212899057Y-108130500D01*
X212905983Y-108128643D01*
X212913847Y-108126809D01*
X213042996Y-108101121D01*
X213141549Y-108060298D01*
X213211016Y-108052830D01*
X213236446Y-108060297D01*
X213335004Y-108101121D01*
X213464151Y-108126809D01*
X213472020Y-108128645D01*
X213472528Y-108128781D01*
X213478943Y-108130500D01*
X213478945Y-108130500D01*
X213719056Y-108130500D01*
X213719057Y-108130500D01*
X213725983Y-108128643D01*
X213733847Y-108126809D01*
X213862996Y-108101121D01*
X213961549Y-108060298D01*
X214031016Y-108052830D01*
X214056446Y-108060297D01*
X214155004Y-108101121D01*
X214284151Y-108126809D01*
X214292020Y-108128645D01*
X214292528Y-108128781D01*
X214298943Y-108130500D01*
X214298945Y-108130500D01*
X214539056Y-108130500D01*
X214539057Y-108130500D01*
X214545983Y-108128643D01*
X214553847Y-108126809D01*
X214682996Y-108101121D01*
X214781549Y-108060298D01*
X214851016Y-108052830D01*
X214876446Y-108060297D01*
X214975004Y-108101121D01*
X215104151Y-108126809D01*
X215112020Y-108128645D01*
X215112528Y-108128781D01*
X215118943Y-108130500D01*
X215118945Y-108130500D01*
X215359056Y-108130500D01*
X215359057Y-108130500D01*
X215365983Y-108128643D01*
X215373869Y-108126805D01*
X215494831Y-108102745D01*
X215564423Y-108108972D01*
X215619600Y-108151836D01*
X215622103Y-108155441D01*
X215647785Y-108193880D01*
X215652048Y-108200734D01*
X215655640Y-108206956D01*
X215655642Y-108206958D01*
X215825422Y-108376739D01*
X215825424Y-108376740D01*
X215825425Y-108376741D01*
X215831630Y-108380323D01*
X215838513Y-108384602D01*
X215947982Y-108457747D01*
X215947983Y-108457747D01*
X215947984Y-108457748D01*
X216046544Y-108498573D01*
X216100948Y-108542414D01*
X216113658Y-108565692D01*
X216154432Y-108664158D01*
X216227647Y-108773768D01*
X216231916Y-108780634D01*
X216235466Y-108786782D01*
X216235467Y-108786783D01*
X216289304Y-108840620D01*
X216348030Y-108899369D01*
X216348229Y-108899545D01*
X216398586Y-108949902D01*
X216405252Y-108956568D01*
X216411457Y-108960150D01*
X216418340Y-108964429D01*
X216527809Y-109037574D01*
X216527810Y-109037574D01*
X216527811Y-109037575D01*
X216626347Y-109078390D01*
X216680751Y-109122231D01*
X216693452Y-109145489D01*
X216734303Y-109244089D01*
X216734303Y-109244090D01*
X216807420Y-109353506D01*
X216811704Y-109360393D01*
X216815296Y-109366614D01*
X216815306Y-109366627D01*
X216868420Y-109419737D01*
X216868434Y-109419750D01*
X216868446Y-109419762D01*
X216985079Y-109536395D01*
X216991284Y-109539977D01*
X216998167Y-109544256D01*
X217101320Y-109613181D01*
X217107636Y-109617401D01*
X217146021Y-109633301D01*
X217200424Y-109677142D01*
X217222489Y-109743437D01*
X217205209Y-109811136D01*
X217154072Y-109858746D01*
X217146021Y-109862423D01*
X217128453Y-109869700D01*
X217058984Y-109877169D01*
X217033548Y-109869700D01*
X216935000Y-109828880D01*
X216934990Y-109828877D01*
X216805871Y-109803193D01*
X216797985Y-109801355D01*
X216791058Y-109799500D01*
X216791057Y-109799500D01*
X216550943Y-109799500D01*
X216550937Y-109799500D01*
X216544020Y-109801353D01*
X216536133Y-109803192D01*
X216407008Y-109828878D01*
X216406999Y-109828880D01*
X216308452Y-109869700D01*
X216238983Y-109877169D01*
X216213548Y-109869700D01*
X216115000Y-109828880D01*
X216114990Y-109828877D01*
X215985871Y-109803193D01*
X215977985Y-109801355D01*
X215971058Y-109799500D01*
X215971057Y-109799500D01*
X215730943Y-109799500D01*
X215730937Y-109799500D01*
X215724020Y-109801353D01*
X215716133Y-109803192D01*
X215587008Y-109828878D01*
X215586999Y-109828880D01*
X215488452Y-109869700D01*
X215418983Y-109877169D01*
X215393548Y-109869700D01*
X215295000Y-109828880D01*
X215294990Y-109828877D01*
X215165871Y-109803193D01*
X215157985Y-109801355D01*
X215151058Y-109799500D01*
X215151057Y-109799500D01*
X214910943Y-109799500D01*
X214910937Y-109799500D01*
X214904020Y-109801353D01*
X214896133Y-109803192D01*
X214767008Y-109828878D01*
X214766999Y-109828880D01*
X214668452Y-109869700D01*
X214598983Y-109877169D01*
X214573548Y-109869700D01*
X214475000Y-109828880D01*
X214474990Y-109828877D01*
X214345871Y-109803193D01*
X214337985Y-109801355D01*
X214331058Y-109799500D01*
X214331057Y-109799500D01*
X214090943Y-109799500D01*
X214090937Y-109799500D01*
X214084020Y-109801353D01*
X214076133Y-109803192D01*
X213947008Y-109828878D01*
X213946999Y-109828880D01*
X213848452Y-109869700D01*
X213778983Y-109877169D01*
X213753548Y-109869700D01*
X213655000Y-109828880D01*
X213654990Y-109828877D01*
X213525871Y-109803193D01*
X213517985Y-109801355D01*
X213511058Y-109799500D01*
X213511057Y-109799500D01*
X213270943Y-109799500D01*
X213270937Y-109799500D01*
X213264020Y-109801353D01*
X213256133Y-109803192D01*
X213127008Y-109828878D01*
X213126999Y-109828880D01*
X213028452Y-109869700D01*
X212958983Y-109877169D01*
X212933548Y-109869700D01*
X212835000Y-109828880D01*
X212834990Y-109828877D01*
X212705871Y-109803193D01*
X212697985Y-109801355D01*
X212691058Y-109799500D01*
X212691057Y-109799500D01*
X212450943Y-109799500D01*
X212450937Y-109799500D01*
X212444020Y-109801353D01*
X212436133Y-109803192D01*
X212307008Y-109828878D01*
X212306999Y-109828880D01*
X212208452Y-109869700D01*
X212138983Y-109877169D01*
X212113548Y-109869700D01*
X212015000Y-109828880D01*
X212014990Y-109828877D01*
X211885871Y-109803193D01*
X211877985Y-109801355D01*
X211871058Y-109799500D01*
X211871057Y-109799500D01*
X211630943Y-109799500D01*
X211630937Y-109799500D01*
X211624020Y-109801353D01*
X211616133Y-109803192D01*
X211487008Y-109828878D01*
X211486999Y-109828880D01*
X211388452Y-109869700D01*
X211318983Y-109877169D01*
X211293548Y-109869700D01*
X211195000Y-109828880D01*
X211194990Y-109828877D01*
X211065871Y-109803193D01*
X211057985Y-109801355D01*
X211051058Y-109799500D01*
X211051057Y-109799500D01*
X210810943Y-109799500D01*
X210810937Y-109799500D01*
X210804020Y-109801353D01*
X210796133Y-109803192D01*
X210667008Y-109828878D01*
X210666999Y-109828880D01*
X210568452Y-109869700D01*
X210498983Y-109877169D01*
X210473548Y-109869700D01*
X210375000Y-109828880D01*
X210374990Y-109828877D01*
X210245871Y-109803193D01*
X210237985Y-109801355D01*
X210231058Y-109799500D01*
X210231057Y-109799500D01*
X209990943Y-109799500D01*
X209990937Y-109799500D01*
X209984020Y-109801353D01*
X209976133Y-109803192D01*
X209847008Y-109828878D01*
X209846999Y-109828880D01*
X209748452Y-109869700D01*
X209678983Y-109877169D01*
X209653548Y-109869700D01*
X209555000Y-109828880D01*
X209554990Y-109828877D01*
X209425871Y-109803193D01*
X209417985Y-109801355D01*
X209411058Y-109799500D01*
X209411057Y-109799500D01*
X209170943Y-109799500D01*
X209170937Y-109799500D01*
X209164020Y-109801353D01*
X209156133Y-109803192D01*
X209027008Y-109828878D01*
X209026999Y-109828880D01*
X208928452Y-109869700D01*
X208858983Y-109877169D01*
X208833548Y-109869700D01*
X208735000Y-109828880D01*
X208734990Y-109828877D01*
X208605871Y-109803193D01*
X208597985Y-109801355D01*
X208591058Y-109799500D01*
X208591057Y-109799500D01*
X208350943Y-109799500D01*
X208350937Y-109799500D01*
X208344020Y-109801353D01*
X208336133Y-109803192D01*
X208207008Y-109828878D01*
X208206999Y-109828880D01*
X208108452Y-109869700D01*
X208038983Y-109877169D01*
X208013548Y-109869700D01*
X207915000Y-109828880D01*
X207914990Y-109828877D01*
X207785871Y-109803193D01*
X207777985Y-109801355D01*
X207771058Y-109799500D01*
X207771057Y-109799500D01*
X207530943Y-109799500D01*
X207530937Y-109799500D01*
X207524020Y-109801353D01*
X207516133Y-109803192D01*
X207387008Y-109828878D01*
X207386999Y-109828880D01*
X207288452Y-109869700D01*
X207218983Y-109877169D01*
X207193548Y-109869700D01*
X207095000Y-109828880D01*
X207094990Y-109828877D01*
X206965871Y-109803193D01*
X206957985Y-109801355D01*
X206951058Y-109799500D01*
X206951057Y-109799500D01*
X206710943Y-109799500D01*
X206710937Y-109799500D01*
X206704020Y-109801353D01*
X206696133Y-109803192D01*
X206567008Y-109828878D01*
X206566999Y-109828880D01*
X206468452Y-109869700D01*
X206398983Y-109877169D01*
X206373548Y-109869700D01*
X206275000Y-109828880D01*
X206274990Y-109828877D01*
X206145871Y-109803193D01*
X206137985Y-109801355D01*
X206131058Y-109799500D01*
X206131057Y-109799500D01*
X205890943Y-109799500D01*
X205890937Y-109799500D01*
X205884020Y-109801353D01*
X205876133Y-109803192D01*
X205747008Y-109828878D01*
X205747003Y-109828879D01*
X205607875Y-109886507D01*
X205607866Y-109886512D01*
X205482660Y-109970173D01*
X205482656Y-109970176D01*
X205376179Y-110076653D01*
X205373970Y-110079346D01*
X205372454Y-110080378D01*
X205371866Y-110080967D01*
X205371754Y-110080855D01*
X205316225Y-110118682D01*
X205246381Y-110120555D01*
X205186611Y-110084369D01*
X205173120Y-110066656D01*
X205129813Y-109997734D01*
X205127550Y-109994896D01*
X205126659Y-109992715D01*
X205126111Y-109991842D01*
X205126264Y-109991745D01*
X205101144Y-109930209D01*
X205100500Y-109917587D01*
X205100500Y-93420946D01*
X205100499Y-93420939D01*
X205100350Y-93420384D01*
X205100335Y-93420329D01*
X205093725Y-93395658D01*
X205079983Y-93344372D01*
X205059577Y-93268216D01*
X205015119Y-93191212D01*
X204980524Y-93131290D01*
X204980521Y-93131286D01*
X204980520Y-93131284D01*
X204868716Y-93019480D01*
X204868715Y-93019479D01*
X204864385Y-93015149D01*
X204864374Y-93015139D01*
X200387590Y-88538355D01*
X200387588Y-88538352D01*
X200268717Y-88419481D01*
X200268716Y-88419480D01*
X200181904Y-88369360D01*
X200181904Y-88369359D01*
X200181900Y-88369358D01*
X200131785Y-88340423D01*
X199979057Y-88299499D01*
X199820943Y-88299499D01*
X199813347Y-88299499D01*
X199813331Y-88299500D01*
X199409091Y-88299500D01*
X199342052Y-88279815D01*
X199296711Y-88227909D01*
X199294037Y-88222175D01*
X199294034Y-88222170D01*
X199285153Y-88209487D01*
X199215936Y-88110633D01*
X199158494Y-88028597D01*
X198991402Y-87861506D01*
X198991396Y-87861501D01*
X198805842Y-87731575D01*
X198762217Y-87676998D01*
X198755023Y-87607500D01*
X198786546Y-87545145D01*
X198805842Y-87528425D01*
X198828026Y-87512891D01*
X198991401Y-87398495D01*
X199158495Y-87231401D01*
X199294035Y-87037830D01*
X199393903Y-86823663D01*
X199455063Y-86595408D01*
X199475659Y-86360000D01*
X199455063Y-86124592D01*
X199393903Y-85896337D01*
X199294035Y-85682171D01*
X199294034Y-85682169D01*
X199158494Y-85488597D01*
X198991404Y-85321508D01*
X198991402Y-85321506D01*
X198991401Y-85321505D01*
X198973374Y-85308882D01*
X198929751Y-85254306D01*
X198920500Y-85207309D01*
X198920500Y-83674500D01*
X198940185Y-83607461D01*
X198992989Y-83561706D01*
X199044500Y-83550500D01*
X205328844Y-83550500D01*
X205328845Y-83550499D01*
X205483497Y-83519737D01*
X205629179Y-83459394D01*
X205760289Y-83371789D01*
X208121789Y-81010289D01*
X208209394Y-80879179D01*
X208269738Y-80733497D01*
X208300500Y-80578842D01*
X208300500Y-80421157D01*
X208300500Y-57632940D01*
X208320185Y-57565901D01*
X208336819Y-57545259D01*
X209545259Y-56336819D01*
X209606582Y-56303334D01*
X209632940Y-56300500D01*
X213867060Y-56300500D01*
X213934099Y-56320185D01*
X213954741Y-56336819D01*
X217913181Y-60295259D01*
X217946666Y-60356582D01*
X217949500Y-60382940D01*
X217949500Y-62578846D01*
X217980261Y-62733489D01*
X217980264Y-62733501D01*
X218040602Y-62879172D01*
X218040609Y-62879185D01*
X218128210Y-63010288D01*
X218128213Y-63010292D01*
X224208211Y-69090289D01*
X224319711Y-69201789D01*
X224450821Y-69289394D01*
X224553833Y-69332062D01*
X224596502Y-69349737D01*
X224751152Y-69380499D01*
X224751155Y-69380500D01*
X224751157Y-69380500D01*
X224751158Y-69380500D01*
X227447309Y-69380500D01*
X227514348Y-69400185D01*
X227548884Y-69433376D01*
X227561508Y-69451405D01*
X227728597Y-69618493D01*
X227728603Y-69618498D01*
X227914158Y-69748425D01*
X227957783Y-69803002D01*
X227964977Y-69872500D01*
X227933454Y-69934855D01*
X227914158Y-69951575D01*
X227728597Y-70081505D01*
X227561505Y-70248597D01*
X227425965Y-70442169D01*
X227425964Y-70442171D01*
X227326098Y-70656335D01*
X227326094Y-70656344D01*
X227264938Y-70884586D01*
X227264936Y-70884596D01*
X227244341Y-71119999D01*
X227244341Y-71120000D01*
X227264936Y-71355403D01*
X227264938Y-71355413D01*
X227326094Y-71583655D01*
X227326096Y-71583659D01*
X227326097Y-71583663D01*
X227398839Y-71739658D01*
X227425965Y-71797830D01*
X227425967Y-71797834D01*
X227561501Y-71991395D01*
X227561506Y-71991402D01*
X227728597Y-72158493D01*
X227728603Y-72158498D01*
X227914158Y-72288425D01*
X227957783Y-72343002D01*
X227964977Y-72412500D01*
X227933454Y-72474855D01*
X227914158Y-72491575D01*
X227728597Y-72621505D01*
X227561505Y-72788597D01*
X227425965Y-72982169D01*
X227425964Y-72982171D01*
X227326098Y-73196335D01*
X227326094Y-73196344D01*
X227264938Y-73424586D01*
X227264936Y-73424596D01*
X227244341Y-73659999D01*
X227244341Y-73660000D01*
X227264936Y-73895403D01*
X227264938Y-73895413D01*
X227326094Y-74123655D01*
X227326096Y-74123659D01*
X227326097Y-74123663D01*
X227398839Y-74279658D01*
X227425965Y-74337830D01*
X227425967Y-74337834D01*
X227561501Y-74531395D01*
X227561506Y-74531402D01*
X227728597Y-74698493D01*
X227728603Y-74698498D01*
X227914594Y-74828730D01*
X227958219Y-74883307D01*
X227965413Y-74952805D01*
X227933890Y-75015160D01*
X227914595Y-75031880D01*
X227728922Y-75161890D01*
X227728920Y-75161891D01*
X227561891Y-75328920D01*
X227561886Y-75328926D01*
X227426400Y-75522420D01*
X227426399Y-75522422D01*
X227326570Y-75736507D01*
X227326567Y-75736513D01*
X227269364Y-75949999D01*
X227269364Y-75950000D01*
X228166988Y-75950000D01*
X228134075Y-76007007D01*
X228100000Y-76134174D01*
X228100000Y-76265826D01*
X228134075Y-76392993D01*
X228166988Y-76450000D01*
X227269364Y-76450000D01*
X227326567Y-76663486D01*
X227326570Y-76663492D01*
X227426399Y-76877578D01*
X227561894Y-77071082D01*
X227728917Y-77238105D01*
X227914595Y-77368119D01*
X227958219Y-77422696D01*
X227965412Y-77492195D01*
X227933890Y-77554549D01*
X227914595Y-77571269D01*
X227728594Y-77701508D01*
X227561505Y-77868597D01*
X227425965Y-78062169D01*
X227425964Y-78062171D01*
X227326098Y-78276335D01*
X227326094Y-78276344D01*
X227264938Y-78504586D01*
X227264936Y-78504596D01*
X227244341Y-78739999D01*
X227244341Y-78740000D01*
X227264936Y-78975403D01*
X227264938Y-78975413D01*
X227326094Y-79203655D01*
X227326096Y-79203659D01*
X227326097Y-79203663D01*
X227398839Y-79359658D01*
X227425965Y-79417830D01*
X227425967Y-79417834D01*
X227561501Y-79611395D01*
X227561506Y-79611402D01*
X227728597Y-79778493D01*
X227728603Y-79778498D01*
X227914158Y-79908425D01*
X227957783Y-79963002D01*
X227964977Y-80032500D01*
X227933454Y-80094855D01*
X227914158Y-80111575D01*
X227728597Y-80241505D01*
X227561505Y-80408597D01*
X227425965Y-80602169D01*
X227425964Y-80602171D01*
X227326098Y-80816335D01*
X227326094Y-80816344D01*
X227264938Y-81044586D01*
X227264936Y-81044596D01*
X227244341Y-81279999D01*
X227244341Y-81280000D01*
X227264936Y-81515403D01*
X227264938Y-81515413D01*
X227326094Y-81743655D01*
X227326096Y-81743659D01*
X227326097Y-81743663D01*
X227398839Y-81899658D01*
X227425965Y-81957830D01*
X227425967Y-81957834D01*
X227534281Y-82112521D01*
X227545266Y-82128210D01*
X227561501Y-82151395D01*
X227561506Y-82151402D01*
X227728597Y-82318493D01*
X227728603Y-82318498D01*
X227914158Y-82448425D01*
X227957783Y-82503002D01*
X227964977Y-82572500D01*
X227933454Y-82634855D01*
X227914158Y-82651575D01*
X227728597Y-82781505D01*
X227561505Y-82948597D01*
X227425965Y-83142169D01*
X227425964Y-83142171D01*
X227326098Y-83356335D01*
X227326094Y-83356344D01*
X227264938Y-83584586D01*
X227264936Y-83584596D01*
X227244341Y-83819999D01*
X227244341Y-83820000D01*
X227264936Y-84055403D01*
X227264938Y-84055413D01*
X227326094Y-84283655D01*
X227326096Y-84283659D01*
X227326097Y-84283663D01*
X227398839Y-84439658D01*
X227425965Y-84497830D01*
X227425967Y-84497834D01*
X227561501Y-84691395D01*
X227561506Y-84691402D01*
X227728597Y-84858493D01*
X227728603Y-84858498D01*
X227914158Y-84988425D01*
X227957783Y-85043002D01*
X227964977Y-85112500D01*
X227933454Y-85174855D01*
X227914158Y-85191575D01*
X227728597Y-85321505D01*
X227561505Y-85488597D01*
X227425965Y-85682169D01*
X227425964Y-85682171D01*
X227326098Y-85896335D01*
X227326094Y-85896344D01*
X227264938Y-86124586D01*
X227264936Y-86124596D01*
X227244341Y-86359999D01*
X227244341Y-86360000D01*
X227264936Y-86595403D01*
X227264938Y-86595413D01*
X227326094Y-86823655D01*
X227326096Y-86823659D01*
X227326097Y-86823663D01*
X227398839Y-86979658D01*
X227425965Y-87037830D01*
X227425967Y-87037834D01*
X227442227Y-87061055D01*
X227561504Y-87231400D01*
X227561506Y-87231402D01*
X227728597Y-87398493D01*
X227728603Y-87398498D01*
X227914594Y-87528730D01*
X227958219Y-87583307D01*
X227965413Y-87652805D01*
X227933890Y-87715160D01*
X227914595Y-87731880D01*
X227728922Y-87861890D01*
X227728920Y-87861891D01*
X227561891Y-88028920D01*
X227561886Y-88028926D01*
X227426400Y-88222420D01*
X227426399Y-88222422D01*
X227326570Y-88436507D01*
X227326567Y-88436513D01*
X227269364Y-88649999D01*
X227269364Y-88650000D01*
X228166988Y-88650000D01*
X228134075Y-88707007D01*
X228100000Y-88834174D01*
X228100000Y-88965826D01*
X228134075Y-89092993D01*
X228166988Y-89150000D01*
X227269364Y-89150000D01*
X227326567Y-89363486D01*
X227326570Y-89363492D01*
X227426399Y-89577578D01*
X227561894Y-89771082D01*
X227728917Y-89938105D01*
X227914595Y-90068119D01*
X227958219Y-90122696D01*
X227965412Y-90192195D01*
X227933890Y-90254549D01*
X227914595Y-90271269D01*
X227728594Y-90401508D01*
X227561505Y-90568597D01*
X227425965Y-90762169D01*
X227425964Y-90762171D01*
X227326098Y-90976335D01*
X227326094Y-90976344D01*
X227264938Y-91204586D01*
X227264936Y-91204596D01*
X227244341Y-91439999D01*
X227244341Y-91440000D01*
X227264936Y-91675403D01*
X227264938Y-91675413D01*
X227326094Y-91903655D01*
X227326096Y-91903659D01*
X227326097Y-91903663D01*
X227392720Y-92046536D01*
X227425965Y-92117830D01*
X227425967Y-92117834D01*
X227509469Y-92237086D01*
X227561504Y-92311400D01*
X227561506Y-92311402D01*
X227728597Y-92478493D01*
X227728603Y-92478498D01*
X227914158Y-92608425D01*
X227957783Y-92663002D01*
X227964977Y-92732500D01*
X227933454Y-92794855D01*
X227914158Y-92811575D01*
X227728597Y-92941505D01*
X227561505Y-93108597D01*
X227425965Y-93302169D01*
X227425964Y-93302171D01*
X227326098Y-93516335D01*
X227326094Y-93516344D01*
X227264938Y-93744586D01*
X227264936Y-93744596D01*
X227244341Y-93979999D01*
X227244341Y-93980000D01*
X227264936Y-94215403D01*
X227264938Y-94215413D01*
X227326094Y-94443655D01*
X227326096Y-94443659D01*
X227326097Y-94443663D01*
X227410174Y-94623966D01*
X227425965Y-94657830D01*
X227425967Y-94657834D01*
X227504352Y-94769778D01*
X227561501Y-94851396D01*
X227561506Y-94851402D01*
X227728597Y-95018493D01*
X227728603Y-95018498D01*
X227914158Y-95148425D01*
X227957783Y-95203002D01*
X227964977Y-95272500D01*
X227933454Y-95334855D01*
X227914158Y-95351575D01*
X227728597Y-95481505D01*
X227561505Y-95648597D01*
X227425965Y-95842169D01*
X227425964Y-95842171D01*
X227326098Y-96056335D01*
X227326094Y-96056344D01*
X227264938Y-96284586D01*
X227264936Y-96284596D01*
X227244341Y-96519999D01*
X227244341Y-96520000D01*
X227264936Y-96755403D01*
X227264938Y-96755413D01*
X227326094Y-96983655D01*
X227326096Y-96983659D01*
X227326097Y-96983663D01*
X227398839Y-97139658D01*
X227425965Y-97197830D01*
X227425967Y-97197834D01*
X227491988Y-97292121D01*
X227561501Y-97391396D01*
X227561506Y-97391402D01*
X227728597Y-97558493D01*
X227728603Y-97558498D01*
X227914158Y-97688425D01*
X227957783Y-97743002D01*
X227964977Y-97812500D01*
X227933454Y-97874855D01*
X227914158Y-97891575D01*
X227728597Y-98021505D01*
X227561505Y-98188597D01*
X227425965Y-98382169D01*
X227425964Y-98382171D01*
X227326098Y-98596335D01*
X227326094Y-98596344D01*
X227264938Y-98824586D01*
X227264936Y-98824596D01*
X227244341Y-99059999D01*
X227244341Y-99060000D01*
X227264936Y-99295403D01*
X227264938Y-99295413D01*
X227326094Y-99523655D01*
X227326096Y-99523659D01*
X227326097Y-99523663D01*
X227398839Y-99679658D01*
X227425965Y-99737830D01*
X227425967Y-99737834D01*
X227505296Y-99851127D01*
X227561501Y-99931396D01*
X227561506Y-99931402D01*
X227728597Y-100098493D01*
X227728603Y-100098498D01*
X227914594Y-100228730D01*
X227958219Y-100283307D01*
X227965413Y-100352805D01*
X227933890Y-100415160D01*
X227914595Y-100431880D01*
X227728922Y-100561890D01*
X227728920Y-100561891D01*
X227561891Y-100728920D01*
X227561886Y-100728926D01*
X227426400Y-100922420D01*
X227426399Y-100922422D01*
X227326570Y-101136507D01*
X227326567Y-101136513D01*
X227269364Y-101349999D01*
X227269364Y-101350000D01*
X228166988Y-101350000D01*
X228134075Y-101407007D01*
X228100000Y-101534174D01*
X228100000Y-101665826D01*
X228134075Y-101792993D01*
X228166988Y-101850000D01*
X227269364Y-101850000D01*
X227326567Y-102063486D01*
X227326570Y-102063492D01*
X227426399Y-102277578D01*
X227561894Y-102471082D01*
X227728917Y-102638105D01*
X227914595Y-102768119D01*
X227958219Y-102822696D01*
X227965412Y-102892195D01*
X227933890Y-102954549D01*
X227914595Y-102971269D01*
X227728594Y-103101508D01*
X227561505Y-103268597D01*
X227425965Y-103462169D01*
X227425964Y-103462171D01*
X227326098Y-103676335D01*
X227326094Y-103676344D01*
X227264938Y-103904586D01*
X227264936Y-103904596D01*
X227244341Y-104139999D01*
X227244341Y-104140000D01*
X227264936Y-104375403D01*
X227264938Y-104375413D01*
X227326094Y-104603655D01*
X227326096Y-104603659D01*
X227326097Y-104603663D01*
X227398839Y-104759658D01*
X227425965Y-104817830D01*
X227425967Y-104817834D01*
X227534281Y-104972521D01*
X227561501Y-105011396D01*
X227561506Y-105011402D01*
X227728597Y-105178493D01*
X227728603Y-105178498D01*
X227914158Y-105308425D01*
X227957783Y-105363002D01*
X227964977Y-105432500D01*
X227933454Y-105494855D01*
X227914158Y-105511575D01*
X227728597Y-105641505D01*
X227561505Y-105808597D01*
X227425965Y-106002169D01*
X227425964Y-106002171D01*
X227326098Y-106216335D01*
X227326094Y-106216344D01*
X227264938Y-106444586D01*
X227264936Y-106444596D01*
X227244341Y-106679999D01*
X227244341Y-106680000D01*
X227264936Y-106915403D01*
X227264938Y-106915413D01*
X227326094Y-107143655D01*
X227326096Y-107143659D01*
X227326097Y-107143663D01*
X227398839Y-107299658D01*
X227425965Y-107357830D01*
X227425967Y-107357834D01*
X227446499Y-107387156D01*
X227561505Y-107551401D01*
X227728599Y-107718495D01*
X227805135Y-107772086D01*
X227922165Y-107854032D01*
X227922167Y-107854033D01*
X227922170Y-107854035D01*
X228136337Y-107953903D01*
X228364592Y-108015063D01*
X228535319Y-108030000D01*
X228599999Y-108035659D01*
X228600000Y-108035659D01*
X228600001Y-108035659D01*
X228664681Y-108030000D01*
X228835408Y-108015063D01*
X229063663Y-107953903D01*
X229277830Y-107854035D01*
X229471401Y-107718495D01*
X229638495Y-107551401D01*
X229774035Y-107357830D01*
X229776707Y-107352097D01*
X229822878Y-107299658D01*
X229889091Y-107280500D01*
X232390909Y-107280500D01*
X232457948Y-107300185D01*
X232503292Y-107352097D01*
X232505965Y-107357830D01*
X232641505Y-107551401D01*
X232808599Y-107718495D01*
X232885135Y-107772086D01*
X233002165Y-107854032D01*
X233002167Y-107854033D01*
X233002170Y-107854035D01*
X233216337Y-107953903D01*
X233444592Y-108015063D01*
X233615319Y-108030000D01*
X233679999Y-108035659D01*
X233680000Y-108035659D01*
X233680001Y-108035659D01*
X233744681Y-108030000D01*
X233915408Y-108015063D01*
X234143663Y-107953903D01*
X234357830Y-107854035D01*
X234551401Y-107718495D01*
X234718495Y-107551401D01*
X234854035Y-107357830D01*
X234953903Y-107143663D01*
X235015063Y-106915408D01*
X235035659Y-106680000D01*
X235015063Y-106444592D01*
X234953903Y-106216337D01*
X234854035Y-106002171D01*
X234854034Y-106002169D01*
X234718494Y-105808597D01*
X234551402Y-105641506D01*
X234551396Y-105641501D01*
X234365842Y-105511575D01*
X234322217Y-105456998D01*
X234315023Y-105387500D01*
X234346546Y-105325145D01*
X234365842Y-105308425D01*
X234473284Y-105233193D01*
X234551401Y-105178495D01*
X234718495Y-105011401D01*
X234854035Y-104817830D01*
X234953903Y-104603663D01*
X235015063Y-104375408D01*
X235035659Y-104140000D01*
X235015063Y-103904592D01*
X234953903Y-103676337D01*
X234854035Y-103462171D01*
X234854034Y-103462169D01*
X234718494Y-103268597D01*
X234551402Y-103101506D01*
X234551401Y-103101505D01*
X234365405Y-102971269D01*
X234321781Y-102916692D01*
X234314588Y-102847193D01*
X234346110Y-102784839D01*
X234365405Y-102768119D01*
X234551082Y-102638105D01*
X234718105Y-102471082D01*
X234853600Y-102277578D01*
X234953429Y-102063492D01*
X234953432Y-102063486D01*
X235010636Y-101850000D01*
X234113012Y-101850000D01*
X234145925Y-101792993D01*
X234180000Y-101665826D01*
X234180000Y-101534174D01*
X234145925Y-101407007D01*
X234113012Y-101350000D01*
X235010636Y-101350000D01*
X235010635Y-101349999D01*
X234953432Y-101136513D01*
X234953429Y-101136507D01*
X234853600Y-100922422D01*
X234853599Y-100922420D01*
X234718113Y-100728926D01*
X234718108Y-100728920D01*
X234551078Y-100561890D01*
X234365405Y-100431879D01*
X234321780Y-100377302D01*
X234314588Y-100307804D01*
X234346110Y-100245449D01*
X234365406Y-100228730D01*
X234445732Y-100172485D01*
X234551401Y-100098495D01*
X234718495Y-99931401D01*
X234854035Y-99737830D01*
X234953903Y-99523663D01*
X235015063Y-99295408D01*
X235035659Y-99060000D01*
X235015063Y-98824592D01*
X234953903Y-98596337D01*
X234854035Y-98382171D01*
X234854034Y-98382169D01*
X234718494Y-98188597D01*
X234551402Y-98021506D01*
X234551396Y-98021501D01*
X234365842Y-97891575D01*
X234322217Y-97836998D01*
X234315023Y-97767500D01*
X234346546Y-97705145D01*
X234365842Y-97688425D01*
X234414476Y-97654371D01*
X234551401Y-97558495D01*
X234718495Y-97391401D01*
X234854035Y-97197830D01*
X234953903Y-96983663D01*
X235015063Y-96755408D01*
X235035659Y-96520000D01*
X235015063Y-96284592D01*
X234959997Y-96079081D01*
X234953905Y-96056344D01*
X234953904Y-96056343D01*
X234953903Y-96056337D01*
X234854035Y-95842171D01*
X234854034Y-95842169D01*
X234718494Y-95648597D01*
X234551402Y-95481506D01*
X234551396Y-95481501D01*
X234365842Y-95351575D01*
X234322217Y-95296998D01*
X234315023Y-95227500D01*
X234346546Y-95165145D01*
X234365842Y-95148425D01*
X234428743Y-95104381D01*
X234551401Y-95018495D01*
X234718495Y-94851401D01*
X234854035Y-94657830D01*
X234953903Y-94443663D01*
X235015063Y-94215408D01*
X235035659Y-93980000D01*
X235015063Y-93744592D01*
X234953903Y-93516337D01*
X234854035Y-93302171D01*
X234854034Y-93302169D01*
X234718494Y-93108597D01*
X234551402Y-92941506D01*
X234551396Y-92941501D01*
X234365842Y-92811575D01*
X234322217Y-92756998D01*
X234315023Y-92687500D01*
X234346546Y-92625145D01*
X234365842Y-92608425D01*
X234395029Y-92587988D01*
X234551401Y-92478495D01*
X234718495Y-92311401D01*
X234854035Y-92117830D01*
X234953903Y-91903663D01*
X235015063Y-91675408D01*
X235035659Y-91440000D01*
X235015063Y-91204592D01*
X234957146Y-90988440D01*
X234953905Y-90976344D01*
X234953904Y-90976343D01*
X234953903Y-90976337D01*
X234854035Y-90762171D01*
X234854034Y-90762169D01*
X234718494Y-90568597D01*
X234551402Y-90401506D01*
X234551401Y-90401505D01*
X234365405Y-90271269D01*
X234321781Y-90216692D01*
X234314588Y-90147193D01*
X234346110Y-90084839D01*
X234365405Y-90068119D01*
X234551082Y-89938105D01*
X234718105Y-89771082D01*
X234853600Y-89577578D01*
X234953429Y-89363492D01*
X234953432Y-89363486D01*
X235010636Y-89150000D01*
X234113012Y-89150000D01*
X234145925Y-89092993D01*
X234180000Y-88965826D01*
X234180000Y-88834174D01*
X234145925Y-88707007D01*
X234113012Y-88650000D01*
X235010636Y-88650000D01*
X235010635Y-88649999D01*
X234953432Y-88436513D01*
X234953429Y-88436507D01*
X234853600Y-88222422D01*
X234853599Y-88222420D01*
X234718113Y-88028926D01*
X234718108Y-88028920D01*
X234551078Y-87861890D01*
X234365405Y-87731879D01*
X234321780Y-87677302D01*
X234314588Y-87607804D01*
X234346110Y-87545449D01*
X234365406Y-87528730D01*
X234366279Y-87528119D01*
X234551401Y-87398495D01*
X234718495Y-87231401D01*
X234854035Y-87037830D01*
X234953903Y-86823663D01*
X235015063Y-86595408D01*
X235035659Y-86360000D01*
X235015063Y-86124592D01*
X234953903Y-85896337D01*
X234854035Y-85682171D01*
X234854034Y-85682169D01*
X234718494Y-85488597D01*
X234551402Y-85321506D01*
X234551396Y-85321501D01*
X234365842Y-85191575D01*
X234322217Y-85136998D01*
X234315023Y-85067500D01*
X234346546Y-85005145D01*
X234365842Y-84988425D01*
X234470966Y-84914816D01*
X234551401Y-84858495D01*
X234718495Y-84691401D01*
X234854035Y-84497830D01*
X234953903Y-84283663D01*
X235015063Y-84055408D01*
X235035659Y-83820000D01*
X235015063Y-83584592D01*
X234958043Y-83371789D01*
X234953905Y-83356344D01*
X234953904Y-83356343D01*
X234953903Y-83356337D01*
X234854035Y-83142171D01*
X234854034Y-83142169D01*
X234718494Y-82948597D01*
X234551402Y-82781506D01*
X234551396Y-82781501D01*
X234365842Y-82651575D01*
X234322217Y-82596998D01*
X234315023Y-82527500D01*
X234346546Y-82465145D01*
X234365842Y-82448425D01*
X234388026Y-82432891D01*
X234551401Y-82318495D01*
X234718495Y-82151401D01*
X234854035Y-81957830D01*
X234953903Y-81743663D01*
X235015063Y-81515408D01*
X235035659Y-81280000D01*
X235015063Y-81044592D01*
X234953903Y-80816337D01*
X234854035Y-80602171D01*
X234854034Y-80602169D01*
X234718494Y-80408597D01*
X234551402Y-80241506D01*
X234551396Y-80241501D01*
X234365842Y-80111575D01*
X234322217Y-80056998D01*
X234315023Y-79987500D01*
X234346546Y-79925145D01*
X234365842Y-79908425D01*
X234388026Y-79892891D01*
X234551401Y-79778495D01*
X234718495Y-79611401D01*
X234854035Y-79417830D01*
X234953903Y-79203663D01*
X235015063Y-78975408D01*
X235035659Y-78740000D01*
X235015063Y-78504592D01*
X234953903Y-78276337D01*
X234854035Y-78062171D01*
X234854034Y-78062169D01*
X234718494Y-77868597D01*
X234551402Y-77701506D01*
X234551401Y-77701505D01*
X234365405Y-77571269D01*
X234321781Y-77516692D01*
X234314588Y-77447193D01*
X234346110Y-77384839D01*
X234365405Y-77368119D01*
X234551082Y-77238105D01*
X234718105Y-77071082D01*
X234853600Y-76877578D01*
X234953429Y-76663492D01*
X234953432Y-76663486D01*
X235010636Y-76450000D01*
X234113012Y-76450000D01*
X234145925Y-76392993D01*
X234180000Y-76265826D01*
X234180000Y-76134174D01*
X234145925Y-76007007D01*
X234113012Y-75950000D01*
X235010636Y-75950000D01*
X235010635Y-75949999D01*
X234953432Y-75736513D01*
X234953429Y-75736507D01*
X234853600Y-75522422D01*
X234853599Y-75522420D01*
X234718113Y-75328926D01*
X234718108Y-75328920D01*
X234551078Y-75161890D01*
X234365405Y-75031879D01*
X234321780Y-74977302D01*
X234314588Y-74907804D01*
X234346110Y-74845449D01*
X234365406Y-74828730D01*
X234551401Y-74698495D01*
X234718495Y-74531401D01*
X234854035Y-74337830D01*
X234953903Y-74123663D01*
X235015063Y-73895408D01*
X235035659Y-73660000D01*
X235015063Y-73424592D01*
X234953903Y-73196337D01*
X234854035Y-72982171D01*
X234854034Y-72982169D01*
X234718494Y-72788597D01*
X234551402Y-72621506D01*
X234551396Y-72621501D01*
X234365842Y-72491575D01*
X234322217Y-72436998D01*
X234315023Y-72367500D01*
X234346546Y-72305145D01*
X234365842Y-72288425D01*
X234388026Y-72272891D01*
X234551401Y-72158495D01*
X234718495Y-71991401D01*
X234854035Y-71797830D01*
X234953903Y-71583663D01*
X235015063Y-71355408D01*
X235035659Y-71120000D01*
X235015063Y-70884592D01*
X234953903Y-70656337D01*
X234854035Y-70442171D01*
X234854034Y-70442169D01*
X234718494Y-70248597D01*
X234551402Y-70081506D01*
X234551396Y-70081501D01*
X234365842Y-69951575D01*
X234322217Y-69896998D01*
X234315023Y-69827500D01*
X234346546Y-69765145D01*
X234365842Y-69748425D01*
X234388026Y-69732891D01*
X234551401Y-69618495D01*
X234718495Y-69451401D01*
X234854035Y-69257830D01*
X234953903Y-69043663D01*
X235015063Y-68815408D01*
X235035659Y-68580000D01*
X235015063Y-68344592D01*
X234953903Y-68116337D01*
X234854035Y-67902171D01*
X234768141Y-67779500D01*
X234718494Y-67708597D01*
X234551402Y-67541506D01*
X234551396Y-67541501D01*
X234365842Y-67411575D01*
X234322217Y-67356998D01*
X234315023Y-67287500D01*
X234346546Y-67225145D01*
X234365842Y-67208425D01*
X234388026Y-67192891D01*
X234551401Y-67078495D01*
X234718495Y-66911401D01*
X234854035Y-66717830D01*
X234953903Y-66503663D01*
X235015063Y-66275408D01*
X235035659Y-66040000D01*
X235015063Y-65804592D01*
X234953903Y-65576337D01*
X234854035Y-65362171D01*
X234768141Y-65239500D01*
X234718494Y-65168597D01*
X234551402Y-65001506D01*
X234551401Y-65001505D01*
X234365405Y-64871269D01*
X234321781Y-64816692D01*
X234314588Y-64747193D01*
X234346110Y-64684839D01*
X234365405Y-64668119D01*
X234551082Y-64538105D01*
X234718105Y-64371082D01*
X234853600Y-64177578D01*
X234953429Y-63963492D01*
X234953432Y-63963486D01*
X235010636Y-63750000D01*
X234113012Y-63750000D01*
X234145925Y-63692993D01*
X234180000Y-63565826D01*
X234180000Y-63434174D01*
X234145925Y-63307007D01*
X234113012Y-63250000D01*
X235010636Y-63250000D01*
X235010635Y-63249999D01*
X234953432Y-63036513D01*
X234953429Y-63036507D01*
X234853600Y-62822422D01*
X234853599Y-62822420D01*
X234718113Y-62628926D01*
X234718108Y-62628920D01*
X234551078Y-62461890D01*
X234365405Y-62331879D01*
X234321780Y-62277302D01*
X234314588Y-62207804D01*
X234346110Y-62145449D01*
X234365406Y-62128730D01*
X234551401Y-61998495D01*
X234718495Y-61831401D01*
X234854035Y-61637830D01*
X234953903Y-61423663D01*
X235015063Y-61195408D01*
X235035659Y-60960000D01*
X235015063Y-60724592D01*
X234964557Y-60536097D01*
X234953905Y-60496344D01*
X234953904Y-60496343D01*
X234953903Y-60496337D01*
X234854035Y-60282171D01*
X234848461Y-60274211D01*
X234718496Y-60088600D01*
X234718493Y-60088597D01*
X234596567Y-59966671D01*
X234563084Y-59905351D01*
X234568068Y-59835659D01*
X234609939Y-59779725D01*
X234640915Y-59762810D01*
X234772331Y-59713796D01*
X234887546Y-59627546D01*
X234973796Y-59512331D01*
X235024091Y-59377483D01*
X235030500Y-59317873D01*
X235030499Y-57522128D01*
X235024091Y-57462517D01*
X234973796Y-57327669D01*
X234973795Y-57327668D01*
X234973793Y-57327664D01*
X234887547Y-57212455D01*
X234887544Y-57212452D01*
X234772335Y-57126206D01*
X234772328Y-57126202D01*
X234637482Y-57075908D01*
X234637483Y-57075908D01*
X234577883Y-57069501D01*
X234577881Y-57069500D01*
X234577873Y-57069500D01*
X234577864Y-57069500D01*
X232782129Y-57069500D01*
X232782123Y-57069501D01*
X232722516Y-57075908D01*
X232587671Y-57126202D01*
X232587664Y-57126206D01*
X232472455Y-57212452D01*
X232472452Y-57212455D01*
X232386206Y-57327664D01*
X232386202Y-57327671D01*
X232335910Y-57462513D01*
X232335909Y-57462517D01*
X232330937Y-57508757D01*
X232304201Y-57573306D01*
X232246809Y-57613154D01*
X232207649Y-57619500D01*
X230072351Y-57619500D01*
X230005312Y-57599815D01*
X229959557Y-57547011D01*
X229949061Y-57508752D01*
X229944091Y-57462516D01*
X229893797Y-57327671D01*
X229893793Y-57327664D01*
X229807547Y-57212455D01*
X229807544Y-57212452D01*
X229692335Y-57126206D01*
X229692328Y-57126202D01*
X229557482Y-57075908D01*
X229557483Y-57075908D01*
X229497883Y-57069501D01*
X229497881Y-57069500D01*
X229497873Y-57069500D01*
X229497864Y-57069500D01*
X227702129Y-57069500D01*
X227702123Y-57069501D01*
X227642516Y-57075908D01*
X227507671Y-57126202D01*
X227507664Y-57126206D01*
X227392455Y-57212452D01*
X227392452Y-57212455D01*
X227306206Y-57327664D01*
X227306202Y-57327671D01*
X227255908Y-57462517D01*
X227249501Y-57522116D01*
X227249501Y-57522123D01*
X227249500Y-57522135D01*
X227249500Y-59317870D01*
X227249501Y-59317876D01*
X227255908Y-59377483D01*
X227306202Y-59512328D01*
X227306206Y-59512335D01*
X227392452Y-59627544D01*
X227392455Y-59627547D01*
X227507664Y-59713793D01*
X227507671Y-59713797D01*
X227639081Y-59762810D01*
X227695015Y-59804681D01*
X227719432Y-59870145D01*
X227704580Y-59938418D01*
X227683430Y-59966673D01*
X227561503Y-60088600D01*
X227425965Y-60282169D01*
X227425964Y-60282171D01*
X227326098Y-60496335D01*
X227326094Y-60496344D01*
X227264938Y-60724586D01*
X227264936Y-60724596D01*
X227244341Y-60959999D01*
X227244341Y-60960000D01*
X227264936Y-61195403D01*
X227264938Y-61195413D01*
X227326094Y-61423655D01*
X227326096Y-61423659D01*
X227326097Y-61423663D01*
X227417420Y-61619506D01*
X227425965Y-61637830D01*
X227425967Y-61637834D01*
X227561501Y-61831395D01*
X227561506Y-61831402D01*
X227728597Y-61998493D01*
X227728603Y-61998498D01*
X227914594Y-62128730D01*
X227958219Y-62183307D01*
X227965413Y-62252805D01*
X227933890Y-62315160D01*
X227914595Y-62331880D01*
X227728922Y-62461890D01*
X227728920Y-62461891D01*
X227561891Y-62628920D01*
X227561886Y-62628926D01*
X227426400Y-62822420D01*
X227426399Y-62822422D01*
X227326570Y-63036507D01*
X227326567Y-63036513D01*
X227269364Y-63249999D01*
X227269364Y-63250000D01*
X228166988Y-63250000D01*
X228134075Y-63307007D01*
X228100000Y-63434174D01*
X228100000Y-63565826D01*
X228134075Y-63692993D01*
X228166988Y-63750000D01*
X227269364Y-63750000D01*
X227326567Y-63963486D01*
X227326570Y-63963492D01*
X227426399Y-64177578D01*
X227561894Y-64371082D01*
X227728917Y-64538105D01*
X227914595Y-64668119D01*
X227958219Y-64722696D01*
X227965412Y-64792195D01*
X227933890Y-64854549D01*
X227914595Y-64871269D01*
X227728594Y-65001508D01*
X227561505Y-65168597D01*
X227425965Y-65362169D01*
X227425964Y-65362171D01*
X227326098Y-65576335D01*
X227326094Y-65576344D01*
X227264938Y-65804586D01*
X227264936Y-65804596D01*
X227244341Y-66039999D01*
X227244341Y-66040000D01*
X227264936Y-66275403D01*
X227264938Y-66275413D01*
X227326094Y-66503655D01*
X227326096Y-66503659D01*
X227326097Y-66503663D01*
X227425965Y-66717830D01*
X227425967Y-66717834D01*
X227561501Y-66911395D01*
X227561506Y-66911402D01*
X227728597Y-67078493D01*
X227728603Y-67078498D01*
X227914158Y-67208425D01*
X227957783Y-67263002D01*
X227964977Y-67332500D01*
X227933454Y-67394855D01*
X227914158Y-67411575D01*
X227728597Y-67541505D01*
X227561508Y-67708594D01*
X227548884Y-67726624D01*
X227494307Y-67770248D01*
X227447309Y-67779500D01*
X225212940Y-67779500D01*
X225145901Y-67759815D01*
X225125259Y-67743181D01*
X219586819Y-62204741D01*
X219553334Y-62143418D01*
X219550500Y-62117060D01*
X219550500Y-59921155D01*
X219550499Y-59921153D01*
X219520532Y-59770500D01*
X219519737Y-59766503D01*
X219462179Y-59627544D01*
X219459397Y-59620827D01*
X219459390Y-59620814D01*
X219371790Y-59489712D01*
X219371789Y-59489711D01*
X219260289Y-59378211D01*
X217053231Y-57171153D01*
X214760292Y-54878213D01*
X214760288Y-54878210D01*
X214629185Y-54790609D01*
X214629172Y-54790602D01*
X214483501Y-54730264D01*
X214483489Y-54730261D01*
X214328845Y-54699500D01*
X214328842Y-54699500D01*
X209328843Y-54699500D01*
X209171158Y-54699500D01*
X209171153Y-54699500D01*
X209016510Y-54730260D01*
X209016502Y-54730262D01*
X208870824Y-54790604D01*
X208870814Y-54790609D01*
X208739711Y-54878210D01*
X208739707Y-54878213D01*
X207317422Y-56300500D01*
X206989711Y-56628211D01*
X206933960Y-56683962D01*
X206878209Y-56739712D01*
X206790609Y-56870814D01*
X206790602Y-56870827D01*
X206730264Y-57016498D01*
X206730261Y-57016510D01*
X206699500Y-57171153D01*
X206699500Y-60536097D01*
X206679815Y-60603136D01*
X206627011Y-60648891D01*
X206557853Y-60658835D01*
X206494297Y-60629810D01*
X206470507Y-60602070D01*
X206379817Y-60457739D01*
X206252262Y-60330184D01*
X206099523Y-60234211D01*
X205929254Y-60174631D01*
X205929249Y-60174630D01*
X205750004Y-60154435D01*
X205749996Y-60154435D01*
X205570750Y-60174630D01*
X205570745Y-60174631D01*
X205400476Y-60234211D01*
X205247737Y-60330184D01*
X205214741Y-60363181D01*
X205153418Y-60396666D01*
X205127060Y-60399500D01*
X201332412Y-60399500D01*
X201265373Y-60379815D01*
X201255097Y-60372445D01*
X201252263Y-60370185D01*
X201252262Y-60370184D01*
X201190821Y-60331578D01*
X201099523Y-60274211D01*
X200929254Y-60214631D01*
X200929249Y-60214630D01*
X200750004Y-60194435D01*
X200749996Y-60194435D01*
X200570750Y-60214630D01*
X200570745Y-60214631D01*
X200400476Y-60274211D01*
X200247737Y-60370184D01*
X200120184Y-60497737D01*
X200024211Y-60650476D01*
X199964631Y-60820745D01*
X199964630Y-60820750D01*
X199944435Y-60999996D01*
X199944435Y-61000003D01*
X199964630Y-61179249D01*
X199964631Y-61179254D01*
X200024211Y-61349523D01*
X200095050Y-61462262D01*
X200120184Y-61502262D01*
X200247738Y-61629816D01*
X200400478Y-61725789D01*
X200526117Y-61769752D01*
X200570745Y-61785368D01*
X200570750Y-61785369D01*
X200749996Y-61805565D01*
X200750000Y-61805565D01*
X200750004Y-61805565D01*
X200929249Y-61785369D01*
X200929252Y-61785368D01*
X200929255Y-61785368D01*
X201099522Y-61725789D01*
X201252262Y-61629816D01*
X201252267Y-61629810D01*
X201255097Y-61627555D01*
X201257275Y-61626665D01*
X201258158Y-61626111D01*
X201258255Y-61626265D01*
X201319783Y-61601145D01*
X201332412Y-61600500D01*
X205229017Y-61600500D01*
X205294989Y-61619506D01*
X205400477Y-61685789D01*
X205400481Y-61685790D01*
X205570737Y-61745366D01*
X205570743Y-61745367D01*
X205570745Y-61745368D01*
X205570746Y-61745368D01*
X205570750Y-61745369D01*
X205749996Y-61765565D01*
X205750000Y-61765565D01*
X205750004Y-61765565D01*
X205929249Y-61745369D01*
X205929252Y-61745368D01*
X205929255Y-61745368D01*
X206099522Y-61685789D01*
X206252262Y-61589816D01*
X206379816Y-61462262D01*
X206470506Y-61317930D01*
X206522841Y-61271639D01*
X206591895Y-61260991D01*
X206655743Y-61289366D01*
X206694115Y-61347756D01*
X206699500Y-61383902D01*
X206699500Y-80117060D01*
X206679815Y-80184099D01*
X206663181Y-80204741D01*
X204954741Y-81913181D01*
X204893418Y-81946666D01*
X204867060Y-81949500D01*
X186671155Y-81949500D01*
X186516510Y-81980261D01*
X186516498Y-81980264D01*
X186370827Y-82040602D01*
X186370814Y-82040609D01*
X186239711Y-82128210D01*
X186239707Y-82128213D01*
X184712738Y-83655184D01*
X184585186Y-83782735D01*
X184585180Y-83782742D01*
X184544092Y-83848132D01*
X184542204Y-83851047D01*
X184505604Y-83905824D01*
X184505600Y-83905832D01*
X184505266Y-83906639D01*
X184495713Y-83925127D01*
X184489212Y-83935474D01*
X184489210Y-83935477D01*
X184467982Y-83996140D01*
X184465504Y-84002631D01*
X184445264Y-84051496D01*
X184445263Y-84051502D01*
X184442550Y-84065140D01*
X184437975Y-84081898D01*
X184429634Y-84105735D01*
X184429632Y-84105742D01*
X184423890Y-84156696D01*
X184422288Y-84166994D01*
X184414500Y-84206152D01*
X184414500Y-84233085D01*
X184413720Y-84246969D01*
X184409435Y-84284998D01*
X179070000Y-84284998D01*
X179070000Y-53464000D01*
X179089685Y-53396961D01*
X179142489Y-53351206D01*
X179194000Y-53340000D01*
X236096000Y-53340000D01*
X236163039Y-53359685D01*
G37*
%TD.AperFunction*%
%TD*%
M02*
